<?xml version="1.0" encoding="UTF-8" standalone="no" ?>
<!DOCTYPE svg PUBLIC "-//W3C//DTD SVG 1.1//EN" "http://www.w3.org/Graphics/SVG/1.1/DTD/svg11.dtd">
<svg xmlns="http://www.w3.org/2000/svg" xmlns:xlink="http://www.w3.org/1999/xlink" version="1.1" width="1080" height="1080" viewBox="0 0 1080 1080" xml:space="preserve">
<desc>Created with Fabric.js 5.2.4</desc>
<defs>
</defs>
<g transform="matrix(1 0 0 1 540 540)" id="4827cb29-5915-40c3-9de4-0d08bbb61717"  >
<rect style="stroke: none; stroke-width: 1; stroke-dasharray: none; stroke-linecap: butt; stroke-dashoffset: 0; stroke-linejoin: miter; stroke-miterlimit: 4; fill: rgb(255,255,255); fill-rule: nonzero; opacity: 1; visibility: hidden;" vector-effect="non-scaling-stroke"  x="-540" y="-540" rx="0" ry="0" width="1080" height="1080" />
</g>
<g transform="matrix(1 0 0 1 540 540)" id="7473c25b-6d95-4943-855e-7684d49cfb11"  >
</g>
<g transform="matrix(6.35 0 0 6.35 540 540)"  >
<g style=""   >
		<g transform="matrix(1 0 0 1 58.6 -9.99)" clip-path="url(#CLIPPATH_3)"  >
<clipPath id="CLIPPATH_3" >
	<rect transform="matrix(1 0 0 1 -58.6 9.99)" id="clip0_1_3380" x="-85" y="-42.5" rx="0" ry="0" width="170" height="85" />
</clipPath>
<path style="stroke: none; stroke-width: 1; stroke-dasharray: none; stroke-linecap: butt; stroke-dashoffset: 0; stroke-linejoin: miter; stroke-miterlimit: 4; fill: rgb(33,184,249); fill-rule: nonzero; opacity: 1;" vector-effect="non-scaling-stroke"  transform=" translate(-143.6, -32.51)" d="M 144.642 33.2349 C 145.322 32.2675 145.407 31.1589 144.834 30.7586 C 144.261 30.3584 143.246 30.8182 142.567 31.7855 C 141.888 32.7529 141.802 33.8616 142.375 34.2618 C 142.948 34.662 143.963 34.2023 144.642 33.2349 Z" stroke-linecap="round" />
</g>
		<g transform="matrix(1 0 0 1 0 -0.23)" clip-path="url(#CLIPPATH_4)"  >
<clipPath id="CLIPPATH_4" >
	<rect transform="matrix(1 0 0 1 0 0.23)" id="clip0_1_3380" x="-85" y="-42.5" rx="0" ry="0" width="170" height="85" />
</clipPath>
<path style="stroke: none; stroke-width: 1; stroke-dasharray: none; stroke-linecap: butt; stroke-dashoffset: 0; stroke-linejoin: miter; stroke-miterlimit: 4; fill: rgb(230,230,230); fill-rule: nonzero; opacity: 1;" vector-effect="non-scaling-stroke"  transform=" translate(-85, -42.27)" d="M 168.119 84.5389 L 1.88642 84.5389 C 1.41998 84.5383 0.972802 84.3533 0.642979 84.0243 C 0.313155 83.6954 0.127624 83.2493 0.127075 82.7841 L 0.127075 1.75476 C 0.12762 1.28954 0.313155 0.843523 0.642979 0.514558 C 0.972803 0.185594 1.41998 0.000543245 1.88642 0 L 168.119 0 C 168.586 0.000547274 169.033 0.185602 169.363 0.514566 C 169.693 0.84353 169.878 1.28954 169.879 1.75476 L 169.879 82.7841 C 169.878 83.2493 169.693 83.6954 169.363 84.0243 C 169.033 84.3533 168.586 84.5383 168.119 84.5389 Z M 1.88642 0.701914 C 1.60655 0.702218 1.33823 0.813241 1.14034 1.01062 C 0.942438 1.208 0.831125 1.47562 0.83082 1.75476 L 0.83082 82.7841 C 0.831125 83.0633 0.942438 83.3309 1.14034 83.5283 C 1.33823 83.7256 1.60655 83.8367 1.88642 83.837 L 168.119 83.837 C 168.399 83.8367 168.668 83.7256 168.866 83.5283 C 169.063 83.3309 169.175 83.0633 169.175 82.7841 L 169.175 1.75476 C 169.175 1.47562 169.063 1.208 168.866 1.01062 C 168.668 0.813241 168.399 0.702219 168.119 0.701914 L 1.88642 0.701914 Z" stroke-linecap="round" />
</g>
		<g transform="matrix(1 0 0 1 57.24 21.21)" clip-path="url(#CLIPPATH_5)"  >
<clipPath id="CLIPPATH_5" >
	<rect transform="matrix(1 0 0 1 -57.24 -21.21)" id="clip0_1_3380" x="-85" y="-42.5" rx="0" ry="0" width="170" height="85" />
</clipPath>
<path style="stroke: none; stroke-width: 1; stroke-dasharray: none; stroke-linecap: butt; stroke-dashoffset: 0; stroke-linejoin: miter; stroke-miterlimit: 4; fill: rgb(63,61,86); fill-rule: nonzero; opacity: 1;" vector-effect="non-scaling-stroke"  transform=" translate(-142.24, -63.71)" d="M 134.1 62.4372 C 134.033 62.4373 133.968 62.464 133.92 62.5116 C 133.872 62.5592 133.846 62.6237 133.846 62.691 L 133.846 64.7208 C 133.846 64.788 133.872 64.8525 133.92 64.9001 C 133.968 64.9477 134.032 64.9744 134.1 64.9745 L 150.381 64.9745 C 150.448 64.9744 150.513 64.9477 150.561 64.9001 C 150.608 64.8525 150.635 64.788 150.635 64.7208 L 150.635 62.691 C 150.635 62.6237 150.608 62.5592 150.561 62.5116 C 150.513 62.464 150.448 62.4373 150.381 62.4372 L 134.1 62.4372 Z" stroke-linecap="round" />
</g>
		<g transform="matrix(1 0 0 1 0 21.21)" clip-path="url(#CLIPPATH_6)"  >
<clipPath id="CLIPPATH_6" >
	<rect transform="matrix(1 0 0 1 0 -21.21)" id="clip0_1_3380" x="-85" y="-42.5" rx="0" ry="0" width="170" height="85" />
</clipPath>
<path style="stroke: none; stroke-width: 1; stroke-dasharray: none; stroke-linecap: butt; stroke-dashoffset: 0; stroke-linejoin: miter; stroke-miterlimit: 4; fill: rgb(33,184,249); fill-rule: nonzero; opacity: 1;" vector-effect="non-scaling-stroke"  transform=" translate(-85, -63.71)" d="M 76.8625 62.4372 C 76.7951 62.4373 76.7304 62.464 76.6827 62.5116 C 76.635 62.5592 76.6082 62.6237 76.6081 62.691 L 76.6081 64.7208 C 76.6082 64.788 76.635 64.8525 76.6827 64.9001 C 76.7304 64.9477 76.7951 64.9744 76.8625 64.9745 L 93.1434 64.9745 C 93.2109 64.9744 93.2755 64.9477 93.3232 64.9001 C 93.3709 64.8525 93.3977 64.788 93.3978 64.7208 L 93.3978 62.691 C 93.3977 62.6237 93.3709 62.5592 93.3232 62.5116 C 93.2755 62.464 93.2109 62.4373 93.1434 62.4372 L 76.8625 62.4372 Z" stroke-linecap="round" />
</g>
		<g transform="matrix(1 0 0 1 -57.23 21.21)" clip-path="url(#CLIPPATH_7)"  >
<clipPath id="CLIPPATH_7" >
	<rect transform="matrix(1 0 0 1 57.23 -21.21)" id="clip0_1_3380" x="-85" y="-42.5" rx="0" ry="0" width="170" height="85" />
</clipPath>
<path style="stroke: none; stroke-width: 1; stroke-dasharray: none; stroke-linecap: butt; stroke-dashoffset: 0; stroke-linejoin: miter; stroke-miterlimit: 4; fill: rgb(230,230,230); fill-rule: nonzero; opacity: 1;" vector-effect="non-scaling-stroke"  transform=" translate(-27.77, -63.71)" d="M 19.6251 62.4372 C 19.5577 62.4373 19.493 62.464 19.4453 62.5116 C 19.3976 62.5592 19.3708 62.6237 19.3708 62.691 L 19.3708 64.7208 C 19.3708 64.788 19.3976 64.8525 19.4453 64.9001 C 19.493 64.9477 19.5577 64.9744 19.6251 64.9745 L 35.906 64.9745 C 35.9735 64.9744 36.0381 64.9477 36.0858 64.9001 C 36.1335 64.8525 36.1603 64.788 36.1604 64.7208 L 36.1604 62.691 C 36.1603 62.6237 36.1335 62.5592 36.0858 62.5116 C 36.0381 62.464 35.9735 62.4373 35.906 62.4372 L 19.6251 62.4372 Z" stroke-linecap="round" />
</g>
		<g transform="matrix(1 0 0 1 -5.84 -10.01)" clip-path="url(#CLIPPATH_8)"  >
<clipPath id="CLIPPATH_8" >
	<rect transform="matrix(1 0 0 1 5.84 10.01)" id="clip0_1_3380" x="-85" y="-42.5" rx="0" ry="0" width="170" height="85" />
</clipPath>
<path style="stroke: none; stroke-width: 1; stroke-dasharray: none; stroke-linecap: butt; stroke-dashoffset: 0; stroke-linejoin: miter; stroke-miterlimit: 4; fill: rgb(63,61,86); fill-rule: nonzero; opacity: 1;" vector-effect="non-scaling-stroke"  transform=" translate(-79.16, -32.49)" d="M 79.1562 35.208 C 80.6631 35.208 81.8847 33.9896 81.8847 32.4866 C 81.8847 30.9836 80.6631 29.7652 79.1562 29.7652 C 77.6492 29.7652 76.4276 30.9836 76.4276 32.4866 C 76.4276 33.9896 77.6492 35.208 79.1562 35.208 Z" stroke-linecap="round" />
</g>
		<g transform="matrix(1 0 0 1 -5.84 -10.01)" clip-path="url(#CLIPPATH_9)"  >
<clipPath id="CLIPPATH_9" >
	<rect transform="matrix(1 0 0 1 5.84 10.01)" id="clip0_1_3380" x="-85" y="-42.5" rx="0" ry="0" width="170" height="85" />
</clipPath>
<path style="stroke: none; stroke-width: 1; stroke-dasharray: none; stroke-linecap: butt; stroke-dashoffset: 0; stroke-linejoin: miter; stroke-miterlimit: 4; fill: rgb(33,184,249); fill-rule: nonzero; opacity: 1;" vector-effect="non-scaling-stroke"  transform=" translate(-79.16, -32.49)" d="M 79.1562 34.2362 C 80.1249 34.2362 80.9102 33.4529 80.9102 32.4867 C 80.9102 31.5205 80.1249 30.7372 79.1562 30.7372 C 78.1875 30.7372 77.4021 31.5205 77.4021 32.4867 C 77.4021 33.4529 78.1875 34.2362 79.1562 34.2362 Z" stroke-linecap="round" />
</g>
		<g transform="matrix(1 0 0 1 5.85 -10.01)" clip-path="url(#CLIPPATH_10)"  >
<clipPath id="CLIPPATH_10" >
	<rect transform="matrix(1 0 0 1 -5.85 10.01)" id="clip0_1_3380" x="-85" y="-42.5" rx="0" ry="0" width="170" height="85" />
</clipPath>
<path style="stroke: none; stroke-width: 1; stroke-dasharray: none; stroke-linecap: butt; stroke-dashoffset: 0; stroke-linejoin: miter; stroke-miterlimit: 4; fill: rgb(63,61,86); fill-rule: nonzero; opacity: 1;" vector-effect="non-scaling-stroke"  transform=" translate(-90.85, -32.49)" d="M 90.8498 35.208 C 92.3567 35.208 93.5783 33.9896 93.5783 32.4866 C 93.5783 30.9836 92.3567 29.7652 90.8498 29.7652 C 89.3429 29.7652 88.1213 30.9836 88.1213 32.4866 C 88.1213 33.9896 89.3429 35.208 90.8498 35.208 Z" stroke-linecap="round" />
</g>
		<g transform="matrix(1 0 0 1 5.85 -10.01)" clip-path="url(#CLIPPATH_11)"  >
<clipPath id="CLIPPATH_11" >
	<rect transform="matrix(1 0 0 1 -5.85 10.01)" id="clip0_1_3380" x="-85" y="-42.5" rx="0" ry="0" width="170" height="85" />
</clipPath>
<path style="stroke: none; stroke-width: 1; stroke-dasharray: none; stroke-linecap: butt; stroke-dashoffset: 0; stroke-linejoin: miter; stroke-miterlimit: 4; fill: rgb(33,184,249); fill-rule: nonzero; opacity: 1;" vector-effect="non-scaling-stroke"  transform=" translate(-90.85, -32.49)" d="M 90.8498 34.2362 C 91.8186 34.2362 92.6039 33.4529 92.6039 32.4867 C 92.6039 31.5205 91.8186 30.7372 90.8498 30.7372 C 89.8811 30.7372 89.0958 31.5205 89.0958 32.4867 C 89.0958 33.4529 89.8811 34.2362 90.8498 34.2362 Z" stroke-linecap="round" />
</g>
		<g transform="matrix(1 0 0 1 0 -2.04)" clip-path="url(#CLIPPATH_12)"  >
<clipPath id="CLIPPATH_12" >
	<rect transform="matrix(1 0 0 1 0 2.04)" id="clip0_1_3380" x="-85" y="-42.5" rx="0" ry="0" width="170" height="85" />
</clipPath>
<path style="stroke: none; stroke-width: 1; stroke-dasharray: none; stroke-linecap: butt; stroke-dashoffset: 0; stroke-linejoin: miter; stroke-miterlimit: 4; fill: rgb(63,61,86); fill-rule: nonzero; opacity: 1;" vector-effect="non-scaling-stroke"  transform=" translate(-85, -40.46)" d="M 78.8493 32.6811 C 77.5396 32.6768 76.2756 33.1611 75.3056 34.0388 C 74.3357 34.9164 73.7297 36.1241 73.6068 37.4246 L 73.0613 43.0017 C 72.9965 43.6637 73.0714 44.3318 73.281 44.9632 C 73.4906 45.5946 73.8304 46.1752 74.2784 46.6678 C 74.7265 47.1604 75.2729 47.5541 75.8826 47.8234 C 76.4923 48.0928 77.1517 48.232 77.8186 48.232 L 92.1875 48.232 C 92.8543 48.232 93.5137 48.0928 94.1234 47.8234 C 94.7331 47.554 95.2795 47.1604 95.7276 46.6678 C 96.1756 46.1752 96.5154 45.5946 96.725 44.9632 C 96.9346 44.3318 97.0095 43.6637 96.9447 43.0017 L 96.3992 37.4246 C 96.2763 36.1241 95.6703 34.9164 94.7003 34.0388 C 93.7303 33.1611 92.4664 32.6768 91.1567 32.6811 L 78.8493 32.6811 Z" stroke-linecap="round" />
</g>
		<g transform="matrix(1 0 0 1 0.26 1.84)" clip-path="url(#CLIPPATH_13)"  >
<clipPath id="CLIPPATH_13" >
	<rect transform="matrix(1 0 0 1 -0.26 -1.84)" id="clip0_1_3380" x="-85" y="-42.5" rx="0" ry="0" width="170" height="85" />
</clipPath>
<path style="stroke: none; stroke-width: 1; stroke-dasharray: none; stroke-linecap: butt; stroke-dashoffset: 0; stroke-linejoin: miter; stroke-miterlimit: 4; fill: rgb(255,255,255); fill-rule: nonzero; opacity: 1;" vector-effect="non-scaling-stroke"  transform=" translate(-85.26, -44.34)" d="M 81.1744 43.3723 C 81.2237 43.9033 81.4699 44.3969 81.8648 44.7564 C 82.2597 45.1159 82.7748 45.3155 83.3095 45.3162 L 87.2075 45.3162 C 87.7422 45.3155 88.2573 45.1159 88.6522 44.7564 C 89.047 44.3969 89.2932 43.9033 89.3424 43.3723 L 81.1744 43.3723 Z" stroke-linecap="round" />
</g>
		<g transform="matrix(1 0 0 1 -2.97 -3.73)" clip-path="url(#CLIPPATH_14)"  >
<clipPath id="CLIPPATH_14" >
	<rect transform="matrix(1 0 0 1 2.97 3.73)" id="clip0_1_3380" x="-85" y="-42.5" rx="0" ry="0" width="170" height="85" />
</clipPath>
<path style="stroke: none; stroke-width: 1; stroke-dasharray: none; stroke-linecap: butt; stroke-dashoffset: 0; stroke-linejoin: miter; stroke-miterlimit: 4; fill: rgb(255,255,255); fill-rule: nonzero; opacity: 1;" vector-effect="non-scaling-stroke"  transform=" translate(-82.03, -38.77)" d="M 80.5182 41.0561 C 80.9207 40.5171 81.5211 40.1592 82.1878 40.0609 C 82.8544 39.9626 83.5329 40.132 84.0746 40.5318 C 84.3757 40.1287 84.55 39.6456 84.5756 39.1437 C 84.6012 38.6417 84.4768 38.1435 84.2183 37.712 C 83.9598 37.2806 83.5787 36.9354 83.1234 36.7201 C 82.668 36.5048 82.1589 36.4291 81.6604 36.5026 C 81.1619 36.5761 80.6965 36.7955 80.323 37.1329 C 79.9496 37.4704 79.685 37.9108 79.5627 38.3984 C 79.4404 38.886 79.4659 39.3988 79.636 39.8719 C 79.8061 40.345 80.1131 40.7572 80.5182 41.0561 Z" stroke-linecap="round" />
</g>
		<g transform="matrix(1 0 0 1 0.06 -0.68)" clip-path="url(#CLIPPATH_15)"  >
<clipPath id="CLIPPATH_15" >
	<rect transform="matrix(1 0 0 1 -0.06 0.68)" id="clip0_1_3380" x="-85" y="-42.5" rx="0" ry="0" width="170" height="85" />
</clipPath>
<path style="stroke: none; stroke-width: 1; stroke-dasharray: none; stroke-linecap: butt; stroke-dashoffset: 0; stroke-linejoin: miter; stroke-miterlimit: 4; fill: rgb(33,184,249); fill-rule: nonzero; opacity: 1;" vector-effect="non-scaling-stroke"  transform=" translate(-85.06, -41.82)" d="M 85.0635 42.7891 C 85.6017 42.7891 86.038 42.3539 86.038 41.8172 C 86.038 41.2804 85.6017 40.8452 85.0635 40.8452 C 84.5254 40.8452 84.0891 41.2804 84.0891 41.8172 C 84.0891 42.3539 84.5254 42.7891 85.0635 42.7891 Z" stroke-linecap="round" />
</g>
		<g transform="matrix(1 0 0 1 -2.8 -3.98)" clip-path="url(#CLIPPATH_16)"  >
<clipPath id="CLIPPATH_16" >
	<rect transform="matrix(1 0 0 1 2.8 3.98)" id="clip0_1_3380" x="-85" y="-42.5" rx="0" ry="0" width="170" height="85" />
</clipPath>
<path style="stroke: none; stroke-width: 1; stroke-dasharray: none; stroke-linecap: butt; stroke-dashoffset: 0; stroke-linejoin: miter; stroke-miterlimit: 4; fill: rgb(63,61,86); fill-rule: nonzero; opacity: 1;" vector-effect="non-scaling-stroke"  transform=" translate(-82.2, -38.52)" d="M 82.2027 39.4548 C 82.7208 39.4548 83.1408 39.0359 83.1408 38.5192 C 83.1408 38.0025 82.7208 37.5836 82.2027 37.5836 C 81.6847 37.5836 81.2647 38.0025 81.2647 38.5192 C 81.2647 39.0359 81.6847 39.4548 82.2027 39.4548 Z" stroke-linecap="round" />
</g>
		<g transform="matrix(1 0 0 1 2.97 -4.22)" clip-path="url(#CLIPPATH_17)"  >
<clipPath id="CLIPPATH_17" >
	<rect transform="matrix(1 0 0 1 -2.97 4.22)" id="clip0_1_3380" x="-85" y="-42.5" rx="0" ry="0" width="170" height="85" />
</clipPath>
<path style="stroke: none; stroke-width: 1; stroke-dasharray: none; stroke-linecap: butt; stroke-dashoffset: 0; stroke-linejoin: miter; stroke-miterlimit: 4; fill: rgb(255,255,255); fill-rule: nonzero; opacity: 1;" vector-effect="non-scaling-stroke"  transform=" translate(-87.97, -38.28)" d="M 86.4589 40.5662 C 86.8615 40.0272 87.4619 39.6693 88.1285 39.571 C 88.7952 39.4727 89.4737 39.642 90.0154 40.0419 C 90.3164 39.6388 90.4907 39.1557 90.5163 38.6537 C 90.5419 38.1518 90.4175 37.6535 90.159 37.2221 C 89.9005 36.7907 89.5195 36.4454 89.0641 36.2301 C 88.6088 36.0148 88.0996 35.9392 87.6011 36.0127 C 87.1026 36.0861 86.6372 36.3055 86.2638 36.643 C 85.8904 36.9805 85.6258 37.4209 85.5035 37.9085 C 85.3812 38.3961 85.4067 38.9089 85.5768 39.382 C 85.7468 39.8551 86.0539 40.2672 86.4589 40.5662 Z" stroke-linecap="round" />
</g>
		<g transform="matrix(1 0 0 1 3.28 -4.69)" clip-path="url(#CLIPPATH_18)"  >
<clipPath id="CLIPPATH_18" >
	<rect transform="matrix(1 0 0 1 -3.28 4.69)" id="clip0_1_3380" x="-85" y="-42.5" rx="0" ry="0" width="170" height="85" />
</clipPath>
<path style="stroke: none; stroke-width: 1; stroke-dasharray: none; stroke-linecap: butt; stroke-dashoffset: 0; stroke-linejoin: miter; stroke-miterlimit: 4; fill: rgb(63,61,86); fill-rule: nonzero; opacity: 1;" vector-effect="non-scaling-stroke"  transform=" translate(-88.28, -37.81)" d="M 88.2776 38.7417 C 88.7956 38.7417 89.2156 38.3228 89.2156 37.8061 C 89.2156 37.2894 88.7956 36.8706 88.2776 36.8706 C 87.7595 36.8706 87.3396 37.2894 87.3396 37.8061 C 87.3396 38.3228 87.7595 38.7417 88.2776 38.7417 Z" stroke-linecap="round" />
</g>
		<g transform="matrix(1 0 0 1 -63.08 -9.72)" clip-path="url(#CLIPPATH_19)"  >
<clipPath id="CLIPPATH_19" >
	<rect transform="matrix(1 0 0 1 63.08 9.72)" id="clip0_1_3380" x="-85" y="-42.5" rx="0" ry="0" width="170" height="85" />
</clipPath>
<path style="stroke: none; stroke-width: 1; stroke-dasharray: none; stroke-linecap: butt; stroke-dashoffset: 0; stroke-linejoin: miter; stroke-miterlimit: 4; fill: rgb(230,230,230); fill-rule: nonzero; opacity: 1;" vector-effect="non-scaling-stroke"  transform=" translate(-21.92, -32.78)" d="M 24.6473 35.3052 C 24.6477 35.6628 24.5773 36.017 24.4404 36.3475 C 24.3034 36.678 24.1025 36.9783 23.8491 37.2313 C 23.5957 37.4842 23.2948 37.6849 22.9636 37.8219 C 22.6323 37.9588 22.2773 38.0293 21.9188 38.0293 C 21.5603 38.0293 21.2052 37.9588 20.874 37.8219 C 20.5428 37.6849 20.2419 37.4842 19.9885 37.2313 C 19.7351 36.9783 19.5342 36.678 19.3972 36.3475 C 19.2602 36.017 19.1899 35.6628 19.1903 35.3052 C 19.1903 33.8022 20.4119 27.5298 21.9188 27.5298 C 23.4257 27.5298 24.6473 33.8022 24.6473 35.3052 Z" stroke-linecap="round" />
</g>
		<g transform="matrix(1 0 0 1 -63.08 -9.72)" clip-path="url(#CLIPPATH_20)"  >
<clipPath id="CLIPPATH_20" >
	<rect transform="matrix(1 0 0 1 63.08 9.72)" id="clip0_1_3380" x="-85" y="-42.5" rx="0" ry="0" width="170" height="85" />
</clipPath>
<path style="stroke: none; stroke-width: 1; stroke-dasharray: none; stroke-linecap: butt; stroke-dashoffset: 0; stroke-linejoin: miter; stroke-miterlimit: 4; fill: rgb(255,255,255); fill-rule: nonzero; opacity: 1;" vector-effect="non-scaling-stroke"  transform=" translate(-21.92, -32.78)" d="M 23.6729 35.3053 C 23.6729 35.7693 23.4881 36.2143 23.1591 36.5424 C 22.8302 36.8705 22.384 37.0548 21.9188 37.0548 C 21.4536 37.0548 21.0075 36.8705 20.6785 36.5424 C 20.3496 36.2143 20.1648 35.7693 20.1648 35.3053 C 20.1648 34.3391 20.9501 28.5018 21.9188 28.5018 C 22.8876 28.5018 23.6729 34.3391 23.6729 35.3053 Z" stroke-linecap="round" />
</g>
		<g transform="matrix(1 0 0 1 -51.39 -10.01)" clip-path="url(#CLIPPATH_21)"  >
<clipPath id="CLIPPATH_21" >
	<rect transform="matrix(1 0 0 1 51.39 10.01)" id="clip0_1_3380" x="-85" y="-42.5" rx="0" ry="0" width="170" height="85" />
</clipPath>
<path style="stroke: none; stroke-width: 1; stroke-dasharray: none; stroke-linecap: butt; stroke-dashoffset: 0; stroke-linejoin: miter; stroke-miterlimit: 4; fill: rgb(230,230,230); fill-rule: nonzero; opacity: 1;" vector-effect="non-scaling-stroke"  transform=" translate(-33.61, -32.49)" d="M 30.8839 35.3053 C 30.8839 36.027 31.1714 36.7192 31.6831 37.2296 C 32.1947 37.74 32.8888 38.0267 33.6124 38.0267 C 34.3361 38.0267 35.0301 37.74 35.5418 37.2296 C 36.0535 36.7192 36.3409 36.027 36.3409 35.3053 C 36.3409 33.8023 35.1193 26.9467 33.6124 26.9467 C 32.1055 26.9467 30.8839 33.8023 30.8839 35.3053 Z" stroke-linecap="round" />
</g>
		<g transform="matrix(1 0 0 1 -51.39 -10.01)" clip-path="url(#CLIPPATH_22)"  >
<clipPath id="CLIPPATH_22" >
	<rect transform="matrix(1 0 0 1 51.39 10.01)" id="clip0_1_3380" x="-85" y="-42.5" rx="0" ry="0" width="170" height="85" />
</clipPath>
<path style="stroke: none; stroke-width: 1; stroke-dasharray: none; stroke-linecap: butt; stroke-dashoffset: 0; stroke-linejoin: miter; stroke-miterlimit: 4; fill: rgb(255,255,255); fill-rule: nonzero; opacity: 1;" vector-effect="non-scaling-stroke"  transform=" translate(-33.61, -32.49)" d="M 31.8584 35.3053 C 31.8584 35.7693 32.0432 36.2143 32.3722 36.5424 C 32.7011 36.8705 33.1472 37.0548 33.6125 37.0548 C 34.0777 37.0548 34.5238 36.8705 34.8528 36.5424 C 35.1817 36.2143 35.3665 35.7693 35.3665 35.3053 C 35.3665 34.3391 34.5812 27.9186 33.6125 27.9186 C 32.6437 27.9186 31.8584 34.3391 31.8584 35.3053 Z" stroke-linecap="round" />
</g>
		<g transform="matrix(1 0 0 1 -57.23 0.78)" clip-path="url(#CLIPPATH_23)"  >
<clipPath id="CLIPPATH_23" >
	<rect transform="matrix(1 0 0 1 57.23 -0.78)" id="clip0_1_3380" x="-85" y="-42.5" rx="0" ry="0" width="170" height="85" />
</clipPath>
<path style="stroke: none; stroke-width: 1; stroke-dasharray: none; stroke-linecap: butt; stroke-dashoffset: 0; stroke-linejoin: miter; stroke-miterlimit: 4; fill: rgb(230,230,230); fill-rule: nonzero; opacity: 1;" vector-effect="non-scaling-stroke"  transform=" translate(-27.77, -43.28)" d="M 21.6119 35.4997 C 20.3022 35.4954 19.0383 35.9797 18.0683 36.8573 C 17.0983 37.735 16.4923 38.9427 16.3694 40.2432 L 15.8239 45.8203 C 15.7591 46.4823 15.834 47.1504 16.0436 47.7818 C 16.2532 48.4132 16.593 48.9938 17.041 49.4864 C 17.4891 49.979 18.0355 50.3726 18.6452 50.642 C 19.2549 50.9114 19.9143 51.0506 20.5812 51.0506 L 34.9501 51.0506 C 35.6169 51.0506 36.2764 50.9114 36.8861 50.642 C 37.4958 50.3726 38.0422 49.979 38.4902 49.4864 C 38.9383 48.9938 39.278 48.4132 39.4876 47.7818 C 39.6973 47.1504 39.7721 46.4823 39.7074 45.8203 L 39.1618 40.2432 C 39.0389 38.9427 38.433 37.735 37.463 36.8573 C 36.493 35.9797 35.229 35.4954 33.9194 35.4997 L 21.6119 35.4997 Z" stroke-linecap="round" />
</g>
		<g transform="matrix(1 0 0 1 -56.94 4.76)" clip-path="url(#CLIPPATH_24)"  >
<clipPath id="CLIPPATH_24" >
	<rect transform="matrix(1 0 0 1 56.94 -4.76)" id="clip0_1_3380" x="-85" y="-42.5" rx="0" ry="0" width="170" height="85" />
</clipPath>
<path style="stroke: none; stroke-width: 1; stroke-dasharray: none; stroke-linecap: butt; stroke-dashoffset: 0; stroke-linejoin: miter; stroke-miterlimit: 4; fill: rgb(255,255,255); fill-rule: nonzero; opacity: 1;" vector-effect="non-scaling-stroke"  transform=" translate(-28.06, -47.26)" d="M 28.0579 48.0375 C 28.919 48.0375 29.617 47.6894 29.617 47.2599 C 29.617 46.8305 28.919 46.4824 28.0579 46.4824 C 27.1968 46.4824 26.4987 46.8305 26.4987 47.2599 C 26.4987 47.6894 27.1968 48.0375 28.0579 48.0375 Z" stroke-linecap="round" />
</g>
		<g transform="matrix(1 0 0 1 -60.2 -0.92)" clip-path="url(#CLIPPATH_25)"  >
<clipPath id="CLIPPATH_25" >
	<rect transform="matrix(1 0 0 1 60.2 0.92)" id="clip0_1_3380" x="-85" y="-42.5" rx="0" ry="0" width="170" height="85" />
</clipPath>
<path style="stroke: none; stroke-width: 1; stroke-dasharray: none; stroke-linecap: butt; stroke-dashoffset: 0; stroke-linejoin: miter; stroke-miterlimit: 4; fill: rgb(255,255,255); fill-rule: nonzero; opacity: 1;" vector-effect="non-scaling-stroke"  transform=" translate(-24.8, -41.58)" d="M 23.2808 43.8751 C 23.6834 43.336 24.2837 42.9781 24.9504 42.8798 C 25.617 42.7816 26.2956 42.9509 26.8372 43.3507 C 27.1383 42.9476 27.3126 42.4646 27.3382 41.9626 C 27.3638 41.4606 27.2394 40.9624 26.9809 40.531 C 26.7224 40.0995 26.3414 39.7543 25.886 39.539 C 25.4307 39.3237 24.9215 39.248 24.423 39.3215 C 23.9245 39.395 23.4591 39.6144 23.0857 39.9519 C 22.7123 40.2894 22.4476 40.7298 22.3253 41.2174 C 22.203 41.7049 22.2286 42.2178 22.3986 42.6909 C 22.5687 43.164 22.8757 43.5761 23.2808 43.8751 Z" stroke-linecap="round" />
</g>
		<g transform="matrix(1 0 0 1 -57.17 2.14)" clip-path="url(#CLIPPATH_26)"  >
<clipPath id="CLIPPATH_26" >
	<rect transform="matrix(1 0 0 1 57.17 -2.14)" id="clip0_1_3380" x="-85" y="-42.5" rx="0" ry="0" width="170" height="85" />
</clipPath>
<path style="stroke: none; stroke-width: 1; stroke-dasharray: none; stroke-linecap: butt; stroke-dashoffset: 0; stroke-linejoin: miter; stroke-miterlimit: 4; fill: rgb(255,255,255); fill-rule: nonzero; opacity: 1;" vector-effect="non-scaling-stroke"  transform=" translate(-27.83, -44.64)" d="M 27.8262 45.6077 C 28.3643 45.6077 28.8006 45.1725 28.8006 44.6357 C 28.8006 44.0989 28.3643 43.6638 27.8262 43.6638 C 27.288 43.6638 26.8517 44.0989 26.8517 44.6357 C 26.8517 45.1725 27.288 45.6077 27.8262 45.6077 Z" stroke-linecap="round" />
</g>
		<g transform="matrix(1 0 0 1 -60.03 0.39)" clip-path="url(#CLIPPATH_27)"  >
<clipPath id="CLIPPATH_27" >
	<rect transform="matrix(1 0 0 1 60.03 -0.39)" id="clip0_1_3380" x="-85" y="-42.5" rx="0" ry="0" width="170" height="85" />
</clipPath>
<path style="stroke: none; stroke-width: 1; stroke-dasharray: none; stroke-linecap: butt; stroke-dashoffset: 0; stroke-linejoin: miter; stroke-miterlimit: 4; fill: rgb(230,230,230); fill-rule: nonzero; opacity: 1;" vector-effect="non-scaling-stroke"  transform=" translate(-24.97, -42.89)" d="M 24.9654 43.8282 C 25.4834 43.8282 25.9034 43.4093 25.9034 42.8926 C 25.9034 42.3759 25.4834 41.957 24.9654 41.957 C 24.4473 41.957 24.0274 42.3759 24.0274 42.8926 C 24.0274 43.4093 24.4473 43.8282 24.9654 43.8282 Z" stroke-linecap="round" />
</g>
		<g transform="matrix(1 0 0 1 -62.11 2.08)" clip-path="url(#CLIPPATH_28)"  >
<clipPath id="CLIPPATH_28" >
	<rect transform="matrix(1 0 0 1 62.11 -2.08)" id="clip0_1_3380" x="-85" y="-42.5" rx="0" ry="0" width="170" height="85" />
</clipPath>
<path style="stroke: none; stroke-width: 1; stroke-dasharray: none; stroke-linecap: butt; stroke-dashoffset: 0; stroke-linejoin: miter; stroke-miterlimit: 4; fill: rgb(255,255,255); fill-rule: nonzero; opacity: 1;" vector-effect="non-scaling-stroke"  transform=" translate(-22.89, -44.58)" d="M 26.1567 44.8409 C 25.5512 44.5266 24.9386 44.7354 24.3554 44.9916 C 23.72 45.3031 23.0278 45.4826 22.3208 45.519 C 21.7064 45.5451 21.1042 45.3432 20.6303 44.9523 C 20.4133 44.7665 20.2484 44.5277 20.1517 44.2592 C 20.0551 43.9907 20.0301 43.7018 20.0791 43.4208 C 20.1569 43.0547 19.5934 42.8982 19.5153 43.2657 C 19.2236 44.6381 20.3128 45.7953 21.6109 46.0374 C 22.3286 46.1553 23.0646 46.0914 23.7511 45.8515 C 24.1189 45.7319 24.4652 45.5669 24.8222 45.4206 C 25.1479 45.2872 25.5285 45.1715 25.8616 45.3445 C 26.195 45.5175 26.4909 45.0144 26.1567 44.8409 Z" stroke-linecap="round" />
</g>
		<g transform="matrix(1 0 0 1 -54.26 -1.41)" clip-path="url(#CLIPPATH_29)"  >
<clipPath id="CLIPPATH_29" >
	<rect transform="matrix(1 0 0 1 54.26 1.41)" id="clip0_1_3380" x="-85" y="-42.5" rx="0" ry="0" width="170" height="85" />
</clipPath>
<path style="stroke: none; stroke-width: 1; stroke-dasharray: none; stroke-linecap: butt; stroke-dashoffset: 0; stroke-linejoin: miter; stroke-miterlimit: 4; fill: rgb(255,255,255); fill-rule: nonzero; opacity: 1;" vector-effect="non-scaling-stroke"  transform=" translate(-30.74, -41.09)" d="M 29.2216 43.3848 C 29.6241 42.8457 30.2245 42.4878 30.8912 42.3896 C 31.5578 42.2913 32.2363 42.4606 32.778 42.8604 C 33.079 42.4574 33.2534 41.9743 33.2789 41.4723 C 33.3045 40.9703 33.1802 40.4721 32.9217 40.0407 C 32.6632 39.6092 32.2821 39.264 31.8268 39.0487 C 31.3714 38.8334 30.8623 38.7577 30.3638 38.8312 C 29.8653 38.9047 29.3999 39.1241 29.0264 39.4616 C 28.653 39.7991 28.3884 40.2395 28.2661 40.7271 C 28.1438 41.2146 28.1693 41.7275 28.3394 42.2006 C 28.5095 42.6737 28.8165 43.0858 29.2216 43.3848 Z" stroke-linecap="round" />
</g>
		<g transform="matrix(1 0 0 1 -53.76 -0.13)" clip-path="url(#CLIPPATH_30)"  >
<clipPath id="CLIPPATH_30" >
	<rect transform="matrix(1 0 0 1 53.76 0.13)" id="clip0_1_3380" x="-85" y="-42.5" rx="0" ry="0" width="170" height="85" />
</clipPath>
<path style="stroke: none; stroke-width: 1; stroke-dasharray: none; stroke-linecap: butt; stroke-dashoffset: 0; stroke-linejoin: miter; stroke-miterlimit: 4; fill: rgb(230,230,230); fill-rule: nonzero; opacity: 1;" vector-effect="non-scaling-stroke"  transform=" translate(-31.24, -42.37)" d="M 31.2351 43.3099 C 31.7532 43.3099 32.1731 42.8911 32.1731 42.3744 C 32.1731 41.8577 31.7532 41.4388 31.2351 41.4388 C 30.7171 41.4388 30.2971 41.8577 30.2971 42.3744 C 30.2971 42.8911 30.7171 43.3099 31.2351 43.3099 Z" stroke-linecap="round" />
</g>
		<g transform="matrix(1 0 0 1 -52.16 2.08)" clip-path="url(#CLIPPATH_31)"  >
<clipPath id="CLIPPATH_31" >
	<rect transform="matrix(1 0 0 1 52.16 -2.08)" id="clip0_1_3380" x="-85" y="-42.5" rx="0" ry="0" width="170" height="85" />
</clipPath>
<path style="stroke: none; stroke-width: 1; stroke-dasharray: none; stroke-linecap: butt; stroke-dashoffset: 0; stroke-linejoin: miter; stroke-miterlimit: 4; fill: rgb(255,255,255); fill-rule: nonzero; opacity: 1;" vector-effect="non-scaling-stroke"  transform=" translate(-32.84, -44.58)" d="M 29.8645 45.3444 C 30.1978 45.1714 30.5777 45.287 30.9039 45.4206 C 31.2609 45.5667 31.6071 45.7323 31.9749 45.8515 C 32.6615 46.0909 33.3974 46.1548 34.1152 46.0373 C 35.4132 45.7952 36.5024 44.638 36.2107 43.2657 C 36.1328 42.8987 35.569 43.054 35.647 43.4207 C 35.6953 43.6956 35.6726 43.9783 35.5809 44.2419 C 35.4892 44.5056 35.3316 44.7417 35.123 44.9277 C 34.6463 45.3348 34.0323 45.5461 33.4053 45.5189 C 32.7126 45.4859 32.034 45.3125 31.4107 45.0093 C 30.8153 44.7463 30.1907 44.5183 29.5694 44.8409 C 29.2355 45.0142 29.5308 45.5176 29.8645 45.3444 L 29.8645 45.3444 Z" stroke-linecap="round" />
</g>
		<g transform="matrix(1 0 0 1 47.4 -7.66)" clip-path="url(#CLIPPATH_32)"  >
<clipPath id="CLIPPATH_32" >
	<rect transform="matrix(1 0 0 1 -47.4 7.66)" id="clip0_1_3380" x="-85" y="-42.5" rx="0" ry="0" width="170" height="85" />
</clipPath>
<path style="stroke: none; stroke-width: 1; stroke-dasharray: none; stroke-linecap: butt; stroke-dashoffset: 0; stroke-linejoin: miter; stroke-miterlimit: 4; fill: rgb(63,61,86); fill-rule: nonzero; opacity: 1;" vector-effect="non-scaling-stroke"  transform=" translate(-132.4, -34.84)" d="M 132.398 40.3327 C 135.438 40.3327 137.902 37.8749 137.902 34.8429 C 137.902 31.811 135.438 29.3531 132.398 29.3531 C 129.358 29.3531 126.894 31.811 126.894 34.8429 C 126.894 37.8749 129.358 40.3327 132.398 40.3327 Z" stroke-linecap="round" />
</g>
		<g transform="matrix(1 0 0 1 47.4 -7.66)" clip-path="url(#CLIPPATH_33)"  >
<clipPath id="CLIPPATH_33" >
	<rect transform="matrix(1 0 0 1 -47.4 7.66)" id="clip0_1_3380" x="-85" y="-42.5" rx="0" ry="0" width="170" height="85" />
</clipPath>
<path style="stroke: none; stroke-width: 1; stroke-dasharray: none; stroke-linecap: butt; stroke-dashoffset: 0; stroke-linejoin: miter; stroke-miterlimit: 4; fill: rgb(33,184,249); fill-rule: nonzero; opacity: 1;" vector-effect="non-scaling-stroke"  transform=" translate(-132.4, -34.84)" d="M 132.398 38.372 C 134.352 38.372 135.937 36.7919 135.937 34.8428 C 135.937 32.8937 134.352 31.3137 132.398 31.3137 C 130.444 31.3137 128.86 32.8937 128.86 34.8428 C 128.86 36.7919 130.444 38.372 132.398 38.372 Z" stroke-linecap="round" />
</g>
		<g transform="matrix(1 0 0 1 67.08 -7.66)" clip-path="url(#CLIPPATH_34)"  >
<clipPath id="CLIPPATH_34" >
	<rect transform="matrix(1 0 0 1 -67.08 7.66)" id="clip0_1_3380" x="-85" y="-42.5" rx="0" ry="0" width="170" height="85" />
</clipPath>
<path style="stroke: none; stroke-width: 1; stroke-dasharray: none; stroke-linecap: butt; stroke-dashoffset: 0; stroke-linejoin: miter; stroke-miterlimit: 4; fill: rgb(63,61,86); fill-rule: nonzero; opacity: 1;" vector-effect="non-scaling-stroke"  transform=" translate(-152.08, -34.84)" d="M 152.083 40.3327 C 155.122 40.3327 157.587 37.8749 157.587 34.8429 C 157.587 31.811 155.122 29.3531 152.083 29.3531 C 149.043 29.3531 146.578 31.811 146.578 34.8429 C 146.578 37.8749 149.043 40.3327 152.083 40.3327 Z" stroke-linecap="round" />
</g>
		<g transform="matrix(1 0 0 1 67.08 -7.66)" clip-path="url(#CLIPPATH_35)"  >
<clipPath id="CLIPPATH_35" >
	<rect transform="matrix(1 0 0 1 -67.08 7.66)" id="clip0_1_3380" x="-85" y="-42.5" rx="0" ry="0" width="170" height="85" />
</clipPath>
<path style="stroke: none; stroke-width: 1; stroke-dasharray: none; stroke-linecap: butt; stroke-dashoffset: 0; stroke-linejoin: miter; stroke-miterlimit: 4; fill: rgb(33,184,249); fill-rule: nonzero; opacity: 1;" vector-effect="non-scaling-stroke"  transform=" translate(-152.08, -34.84)" d="M 152.083 38.372 C 154.037 38.372 155.621 36.7919 155.621 34.8428 C 155.621 32.8937 154.037 31.3137 152.083 31.3137 C 150.128 31.3137 148.544 32.8937 148.544 34.8428 C 148.544 36.7919 150.128 38.372 152.083 38.372 Z" stroke-linecap="round" />
</g>
		<g transform="matrix(1 0 0 1 57.34 -1.63)" clip-path="url(#CLIPPATH_36)"  >
<clipPath id="CLIPPATH_36" >
	<rect transform="matrix(1 0 0 1 -57.34 1.63)" id="clip0_1_3380" x="-85" y="-42.5" rx="0" ry="0" width="170" height="85" />
</clipPath>
<path style="stroke: none; stroke-width: 1; stroke-dasharray: none; stroke-linecap: butt; stroke-dashoffset: 0; stroke-linejoin: miter; stroke-miterlimit: 4; fill: rgb(63,61,86); fill-rule: nonzero; opacity: 1;" vector-effect="non-scaling-stroke"  transform=" translate(-142.34, -40.87)" d="M 136.184 33.0934 C 136.099 33.0934 136.014 33.0954 135.93 33.0993 C 132.759 33.2478 130.566 36.3442 131.339 39.4157 L 131.451 39.8607 C 131.849 41.4413 132.119 43.0484 132.387 44.656 C 132.572 45.7702 133.147 46.7827 134.011 47.5131 C 134.875 48.2436 135.97 48.6444 137.102 48.6443 L 147.573 48.6443 C 148.748 48.6444 149.882 48.2127 150.758 47.4317 C 151.634 46.6507 152.191 45.5752 152.323 44.4106 C 152.507 42.957 152.788 41.5173 153.164 40.101 L 153.337 39.4157 C 154.11 36.3442 151.917 33.2478 148.746 33.0993 C 148.661 33.0954 148.577 33.0934 148.492 33.0934 L 136.184 33.0934 Z" stroke-linecap="round" />
</g>
		<g transform="matrix(1 0 0 1 57.59 2.26)" clip-path="url(#CLIPPATH_37)"  >
<clipPath id="CLIPPATH_37" >
	<rect transform="matrix(1 0 0 1 -57.59 -2.26)" id="clip0_1_3380" x="-85" y="-42.5" rx="0" ry="0" width="170" height="85" />
</clipPath>
<path style="stroke: none; stroke-width: 1; stroke-dasharray: none; stroke-linecap: butt; stroke-dashoffset: 0; stroke-linejoin: miter; stroke-miterlimit: 4; fill: rgb(255,255,255); fill-rule: nonzero; opacity: 1;" vector-effect="non-scaling-stroke"  transform=" translate(-142.59, -44.76)" d="M 140.255 43.5902 L 144.932 43.5902 C 144.932 44.2088 144.686 44.8021 144.247 45.2396 C 143.808 45.6771 143.214 45.9228 142.593 45.9228 C 141.973 45.9228 141.378 45.6771 140.94 45.2396 C 140.501 44.8021 140.255 44.2088 140.255 43.5902 Z" stroke-linecap="round" />
</g>
		<g transform="matrix(1 0 0 1 57.4 -0.12)" clip-path="url(#CLIPPATH_38)"  >
<clipPath id="CLIPPATH_38" >
	<rect transform="matrix(1 0 0 1 -57.4 0.12)" id="clip0_1_3380" x="-85" y="-42.5" rx="0" ry="0" width="170" height="85" />
</clipPath>
<path style="stroke: none; stroke-width: 1; stroke-dasharray: none; stroke-linecap: butt; stroke-dashoffset: 0; stroke-linejoin: miter; stroke-miterlimit: 4; fill: rgb(33,184,249); fill-rule: nonzero; opacity: 1;" vector-effect="non-scaling-stroke"  transform=" translate(-142.4, -42.38)" d="M 143.373 42.2297 C 143.373 42.3861 143.335 42.5403 143.262 42.679 C 143.19 42.8178 143.085 42.937 142.956 43.0265 C 142.828 43.1161 142.679 43.1734 142.524 43.1935 C 142.368 43.2136 142.21 43.196 142.063 43.1421 C 141.915 43.0882 141.783 42.9996 141.678 42.8839 C 141.572 42.7682 141.496 42.6288 141.456 42.4775 C 141.416 42.3262 141.413 42.1675 141.448 42.0149 C 141.483 41.8623 141.554 41.7203 141.655 41.601 C 141.834 41.391 142.04 42.0353 142.338 42.0353 C 142.646 42.0353 142.982 41.4006 143.16 41.6237 C 143.298 41.7957 143.373 42.0094 143.373 42.2297 Z" stroke-linecap="round" />
</g>
		<g transform="matrix(1 0 0 1 54.37 -3.32)" clip-path="url(#CLIPPATH_39)"  >
<clipPath id="CLIPPATH_39" >
	<rect transform="matrix(1 0 0 1 -54.37 3.32)" id="clip0_1_3380" x="-85" y="-42.5" rx="0" ry="0" width="170" height="85" />
</clipPath>
<path style="stroke: none; stroke-width: 1; stroke-dasharray: none; stroke-linecap: butt; stroke-dashoffset: 0; stroke-linejoin: miter; stroke-miterlimit: 4; fill: rgb(255,255,255); fill-rule: nonzero; opacity: 1;" vector-effect="non-scaling-stroke"  transform=" translate(-139.37, -39.18)" d="M 137.853 41.4688 C 138.256 40.9297 138.856 40.5718 139.523 40.4735 C 140.189 40.3752 140.868 40.5446 141.409 40.9444 C 141.71 40.5413 141.885 40.0582 141.91 39.5563 C 141.936 39.0543 141.812 38.5561 141.553 38.1247 C 141.295 37.6932 140.914 37.348 140.458 37.1327 C 140.003 36.9174 139.494 36.8417 138.995 36.9152 C 138.497 36.9887 138.031 37.2081 137.658 37.5456 C 137.284 37.8831 137.02 38.3235 136.898 38.8111 C 136.775 39.2986 136.801 39.8114 136.971 40.2846 C 137.141 40.7577 137.448 41.1698 137.853 41.4688 Z" stroke-linecap="round" />
</g>
		<g transform="matrix(1 0 0 1 53.56 -3.57)" clip-path="url(#CLIPPATH_40)"  >
<clipPath id="CLIPPATH_40" >
	<rect transform="matrix(1 0 0 1 -53.56 3.57)" id="clip0_1_3380" x="-85" y="-42.5" rx="0" ry="0" width="170" height="85" />
</clipPath>
<path style="stroke: none; stroke-width: 1; stroke-dasharray: none; stroke-linecap: butt; stroke-dashoffset: 0; stroke-linejoin: miter; stroke-miterlimit: 4; fill: rgb(63,61,86); fill-rule: nonzero; opacity: 1;" vector-effect="non-scaling-stroke"  transform=" translate(-138.56, -38.93)" d="M 138.563 39.867 C 139.081 39.867 139.501 39.4481 139.501 38.9314 C 139.501 38.4147 139.081 37.9959 138.563 37.9959 C 138.045 37.9959 137.625 38.4147 137.625 38.9314 C 137.625 39.4481 138.045 39.867 138.563 39.867 Z" stroke-linecap="round" />
</g>
		<g transform="matrix(1 0 0 1 60.31 -3.81)" clip-path="url(#CLIPPATH_41)"  >
<clipPath id="CLIPPATH_41" >
	<rect transform="matrix(1 0 0 1 -60.31 3.81)" id="clip0_1_3380" x="-85" y="-42.5" rx="0" ry="0" width="170" height="85" />
</clipPath>
<path style="stroke: none; stroke-width: 1; stroke-dasharray: none; stroke-linecap: butt; stroke-dashoffset: 0; stroke-linejoin: miter; stroke-miterlimit: 4; fill: rgb(255,255,255); fill-rule: nonzero; opacity: 1;" vector-effect="non-scaling-stroke"  transform=" translate(-145.31, -38.69)" d="M 143.794 40.9785 C 144.196 40.4395 144.797 40.0816 145.463 39.9833 C 146.13 39.885 146.809 40.0543 147.35 40.4542 C 147.651 40.0511 147.826 39.568 147.851 39.066 C 147.877 38.5641 147.752 38.0658 147.494 37.6344 C 147.235 37.203 146.854 36.8577 146.399 36.6424 C 145.944 36.4271 145.435 36.3514 144.936 36.4249 C 144.438 36.4984 143.972 36.7178 143.599 37.0553 C 143.225 37.3928 142.961 37.8332 142.838 38.3208 C 142.716 38.8084 142.742 39.3212 142.912 39.7943 C 143.082 40.2674 143.389 40.6795 143.794 40.9785 Z" stroke-linecap="round" />
</g>
		<g transform="matrix(1 0 0 1 59.64 -3.89)" clip-path="url(#CLIPPATH_42)"  >
<clipPath id="CLIPPATH_42" >
	<rect transform="matrix(1 0 0 1 -59.64 3.89)" id="clip0_1_3380" x="-85" y="-42.5" rx="0" ry="0" width="170" height="85" />
</clipPath>
<path style="stroke: none; stroke-width: 1; stroke-dasharray: none; stroke-linecap: butt; stroke-dashoffset: 0; stroke-linejoin: miter; stroke-miterlimit: 4; fill: rgb(63,61,86); fill-rule: nonzero; opacity: 1;" vector-effect="non-scaling-stroke"  transform=" translate(-144.64, -38.61)" d="M 144.638 39.5428 C 145.156 39.5428 145.576 39.1239 145.576 38.6072 C 145.576 38.0905 145.156 37.6717 144.638 37.6717 C 144.12 37.6717 143.7 38.0905 143.7 38.6072 C 143.7 39.1239 144.12 39.5428 144.638 39.5428 Z" stroke-linecap="round" />
</g>
		<g transform="matrix(1 0 0 1 56.66 -10.38)" clip-path="url(#CLIPPATH_43)"  >
<clipPath id="CLIPPATH_43" >
	<rect transform="matrix(1 0 0 1 -56.66 10.38)" id="clip0_1_3380" x="-85" y="-42.5" rx="0" ry="0" width="170" height="85" />
</clipPath>
<path style="stroke: none; stroke-width: 1; stroke-dasharray: none; stroke-linecap: butt; stroke-dashoffset: 0; stroke-linejoin: miter; stroke-miterlimit: 4; fill: rgb(33,184,249); fill-rule: nonzero; opacity: 1;" vector-effect="non-scaling-stroke"  transform=" translate(-141.66, -32.12)" d="M 141.656 34.2596 C 142.355 34.2596 142.923 33.3023 142.923 32.1213 C 142.923 30.9404 142.355 29.9831 141.656 29.9831 C 140.956 29.9831 140.389 30.9404 140.389 32.1213 C 140.389 33.3023 140.956 34.2596 141.656 34.2596 Z" stroke-linecap="round" />
</g>
		<g transform="matrix(1 0 0 1 57.24 -3.5)" clip-path="url(#CLIPPATH_44)"  >
<clipPath id="CLIPPATH_44" >
	<rect transform="matrix(1 0 0 1 -57.24 3.5)" id="clip0_1_3380" x="-85" y="-42.5" rx="0" ry="0" width="170" height="85" />
</clipPath>
<path style="stroke: none; stroke-width: 1; stroke-dasharray: none; stroke-linecap: butt; stroke-dashoffset: 0; stroke-linejoin: miter; stroke-miterlimit: 4; fill: rgb(230,230,230); fill-rule: nonzero; opacity: 1;" vector-effect="non-scaling-stroke"  transform=" translate(-142.24, -39)" d="M 158.707 58.4327 L 125.774 58.4327 C 125.307 58.4321 124.86 58.2471 124.53 57.9181 C 124.2 57.5891 124.015 57.1431 124.014 56.6779 L 124.014 21.3191 C 124.015 20.8539 124.2 20.4079 124.53 20.0789 C 124.86 19.7499 125.307 19.5649 125.774 19.5643 L 158.707 19.5643 C 159.174 19.5649 159.621 19.7499 159.951 20.0789 C 160.28 20.4079 160.466 20.8539 160.466 21.3191 L 160.466 56.6779 C 160.466 57.1431 160.28 57.5891 159.951 57.9181 C 159.621 58.2471 159.174 58.4321 158.707 58.4327 Z M 125.774 20.2662 C 125.494 20.2665 125.225 20.3776 125.028 20.5749 C 124.83 20.7723 124.718 21.0399 124.718 21.3191 L 124.718 56.6779 C 124.718 56.957 124.83 57.2247 125.028 57.422 C 125.225 57.6194 125.494 57.7304 125.774 57.7308 L 158.707 57.7308 C 158.987 57.7304 159.255 57.6194 159.453 57.422 C 159.651 57.2247 159.762 56.957 159.763 56.6779 L 159.763 21.3191 C 159.762 21.0399 159.651 20.7723 159.453 20.5749 C 159.255 20.3776 158.987 20.2665 158.707 20.2662 L 125.774 20.2662 Z" stroke-linecap="round" />
</g>
		<g transform="matrix(1 0 0 1 37.7 -12.44)" clip-path="url(#CLIPPATH_45)"  >
<clipPath id="CLIPPATH_45" >
	<rect transform="matrix(1 0 0 1 -37.7 12.44)" id="clip0_1_3380" x="-85" y="-42.5" rx="0" ry="0" width="170" height="85" />
</clipPath>
<path style="stroke: none; stroke-width: 1; stroke-dasharray: none; stroke-linecap: butt; stroke-dashoffset: 0; stroke-linejoin: miter; stroke-miterlimit: 4; fill: rgb(63,61,86); fill-rule: nonzero; opacity: 1;" vector-effect="non-scaling-stroke"  transform=" translate(-122.7, -30.06)" d="M 118.571 30.3688 L 126.83 25.4062 L 124.418 34.7174 L 122.964 31.3251 L 120.539 34.5682 L 119.82 34.0333 L 122.245 30.7902 L 118.571 30.3688 Z" stroke-linecap="round" />
</g>
		<g transform="matrix(1 0 0 1 0 -3.5)" clip-path="url(#CLIPPATH_46)"  >
<clipPath id="CLIPPATH_46" >
	<rect transform="matrix(1 0 0 1 0 3.5)" id="clip0_1_3380" x="-85" y="-42.5" rx="0" ry="0" width="170" height="85" />
</clipPath>
<path style="stroke: none; stroke-width: 1; stroke-dasharray: none; stroke-linecap: butt; stroke-dashoffset: 0; stroke-linejoin: miter; stroke-miterlimit: 4; fill: rgb(230,230,230); fill-rule: nonzero; opacity: 1;" vector-effect="non-scaling-stroke"  transform=" translate(-85, -39)" d="M 101.47 58.4327 L 68.5362 58.4327 C 68.0698 58.4321 67.6226 58.2471 67.2928 57.9181 C 66.963 57.5891 66.7774 57.1431 66.7769 56.6779 L 66.7769 21.3191 C 66.7774 20.8539 66.963 20.4079 67.2928 20.0789 C 67.6226 19.7499 68.0698 19.5649 68.5362 19.5643 L 101.47 19.5643 C 101.936 19.5649 102.383 19.7499 102.713 20.0789 C 103.043 20.4079 103.229 20.8539 103.229 21.3191 L 103.229 56.6779 C 103.229 57.1431 103.043 57.5891 102.713 57.9181 C 102.383 58.2471 101.936 58.4321 101.47 58.4327 Z M 68.5362 20.2662 C 68.2564 20.2665 67.988 20.3776 67.7901 20.5749 C 67.5922 20.7723 67.4809 21.0399 67.4806 21.3191 L 67.4806 56.6779 C 67.4809 56.957 67.5922 57.2247 67.7901 57.422 C 67.988 57.6194 68.2564 57.7304 68.5362 57.7308 L 101.47 57.7308 C 101.75 57.7304 102.018 57.6194 102.216 57.422 C 102.414 57.2247 102.525 56.957 102.525 56.6779 L 102.525 21.3191 C 102.525 21.0399 102.414 20.7723 102.216 20.5749 C 102.018 20.3776 101.75 20.2665 101.47 20.2662 L 68.5362 20.2662 Z" stroke-linecap="round" />
</g>
		<g transform="matrix(1 0 0 1 18.28 -12.44)" clip-path="url(#CLIPPATH_47)"  >
<clipPath id="CLIPPATH_47" >
	<rect transform="matrix(1 0 0 1 -18.28 12.44)" id="clip0_1_3380" x="-85" y="-42.5" rx="0" ry="0" width="170" height="85" />
</clipPath>
<path style="stroke: none; stroke-width: 1; stroke-dasharray: none; stroke-linecap: butt; stroke-dashoffset: 0; stroke-linejoin: miter; stroke-miterlimit: 4; fill: rgb(33,184,249); fill-rule: nonzero; opacity: 1;" vector-effect="non-scaling-stroke"  transform=" translate(-103.28, -30.06)" d="M 107.405 30.3688 L 99.1463 25.4062 L 101.558 34.7174 L 103.012 31.3251 L 105.437 34.5682 L 106.156 34.0333 L 103.731 30.7902 L 107.405 30.3688 Z" stroke-linecap="round" />
</g>
		<g transform="matrix(1 0 0 1 -57.23 -3.5)" clip-path="url(#CLIPPATH_48)"  >
<clipPath id="CLIPPATH_48" >
	<rect transform="matrix(1 0 0 1 57.23 3.5)" id="clip0_1_3380" x="-85" y="-42.5" rx="0" ry="0" width="170" height="85" />
</clipPath>
<path style="stroke: none; stroke-width: 1; stroke-dasharray: none; stroke-linecap: butt; stroke-dashoffset: 0; stroke-linejoin: miter; stroke-miterlimit: 4; fill: rgb(230,230,230); fill-rule: nonzero; opacity: 1;" vector-effect="non-scaling-stroke"  transform=" translate(-27.77, -39)" d="M 44.2323 58.4327 L 11.2988 58.4327 C 10.8324 58.4321 10.3852 58.2471 10.0554 57.9181 C 9.72553 57.5891 9.54 57.1431 9.53945 56.6779 L 9.53945 21.3191 C 9.54 20.8539 9.72553 20.4078 10.0554 20.0789 C 10.3852 19.7499 10.8324 19.5649 11.2988 19.5643 L 44.2323 19.5643 C 44.6988 19.5649 45.1459 19.7499 45.4757 20.0789 C 45.8056 20.4079 45.9911 20.8539 45.9916 21.3191 L 45.9916 56.6779 C 45.9911 57.1431 45.8056 57.5891 45.4757 57.9181 C 45.1459 58.2471 44.6988 58.4321 44.2323 58.4327 Z M 11.2988 20.2662 C 11.0189 20.2665 10.7506 20.3776 10.5527 20.5749 C 10.3548 20.7723 10.2435 21.0399 10.2432 21.3191 L 10.2432 56.6779 C 10.2435 56.957 10.3548 57.2247 10.5527 57.422 C 10.7506 57.6194 11.0189 57.7304 11.2988 57.7308 L 44.2323 57.7308 C 44.5122 57.7304 44.7805 57.6194 44.9784 57.422 C 45.1763 57.2247 45.2876 56.957 45.2879 56.6779 L 45.2879 21.3191 C 45.2876 21.0399 45.1763 20.7723 44.9784 20.5749 C 44.7805 20.3776 44.5122 20.2665 44.2323 20.2662 L 11.2988 20.2662 Z" stroke-linecap="round" />
</g>
</g>
</g>
</svg>