<?xml version="1.0" encoding="UTF-8" standalone="no" ?>
<!DOCTYPE svg PUBLIC "-//W3C//DTD SVG 1.1//EN" "http://www.w3.org/Graphics/SVG/1.1/DTD/svg11.dtd">
<svg xmlns="http://www.w3.org/2000/svg" xmlns:xlink="http://www.w3.org/1999/xlink" version="1.1" width="1080" height="1080" viewBox="0 0 1080 1080" xml:space="preserve">
<desc>Created with Fabric.js 5.2.4</desc>
<defs>
</defs>
<g transform="matrix(1 0 0 1 540 540)" id="846eeb35-9848-43bc-8905-a7c7aa0a1b02"  >
<rect style="stroke: none; stroke-width: 1; stroke-dasharray: none; stroke-linecap: butt; stroke-dashoffset: 0; stroke-linejoin: miter; stroke-miterlimit: 4; fill: rgb(255,255,255); fill-rule: nonzero; opacity: 1; visibility: hidden;" vector-effect="non-scaling-stroke"  x="-540" y="-540" rx="0" ry="0" width="1080" height="1080" />
</g>
<g transform="matrix(1 0 0 1 540 540)" id="e19b0ee2-89d6-42eb-a720-f0f6d6e3f331"  >
</g>
<g transform="matrix(8.85 0 0 8.85 540 540)"  >
<g style=""   >
		<g transform="matrix(1 0 0 1 12.97 -9.71)" clip-path="url(#CLIPPATH_9)"  >
<linearGradient id="SVGID_paint0_linear_1_3430_3" gradientUnits="userSpaceOnUse" gradientTransform="matrix(1 0 0 1 0 0)"  x1="73.971" y1="64.5875" x2="73.971" y2="0">
<stop offset="1%" style="stop-color:rgb(128,128,128);stop-opacity: 0.25"/>
<stop offset="54%" style="stop-color:rgb(128,128,128);stop-opacity: 0.12"/>
<stop offset="100%" style="stop-color:rgb(128,128,128);stop-opacity: 0.1"/>
</linearGradient>
<clipPath id="CLIPPATH_9" >
	<rect transform="matrix(1 0 0 1 -12.97 9.71)" id="clip0_1_3430" x="-61" y="-42" rx="0" ry="0" width="122" height="84" />
</clipPath>
<path style="stroke: none; stroke-width: 1; stroke-dasharray: none; stroke-linecap: butt; stroke-dashoffset: 0; stroke-linejoin: miter; stroke-miterlimit: 4; fill: url(#SVGID_paint0_linear_1_3430_3); fill-rule: nonzero; opacity: 1;" vector-effect="non-scaling-stroke"  transform=" translate(-73.97, -32.29)" d="M 120.374 62.5527 C 120.375 62.8185 120.324 63.082 120.223 63.3281 C 120.123 63.5742 119.974 63.7982 119.787 63.9871 C 119.6 64.1761 119.377 64.3263 119.131 64.4294 C 118.886 64.5324 118.622 64.5861 118.356 64.5875 L 29.586 64.5875 C 29.3197 64.5861 29.0562 64.5324 28.8107 64.4294 C 28.5651 64.3263 28.3423 64.1761 28.1549 63.9871 C 27.9676 63.7982 27.8194 63.5742 27.7187 63.3281 C 27.6181 63.082 27.567 62.8185 27.5684 62.5527 L 27.5684 2.03481 C 27.567 1.76898 27.6181 1.50548 27.7187 1.25936 C 27.8194 1.01323 27.9676 0.789297 28.1549 0.600347 C 28.3423 0.411396 28.5651 0.261127 28.8107 0.158119 C 29.0562 0.0551113 29.3197 0.00138272 29.586 0 L 118.356 0 C 118.622 0.00138272 118.886 0.0551113 119.131 0.158119 C 119.377 0.261127 119.6 0.411396 119.787 0.600347 C 119.974 0.789297 120.123 1.01323 120.223 1.25936 C 120.324 1.50548 120.375 1.76898 120.374 2.03481" stroke-linecap="round" />
</g>
		<g transform="matrix(1 0 0 1 13 -9.69)" clip-path="url(#CLIPPATH_10)"  >
<clipPath id="CLIPPATH_10" >
	<rect transform="matrix(1 0 0 1 -13 9.69)" id="clip0_1_3430" x="-61" y="-42" rx="0" ry="0" width="122" height="84" />
</clipPath>
<path style="stroke: none; stroke-width: 1; stroke-dasharray: none; stroke-linecap: butt; stroke-dashoffset: 0; stroke-linejoin: miter; stroke-miterlimit: 4; fill: rgb(245,245,245); fill-rule: nonzero; opacity: 1;" vector-effect="non-scaling-stroke"  transform=" translate(-74, -32.31)" d="M 119.33 61.5616 C 119.33 61.82 119.28 62.0759 119.18 62.3146 C 119.081 62.5533 118.936 62.7702 118.753 62.9529 C 118.57 63.1356 118.353 63.2805 118.114 63.3794 C 117.874 63.4782 117.618 63.5291 117.359 63.5291 L 30.6477 63.5291 C 30.1248 63.5291 29.6234 63.3218 29.2537 62.9529 C 28.884 62.5839 28.6763 62.0834 28.6763 61.5616 L 28.6763 3.06011 C 28.6774 2.53898 28.8855 2.03955 29.2551 1.67143 C 29.6247 1.3033 30.1255 1.09656 30.6477 1.09656 L 117.359 1.09656 C 117.882 1.09656 118.383 1.30385 118.753 1.67283 C 119.123 2.04181 119.33 2.54225 119.33 3.06407" stroke-linecap="round" />
</g>
		<g transform="matrix(1 0 0 1 13.05 -9.54)" clip-path="url(#CLIPPATH_11)"  >
<linearGradient id="SVGID_paint1_linear_1_3430_4" gradientUnits="userSpaceOnUse" gradientTransform="matrix(1 0 0 1 0 0)"  x1="46972.5" y1="26426.9" x2="46972.5" y2="1688.25">
<stop offset="1%" style="stop-color:rgb(128,128,128);stop-opacity: 0.25"/>
<stop offset="54%" style="stop-color:rgb(128,128,128);stop-opacity: 0.12"/>
<stop offset="100%" style="stop-color:rgb(128,128,128);stop-opacity: 0.1"/>
</linearGradient>
<clipPath id="CLIPPATH_11" >
	<rect transform="matrix(1 0 0 1 -13.05 9.54)" id="clip0_1_3430" x="-61" y="-42" rx="0" ry="0" width="122" height="84" />
</clipPath>
<path style="stroke: none; stroke-width: 1; stroke-dasharray: none; stroke-linecap: butt; stroke-dashoffset: 0; stroke-linejoin: miter; stroke-miterlimit: 4; fill: url(#SVGID_paint1_linear_1_3430_4); fill-rule: nonzero; opacity: 1;" vector-effect="non-scaling-stroke"  transform=" translate(-74.05, -32.46)" d="M 114.785 3.89014 L 33.3106 3.89014 C 32.6644 3.89014 32.1405 4.413 32.1405 5.05798 L 32.1405 59.858 C 32.1405 60.503 32.6644 61.0259 33.3106 61.0259 L 114.785 61.0259 C 115.431 61.0259 115.955 60.503 115.955 59.858 L 115.955 5.05798 C 115.955 4.413 115.431 3.89014 114.785 3.89014 Z" stroke-linecap="round" />
</g>
		<g transform="matrix(1 0 0 1 13 -9.69)" clip-path="url(#CLIPPATH_12)"  >
<clipPath id="CLIPPATH_12" >
	<rect transform="matrix(1 0 0 1 -13 9.69)" id="clip0_1_3430" x="-61" y="-42" rx="0" ry="0" width="122" height="84" />
</clipPath>
<path style="stroke: none; stroke-width: 1; stroke-dasharray: none; stroke-linecap: butt; stroke-dashoffset: 0; stroke-linejoin: miter; stroke-miterlimit: 4; fill: rgb(255,255,255); fill-rule: nonzero; opacity: 1;" vector-effect="non-scaling-stroke"  transform=" translate(-74, -32.31)" d="M 113.665 5.20459 L 34.3419 5.20459 C 33.6956 5.20459 33.1718 5.72745 33.1718 6.37243 L 33.1718 58.2483 C 33.1718 58.8932 33.6956 59.4161 34.3419 59.4161 L 113.665 59.4161 C 114.311 59.4161 114.835 58.8932 114.835 58.2483 L 114.835 6.37243 C 114.835 5.72745 114.311 5.20459 113.665 5.20459 Z" stroke-linecap="round" />
</g>
		<g transform="matrix(1 0 0 1 13.76 1.56)" clip-path="url(#CLIPPATH_13)"  >
<clipPath id="CLIPPATH_13" >
	<rect transform="matrix(1 0 0 1 -13.76 -1.56)" id="clip0_1_3430" x="-61" y="-42" rx="0" ry="0" width="122" height="84" />
</clipPath>
<path style="stroke: none; stroke-width: 1; stroke-dasharray: none; stroke-linecap: butt; stroke-dashoffset: 0; stroke-linejoin: miter; stroke-miterlimit: 4; fill: rgb(33,184,249); fill-rule: nonzero; opacity: 1;" vector-effect="non-scaling-stroke"  transform=" translate(-74.76, -43.56)" d="M 28.6302 58.9187 L 51.4296 32.8448 C 51.8228 32.3952 52.3013 32.0276 52.8373 31.7631 C 53.3734 31.4985 53.9566 31.3424 54.5533 31.3035 C 55.1501 31.2646 55.7486 31.3438 56.3146 31.5365 C 56.8806 31.7293 57.4028 32.0317 57.8513 32.4265 L 64.236 38.0453 C 65.0512 38.7632 66.0974 39.1652 67.1844 39.1783 C 68.2715 39.1914 69.3271 38.8146 70.1593 38.1166 L 89.6718 21.7497 C 90.57 20.9963 91.7256 20.6193 92.8963 20.6978 C 94.0669 20.7763 95.1616 21.3041 95.9508 22.1706 L 119.896 48.4701 C 120.561 49.2003 120.969 50.1269 121.057 51.1093 L 121.983 61.4853 C 122.04 62.1121 121.966 62.7439 121.765 63.3406 C 121.564 63.9372 121.241 64.4854 120.816 64.9504 C 120.391 65.4154 119.873 65.7868 119.296 66.0411 C 118.719 66.2953 118.096 66.4268 117.465 66.4272 L 32.0533 66.4272 C 30.8734 66.427 29.7399 65.9683 28.8931 65.1483 C 28.0462 64.3282 27.5527 63.2113 27.5169 62.0342 C 27.4813 60.8928 27.8789 59.78 28.6302 58.9187 Z" stroke-linecap="round" />
</g>
		<g transform="matrix(1 0 0 1 -17.99 -28.1)" clip-path="url(#CLIPPATH_14)"  >
<clipPath id="CLIPPATH_14" >
	<rect transform="matrix(1 0 0 1 17.99 28.1)" id="clip0_1_3430" x="-61" y="-42" rx="0" ry="0" width="122" height="84" />
</clipPath>
<path style="stroke: none; stroke-width: 1; stroke-dasharray: none; stroke-linecap: butt; stroke-dashoffset: 0; stroke-linejoin: miter; stroke-miterlimit: 4; fill: rgb(255,82,82); fill-rule: nonzero; opacity: 1;" vector-effect="non-scaling-stroke"  transform=" translate(-43.01, -13.9)" d="M 43.0059 18.9456 C 45.799 18.9456 48.0632 16.6858 48.0632 13.8982 C 48.0632 11.1106 45.799 8.85074 43.0059 8.85074 C 40.2129 8.85074 37.9487 11.1106 37.9487 13.8982 C 37.9487 16.6858 40.2129 18.9456 43.0059 18.9456 Z" stroke-linecap="round" />
</g>
		<g transform="matrix(1 0 0 1 -0.78 -0.92)" clip-path="url(#CLIPPATH_15)"  >
<linearGradient id="SVGID_paint2_linear_1_3430_5" gradientUnits="userSpaceOnUse" gradientTransform="matrix(1 0 0 1 0 0)"  x1="55703.4" y1="44878.1" x2="55703.4" y2="13267">
<stop offset="1%" style="stop-color:rgb(128,128,128);stop-opacity: 0.25"/>
<stop offset="54%" style="stop-color:rgb(128,128,128);stop-opacity: 0.12"/>
<stop offset="100%" style="stop-color:rgb(128,128,128);stop-opacity: 0.1"/>
</linearGradient>
<clipPath id="CLIPPATH_15" >
	<rect transform="matrix(1 0 0 1 0.78 0.92)" id="clip0_1_3430" x="-61" y="-42" rx="0" ry="0" width="122" height="84" />
</clipPath>
<path style="stroke: none; stroke-width: 1; stroke-dasharray: none; stroke-linecap: butt; stroke-dashoffset: 0; stroke-linejoin: miter; stroke-miterlimit: 4; fill: url(#SVGID_paint2_linear_1_3430_5); fill-rule: nonzero; opacity: 1;" vector-effect="non-scaling-stroke"  transform=" translate(-60.22, -41.08)" d="M 106.623 71.3388 C 106.625 71.6046 106.574 71.8681 106.473 72.1142 C 106.372 72.3604 106.224 72.5843 106.037 72.7732 C 105.849 72.9622 105.626 73.1124 105.381 73.2155 C 105.135 73.3185 104.872 73.3722 104.606 73.3736 L 15.8302 73.3736 C 15.5634 73.3729 15.2994 73.3197 15.0532 73.217 C 14.8071 73.1143 14.5837 72.9641 14.3957 72.7751 C 14.2078 72.5861 14.0591 72.3619 13.9581 72.1154 C 13.8572 71.869 13.8059 71.605 13.8073 71.3388 L 13.8073 10.8222 C 13.8059 10.5564 13.857 10.2929 13.9576 10.0467 C 14.0583 9.80061 14.2065 9.57668 14.3939 9.38773 C 14.5812 9.19878 14.804 9.04851 15.0496 8.9455 C 15.2951 8.8425 15.5586 8.78877 15.8249 8.78738 L 104.6 8.78738 C 104.867 8.78807 105.131 8.84129 105.377 8.94399 C 105.623 9.04669 105.847 9.19685 106.035 9.38587 C 106.223 9.57489 106.371 9.79906 106.472 10.0455 C 106.573 10.292 106.625 10.5559 106.623 10.8222" stroke-linecap="round" />
</g>
		<g transform="matrix(1 0 0 1 -0.75 -0.9)" clip-path="url(#CLIPPATH_16)"  >
<clipPath id="CLIPPATH_16" >
	<rect transform="matrix(1 0 0 1 0.75 0.9)" id="clip0_1_3430" x="-61" y="-42" rx="0" ry="0" width="122" height="84" />
</clipPath>
<path style="stroke: none; stroke-width: 1; stroke-dasharray: none; stroke-linecap: butt; stroke-dashoffset: 0; stroke-linejoin: miter; stroke-miterlimit: 4; fill: rgb(245,245,245); fill-rule: nonzero; opacity: 1;" vector-effect="non-scaling-stroke"  transform=" translate(-60.25, -41.1)" d="M 105.575 70.3491 C 105.575 70.8709 105.367 71.3714 104.997 71.7404 C 104.628 72.1094 104.126 72.3166 103.603 72.3166 L 16.892 72.3166 C 16.3692 72.3166 15.8678 72.1094 15.4981 71.7404 C 15.1284 71.3714 14.9207 70.8709 14.9207 70.3491 L 14.9207 11.8463 C 14.9207 11.3245 15.1284 10.824 15.4981 10.4551 C 15.8678 10.0861 16.3692 9.87878 16.892 9.87878 L 103.603 9.87878 C 104.126 9.87878 104.628 10.0861 104.997 10.4551 C 105.367 10.824 105.575 11.3245 105.575 11.8463" stroke-linecap="round" />
</g>
		<g transform="matrix(1 0 0 1 -0.71 -0.75)" clip-path="url(#CLIPPATH_17)"  >
<linearGradient id="SVGID_paint3_linear_1_3430_6" gradientUnits="userSpaceOnUse" gradientTransform="matrix(1 0 0 1 0 0)"  x1="38238.7" y1="30239.8" x2="38238.7" y2="5501.71">
<stop offset="1%" style="stop-color:rgb(128,128,128);stop-opacity: 0.25"/>
<stop offset="54%" style="stop-color:rgb(128,128,128);stop-opacity: 0.12"/>
<stop offset="100%" style="stop-color:rgb(128,128,128);stop-opacity: 0.1"/>
</linearGradient>
<clipPath id="CLIPPATH_17" >
	<rect transform="matrix(1 0 0 1 0.71 0.75)" id="clip0_1_3430" x="-61" y="-42" rx="0" ry="0" width="122" height="84" />
</clipPath>
<path style="stroke: none; stroke-width: 1; stroke-dasharray: none; stroke-linecap: butt; stroke-dashoffset: 0; stroke-linejoin: miter; stroke-miterlimit: 4; fill: url(#SVGID_paint3_linear_1_3430_6); fill-rule: nonzero; opacity: 1;" vector-effect="non-scaling-stroke"  transform=" translate(-60.29, -41.25)" d="M 101.029 12.6775 L 19.5547 12.6775 C 18.9085 12.6775 18.3846 13.2004 18.3846 13.8454 L 18.3846 68.6454 C 18.3846 69.2904 18.9085 69.8132 19.5547 69.8132 L 101.029 69.8132 C 101.675 69.8132 102.199 69.2904 102.199 68.6454 L 102.199 13.8454 C 102.199 13.2004 101.675 12.6775 101.029 12.6775 Z" stroke-linecap="round" />
</g>
		<g transform="matrix(1 0 0 1 -0.75 -0.9)" clip-path="url(#CLIPPATH_18)"  >
<clipPath id="CLIPPATH_18" >
	<rect transform="matrix(1 0 0 1 0.75 0.9)" id="clip0_1_3430" x="-61" y="-42" rx="0" ry="0" width="122" height="84" />
</clipPath>
<path style="stroke: none; stroke-width: 1; stroke-dasharray: none; stroke-linecap: butt; stroke-dashoffset: 0; stroke-linejoin: miter; stroke-miterlimit: 4; fill: rgb(255,255,255); fill-rule: nonzero; opacity: 1;" vector-effect="non-scaling-stroke"  transform=" translate(-60.25, -41.1)" d="M 99.9094 13.992 L 20.5861 13.992 C 19.9399 13.992 19.416 14.5148 19.416 15.1598 L 19.416 67.0357 C 19.416 67.6807 19.9399 68.2035 20.5861 68.2035 L 99.9094 68.2035 C 100.556 68.2035 101.079 67.6807 101.079 67.0357 L 101.079 15.1598 C 101.079 14.5148 100.556 13.992 99.9094 13.992 Z" stroke-linecap="round" />
</g>
		<g transform="matrix(1 0 0 1 0 10.34)" clip-path="url(#CLIPPATH_19)"  >
<clipPath id="CLIPPATH_19" >
	<rect transform="matrix(1 0 0 1 0 -10.34)" id="clip0_1_3430" x="-61" y="-42" rx="0" ry="0" width="122" height="84" />
</clipPath>
<path style="stroke: none; stroke-width: 1; stroke-dasharray: none; stroke-linecap: butt; stroke-dashoffset: 0; stroke-linejoin: miter; stroke-miterlimit: 4; fill: rgb(33,184,249); fill-rule: nonzero; opacity: 1;" vector-effect="non-scaling-stroke"  transform=" translate(-61, -52.34)" d="M 14.8744 67.7058 L 37.6738 41.6306 C 38.0671 41.1808 38.5456 40.813 39.0818 40.5484 C 39.618 40.2838 40.2013 40.1275 40.7982 40.0886 C 41.3951 40.0498 41.9938 40.129 42.5599 40.3219 C 43.126 40.5147 43.6483 40.8173 44.0969 41.2123 L 50.4803 46.8338 C 51.2954 47.5516 52.3417 47.9537 53.4287 47.9667 C 54.5157 47.9798 55.5713 47.6031 56.4036 46.905 L 75.9161 30.5355 C 76.8143 29.7821 77.9699 29.4052 79.1405 29.4836 C 80.3111 29.5621 81.4058 30.09 82.195 30.9565 L 106.139 57.2612 C 106.804 57.9913 107.212 58.918 107.3 59.9004 L 108.226 70.2763 C 108.281 70.9024 108.206 71.5332 108.004 72.1286 C 107.802 72.7239 107.478 73.2709 107.053 73.7345 C 106.628 74.1982 106.111 74.5685 105.534 74.8219 C 104.958 75.0753 104.335 75.2062 103.705 75.2063 L 18.2935 75.2063 C 17.1136 75.2062 15.9801 74.7475 15.1333 73.9274 C 14.2865 73.1074 13.7929 71.9905 13.7572 70.8134 C 13.7247 69.6741 14.1236 68.5645 14.8744 67.7058 Z" stroke-linecap="round" />
</g>
		<g transform="matrix(1 0 0 1 -31.75 -19.32)" clip-path="url(#CLIPPATH_20)"  >
<clipPath id="CLIPPATH_20" >
	<rect transform="matrix(1 0 0 1 31.75 19.32)" id="clip0_1_3430" x="-61" y="-42" rx="0" ry="0" width="122" height="84" />
</clipPath>
<path style="stroke: none; stroke-width: 1; stroke-dasharray: none; stroke-linecap: butt; stroke-dashoffset: 0; stroke-linejoin: miter; stroke-miterlimit: 4; fill: rgb(255,82,82); fill-rule: nonzero; opacity: 1;" vector-effect="non-scaling-stroke"  transform=" translate(-29.25, -22.68)" d="M 29.2502 27.7314 C 32.0433 27.7314 34.3075 25.4716 34.3075 22.684 C 34.3075 19.8964 32.0433 17.6366 29.2502 17.6366 C 26.4572 17.6366 24.193 19.8964 24.193 22.684 C 24.193 25.4716 26.4572 27.7314 29.2502 27.7314 Z" stroke-linecap="round" />
</g>
		<g transform="matrix(1 0 0 1 -14.54 7.87)" clip-path="url(#CLIPPATH_21)"  >
<linearGradient id="SVGID_paint4_linear_1_3430_7" gradientUnits="userSpaceOnUse" gradientTransform="matrix(1 0 0 1 0 0)"  x1="46027.8" y1="49188.7" x2="46027.8" y2="17576.3">
<stop offset="1%" style="stop-color:rgb(128,128,128);stop-opacity: 0.25"/>
<stop offset="54%" style="stop-color:rgb(128,128,128);stop-opacity: 0.12"/>
<stop offset="100%" style="stop-color:rgb(128,128,128);stop-opacity: 0.1"/>
</linearGradient>
<clipPath id="CLIPPATH_21" >
	<rect transform="matrix(1 0 0 1 14.54 -7.87)" id="clip0_1_3430" x="-61" y="-42" rx="0" ry="0" width="122" height="84" />
</clipPath>
<path style="stroke: none; stroke-width: 1; stroke-dasharray: none; stroke-linecap: butt; stroke-dashoffset: 0; stroke-linejoin: miter; stroke-miterlimit: 4; fill: url(#SVGID_paint4_linear_1_3430_7); fill-rule: nonzero; opacity: 1;" vector-effect="non-scaling-stroke"  transform=" translate(-46.46, -49.87)" d="M 92.8621 80.1258 C 92.8635 80.3917 92.8125 80.6552 92.7118 80.9013 C 92.6112 81.1474 92.4629 81.3714 92.2756 81.5603 C 92.0882 81.7493 91.8654 81.8995 91.6199 82.0025 C 91.3743 82.1055 91.1109 82.1593 90.8445 82.1607 L 2.07447 82.1607 C 1.80812 82.1593 1.54466 82.1055 1.29912 82.0025 C 1.05357 81.8995 0.830764 81.7493 0.64341 81.5603 C 0.456056 81.3714 0.307827 81.1474 0.207185 80.9013 C 0.106543 80.6552 0.0554588 80.3917 0.0568515 80.1258 L 0.0568515 19.608 C 0.0554588 19.3422 0.106543 19.0787 0.207185 18.8325 C 0.307827 18.5864 0.456056 18.3625 0.64341 18.1735 C 0.830764 17.9846 1.05357 17.8343 1.29912 17.7313 C 1.54466 17.6283 1.80812 17.5746 2.07447 17.5732 L 90.8445 17.5732 C 91.1109 17.5746 91.3743 17.6283 91.6199 17.7313 C 91.8654 17.8343 92.0882 17.9846 92.2756 18.1735 C 92.4629 18.3625 92.6112 18.5864 92.7118 18.8325 C 92.8125 19.0787 92.8635 19.3422 92.8621 19.608" stroke-linecap="round" />
</g>
		<g transform="matrix(1 0 0 1 -14.51 7.88)" clip-path="url(#CLIPPATH_22)"  >
<clipPath id="CLIPPATH_22" >
	<rect transform="matrix(1 0 0 1 14.51 -7.88)" id="clip0_1_3430" x="-61" y="-42" rx="0" ry="0" width="122" height="84" />
</clipPath>
<path style="stroke: none; stroke-width: 1; stroke-dasharray: none; stroke-linecap: butt; stroke-dashoffset: 0; stroke-linejoin: miter; stroke-miterlimit: 4; fill: rgb(255,255,255); fill-rule: nonzero; opacity: 1;" vector-effect="non-scaling-stroke"  transform=" translate(-46.49, -49.88)" d="M 91.8149 79.1348 C 91.8149 79.6566 91.6072 80.157 91.2375 80.526 C 90.8678 80.895 90.3664 81.1023 89.8436 81.1023 L 3.13608 81.1023 C 2.61324 81.1023 2.11183 80.895 1.74213 80.526 C 1.37243 80.157 1.16473 79.6566 1.16473 79.1348 L 1.16473 20.6267 C 1.16473 20.1049 1.37243 19.6044 1.74213 19.2355 C 2.11183 18.8665 2.61324 18.6592 3.13608 18.6592 L 89.8475 18.6592 C 90.3697 18.6602 90.8701 18.868 91.2389 19.2368 C 91.6078 19.6057 91.8149 20.1056 91.8149 20.6267" stroke-linecap="round" />
</g>
		<g transform="matrix(1 0 0 1 -14.46 8.03)" clip-path="url(#CLIPPATH_23)"  >
<linearGradient id="SVGID_paint5_linear_1_3430_8" gradientUnits="userSpaceOnUse" gradientTransform="matrix(1 0 0 1 0 0)"  x1="29504.9" y1="34053.2" x2="29504.9" y2="9314.59">
<stop offset="1%" style="stop-color:rgb(128,128,128);stop-opacity: 0.25"/>
<stop offset="54%" style="stop-color:rgb(128,128,128);stop-opacity: 0.12"/>
<stop offset="100%" style="stop-color:rgb(128,128,128);stop-opacity: 0.1"/>
</linearGradient>
<clipPath id="CLIPPATH_23" >
	<rect transform="matrix(1 0 0 1 14.46 -8.03)" id="clip0_1_3430" x="-61" y="-42" rx="0" ry="0" width="122" height="84" />
</clipPath>
<path style="stroke: none; stroke-width: 1; stroke-dasharray: none; stroke-linecap: butt; stroke-dashoffset: 0; stroke-linejoin: miter; stroke-miterlimit: 4; fill: url(#SVGID_paint5_linear_1_3430_8); fill-rule: nonzero; opacity: 1;" vector-effect="non-scaling-stroke"  transform=" translate(-46.54, -50.03)" d="M 87.2734 21.4633 L 5.79899 21.4633 C 5.15275 21.4633 4.62888 21.9862 4.62888 22.6312 L 4.62888 77.4313 C 4.62888 78.0763 5.15275 78.5991 5.79899 78.5991 L 87.2734 78.5991 C 87.9196 78.5991 88.4435 78.0763 88.4435 77.4313 L 88.4435 22.6312 C 88.4435 21.9862 87.9196 21.4633 87.2734 21.4633 Z" stroke-linecap="round" />
</g>
		<g transform="matrix(1 0 0 1 -14.51 7.88)" clip-path="url(#CLIPPATH_24)"  >
<clipPath id="CLIPPATH_24" >
	<rect transform="matrix(1 0 0 1 14.51 -7.88)" id="clip0_1_3430" x="-61" y="-42" rx="0" ry="0" width="122" height="84" />
</clipPath>
<path style="stroke: none; stroke-width: 1; stroke-dasharray: none; stroke-linecap: butt; stroke-dashoffset: 0; stroke-linejoin: miter; stroke-miterlimit: 4; fill: rgb(255,255,255); fill-rule: nonzero; opacity: 1;" vector-effect="non-scaling-stroke"  transform=" translate(-46.49, -49.88)" d="M 86.1534 22.7776 L 6.83021 22.7776 C 6.18397 22.7776 5.6601 23.3004 5.6601 23.9454 L 5.6601 75.8212 C 5.6601 76.4662 6.18397 76.9891 6.83021 76.9891 L 86.1534 76.9891 C 86.7997 76.9891 87.3235 76.4662 87.3235 75.8212 L 87.3235 23.9454 C 87.3235 23.3004 86.7997 22.7776 86.1534 22.7776 Z" stroke-linecap="round" />
</g>
		<g transform="matrix(1 0 0 1 -13.76 19.13)" clip-path="url(#CLIPPATH_25)"  >
<clipPath id="CLIPPATH_25" >
	<rect transform="matrix(1 0 0 1 13.76 -19.13)" id="clip0_1_3430" x="-61" y="-42" rx="0" ry="0" width="122" height="84" />
</clipPath>
<path style="stroke: none; stroke-width: 1; stroke-dasharray: none; stroke-linecap: butt; stroke-dashoffset: 0; stroke-linejoin: miter; stroke-miterlimit: 4; fill: rgb(33,184,249); fill-rule: nonzero; opacity: 1;" vector-effect="non-scaling-stroke"  transform=" translate(-47.24, -61.13)" d="M 1.11462 76.4917 L 23.9193 50.4178 C 24.3125 49.9692 24.7905 49.6024 25.326 49.3384 C 25.8615 49.0745 26.4439 48.9186 27.0399 48.8798 C 27.6358 48.8409 28.2336 48.9198 28.799 49.112 C 29.3643 49.3041 29.8861 49.6057 30.3344 49.9995 L 36.7178 55.621 C 37.533 56.3388 38.5792 56.7409 39.6662 56.7539 C 40.7533 56.767 41.8089 56.3903 42.6411 55.6922 L 62.1602 39.3227 C 63.0584 38.5693 64.214 38.1923 65.3847 38.2708 C 66.5553 38.3493 67.65 38.8771 68.4392 39.7436 L 92.3836 66.0484 C 93.0481 66.7785 93.4557 67.7052 93.5444 68.6876 L 94.4699 79.0635 C 94.5255 79.6896 94.45 80.3204 94.248 80.9158 C 94.0461 81.5112 93.7223 82.0581 93.2971 82.5218 C 92.872 82.9855 92.3548 83.3558 91.7784 83.6091 C 91.2021 83.8625 90.5792 83.9934 89.9495 83.9935 L 4.5377 83.9935 C 3.35979 83.9935 2.22803 83.5364 1.38154 82.7189 C 0.535047 81.9014 0.0401312 80.7875 0.00135929 79.6125 C -0.0356262 78.4692 0.362076 77.3544 1.11462 76.4917 Z" stroke-linecap="round" />
</g>
		<g transform="matrix(1 0 0 1 -45.51 -10.53)" clip-path="url(#CLIPPATH_26)"  >
<clipPath id="CLIPPATH_26" >
	<rect transform="matrix(1 0 0 1 45.51 10.53)" id="clip0_1_3430" x="-61" y="-42" rx="0" ry="0" width="122" height="84" />
</clipPath>
<path style="stroke: none; stroke-width: 1; stroke-dasharray: none; stroke-linecap: butt; stroke-dashoffset: 0; stroke-linejoin: miter; stroke-miterlimit: 4; fill: rgb(255,82,82); fill-rule: nonzero; opacity: 1;" vector-effect="non-scaling-stroke"  transform=" translate(-15.49, -31.47)" d="M 15.4945 36.5181 C 18.2876 36.5181 20.5518 34.2583 20.5518 31.4707 C 20.5518 28.6831 18.2876 26.4233 15.4945 26.4233 C 12.7014 26.4233 10.4372 28.6831 10.4372 31.4707 C 10.4372 34.2583 12.7014 36.5181 15.4945 36.5181 Z" stroke-linecap="round" />
</g>
</g>
</g>
</svg>