<?xml version="1.0" encoding="UTF-8" standalone="no" ?>
<!DOCTYPE svg PUBLIC "-//W3C//DTD SVG 1.1//EN" "http://www.w3.org/Graphics/SVG/1.1/DTD/svg11.dtd">
<svg xmlns="http://www.w3.org/2000/svg" xmlns:xlink="http://www.w3.org/1999/xlink" version="1.1" width="1080" height="1080" viewBox="0 0 1080 1080" xml:space="preserve">
<desc>Created with Fabric.js 5.2.4</desc>
<defs>
</defs>
<g transform="matrix(1 0 0 1 540 540)" id="caddfe51-825b-4d65-90a4-e9d4633adcfa"  >
<rect style="stroke: none; stroke-width: 1; stroke-dasharray: none; stroke-linecap: butt; stroke-dashoffset: 0; stroke-linejoin: miter; stroke-miterlimit: 4; fill: rgb(255,255,255); fill-rule: nonzero; opacity: 1; visibility: hidden;" vector-effect="non-scaling-stroke"  x="-540" y="-540" rx="0" ry="0" width="1080" height="1080" />
</g>
<g transform="matrix(1 0 0 1 540 540)" id="54393fd5-19f9-468f-afe5-411b5f60861e"  >
</g>
<g transform="matrix(13.85 0 0 13.85 540 540)"  >
<g style=""   >
		<g transform="matrix(1 0 0 1 0.96 -0.59)" clip-path="url(#CLIPPATH_3)"  >
<clipPath id="CLIPPATH_3" >
	<rect transform="matrix(1 0 0 1 -0.96 0.59)" id="clip0_1_3020" x="-39" y="-42" rx="0" ry="0" width="78" height="84" />
</clipPath>
<path style="stroke: none; stroke-width: 1; stroke-dasharray: none; stroke-linecap: butt; stroke-dashoffset: 0; stroke-linejoin: miter; stroke-miterlimit: 4; fill: rgb(230,230,230); fill-rule: nonzero; opacity: 1;" vector-effect="non-scaling-stroke"  transform=" translate(-39.96, -41.41)" d="M 60.4969 24.4464 L 19.2178 58.1079 L 19.4317 58.3677 L 60.7109 24.7062 L 60.4969 24.4464 Z" stroke-linecap="round" />
</g>
		<g transform="matrix(1 0 0 1 0.96 -0.51)" clip-path="url(#CLIPPATH_4)"  >
<clipPath id="CLIPPATH_4" >
	<rect transform="matrix(1 0 0 1 -0.96 0.51)" id="clip0_1_3020" x="-39" y="-42" rx="0" ry="0" width="78" height="84" />
</clipPath>
<path style="stroke: none; stroke-width: 1; stroke-dasharray: none; stroke-linecap: butt; stroke-dashoffset: 0; stroke-linejoin: miter; stroke-miterlimit: 4; fill: rgb(230,230,230); fill-rule: nonzero; opacity: 1;" vector-effect="non-scaling-stroke"  transform=" translate(-39.96, -41.49)" d="M 19.4375 24.4405 L 19.2229 24.6997 L 60.4914 58.5421 L 60.706 58.2829 L 19.4375 24.4405 Z" stroke-linecap="round" />
</g>
		<g transform="matrix(1 0 0 1 11.54 -7.95)" clip-path="url(#CLIPPATH_5)"  >
<clipPath id="CLIPPATH_5" >
	<rect transform="matrix(1 0 0 1 -11.54 7.95)" id="clip0_1_3020" x="-39" y="-42" rx="0" ry="0" width="78" height="84" />
</clipPath>
<path style="stroke: none; stroke-width: 1; stroke-dasharray: none; stroke-linecap: butt; stroke-dashoffset: 0; stroke-linejoin: miter; stroke-miterlimit: 4; fill: rgb(63,61,86); fill-rule: nonzero; opacity: 1;" vector-effect="non-scaling-stroke"  transform=" translate(-50.54, -34.05)" d="M 48.6865 35.9019 L 52.3992 35.9019 L 52.3992 32.2072 L 48.6865 32.2072 L 48.6865 35.9019 Z" stroke-linecap="round" />
</g>
		<g transform="matrix(1 0 0 1 -2.38 2.3)" clip-path="url(#CLIPPATH_6)"  >
<clipPath id="CLIPPATH_6" >
	<rect transform="matrix(1 0 0 1 2.38 -2.3)" id="clip0_1_3020" x="-39" y="-42" rx="0" ry="0" width="78" height="84" />
</clipPath>
<path style="stroke: none; stroke-width: 1; stroke-dasharray: none; stroke-linecap: butt; stroke-dashoffset: 0; stroke-linejoin: miter; stroke-miterlimit: 4; fill: rgb(230,230,230); fill-rule: nonzero; opacity: 1;" vector-effect="non-scaling-stroke"  transform=" translate(-36.62, -44.3)" d="M 0 82.673 L 0 5.92502 C 0.000366496 5.59108 0.133832 5.27093 0.371114 5.0348 C 0.608395 4.79866 0.930113 4.66585 1.26568 4.66548 L 71.9749 4.66548 C 72.3105 4.66585 72.6322 4.79866 72.8695 5.0348 C 73.1068 5.27093 73.2402 5.59108 73.2406 5.92502 L 73.2406 82.673 C 73.2402 83.0069 73.1068 83.3271 72.8695 83.5632 C 72.6322 83.7993 72.3105 83.9322 71.9749 83.9325 L 1.26568 83.9325 C 0.930113 83.9322 0.608395 83.7993 0.371114 83.5632 C 0.133832 83.3271 0.000366496 83.0069 0 82.673 Z M 1.26568 5.1693 C 1.06434 5.16952 0.871309 5.24921 0.72894 5.39089 C 0.586572 5.53256 0.506491 5.72466 0.506271 5.92502 L 0.506271 82.673 C 0.506491 82.8733 0.586572 83.0654 0.72894 83.2071 C 0.871309 83.3488 1.06434 83.4285 1.26568 83.4287 L 71.9749 83.4287 C 72.1763 83.4285 72.3693 83.3488 72.5117 83.2071 C 72.654 83.0654 72.7341 82.8733 72.7343 82.673 L 72.7343 5.92502 C 72.7341 5.72466 72.654 5.53256 72.5117 5.39089 C 72.3693 5.24921 72.1763 5.16952 71.9749 5.1693 L 1.26568 5.1693 Z" stroke-linecap="round" />
</g>
		<g transform="matrix(1 0 0 1 -2.38 32.05)" clip-path="url(#CLIPPATH_7)"  >
<clipPath id="CLIPPATH_7" >
	<rect transform="matrix(1 0 0 1 2.38 -32.05)" id="clip0_1_3020" x="-39" y="-42" rx="0" ry="0" width="78" height="84" />
</clipPath>
<path style="stroke: none; stroke-width: 1; stroke-dasharray: none; stroke-linecap: butt; stroke-dashoffset: 0; stroke-linejoin: miter; stroke-miterlimit: 4; fill: rgb(230,230,230); fill-rule: nonzero; opacity: 1;" vector-effect="non-scaling-stroke"  transform=" translate(-36.62, -74.05)" d="M 22.6396 70.4717 C 21.685 70.4717 20.7696 70.849 20.0947 71.5207 C 19.4197 72.1924 19.0406 73.1034 19.0406 74.0532 C 19.0406 75.0031 19.4197 75.9141 20.0947 76.5858 C 20.7696 77.2575 21.685 77.6348 22.6396 77.6348 L 50.6011 77.6348 C 51.5556 77.6348 52.471 77.2575 53.146 76.5858 C 53.8209 75.9141 54.2001 75.0031 54.2001 74.0532 C 54.2001 73.1034 53.8209 72.1924 53.146 71.5207 C 52.471 70.849 51.5556 70.4717 50.6011 70.4717 L 22.6396 70.4717 Z" stroke-linecap="round" />
</g>
		<g transform="matrix(1 0 0 1 0.91 -0.64)" clip-path="url(#CLIPPATH_8)"  >
<clipPath id="CLIPPATH_8" >
	<rect transform="matrix(1 0 0 1 -0.91 0.64)" id="clip0_1_3020" x="-39" y="-42" rx="0" ry="0" width="78" height="84" />
</clipPath>
<path style="stroke: none; stroke-width: 1; stroke-dasharray: none; stroke-linecap: butt; stroke-dashoffset: 0; stroke-linejoin: miter; stroke-miterlimit: 4; fill: rgb(63,61,86); fill-rule: nonzero; opacity: 1;" vector-effect="non-scaling-stroke"  transform=" translate(-39.91, -41.36)" d="M 18.6476 57.566 L 18.6476 25.1539 C 18.648 24.8422 18.7726 24.5434 18.994 24.323 C 19.2155 24.1026 19.5158 23.9787 19.8289 23.9783 L 59.9932 23.9783 C 60.3063 23.9787 60.6066 24.1026 60.8281 24.323 C 61.0495 24.5434 61.1741 24.8422 61.1745 25.1539 L 61.1745 57.566 C 61.1741 57.8777 61.0495 58.1765 60.8281 58.3969 C 60.6066 58.6173 60.3063 58.7412 59.9932 58.7416 L 19.8289 58.7416 C 19.5158 58.7412 19.2155 58.6172 18.9941 58.3969 C 18.7726 58.1765 18.648 57.8777 18.6476 57.566 Z M 19.8289 24.3142 C 19.6052 24.3144 19.3908 24.403 19.2326 24.5604 C 19.0744 24.7178 18.9854 24.9312 18.9852 25.1539 L 18.9852 57.566 C 18.9854 57.7886 19.0744 58.0021 19.2326 58.1595 C 19.3908 58.3169 19.6052 58.4055 19.8289 58.4057 L 59.9932 58.4057 C 60.2169 58.4055 60.4313 58.3169 60.5895 58.1595 C 60.7477 58.0021 60.8367 57.7886 60.8369 57.566 L 60.8369 25.1539 C 60.8367 24.9313 60.7477 24.7178 60.5895 24.5604 C 60.4313 24.403 60.2169 24.3144 59.9932 24.3142 L 19.8289 24.3142 Z" stroke-linecap="round" />
</g>
		<g transform="matrix(1 0 0 1 -5.67 5.24)" clip-path="url(#CLIPPATH_9)"  >
<clipPath id="CLIPPATH_9" >
	<rect transform="matrix(1 0 0 1 5.67 -5.24)" id="clip0_1_3020" x="-39" y="-42" rx="0" ry="0" width="78" height="84" />
</clipPath>
<path style="stroke: none; stroke-width: 1; stroke-dasharray: none; stroke-linecap: butt; stroke-dashoffset: 0; stroke-linejoin: miter; stroke-miterlimit: 4; fill: rgb(33,184,249); fill-rule: nonzero; opacity: 1;" vector-effect="non-scaling-stroke"  transform=" translate(-33.33, -47.24)" d="M 12.0661 63.4439 L 12.0661 31.0317 C 12.0665 30.7201 12.1911 30.4213 12.4125 30.2009 C 12.634 29.9805 12.9342 29.8565 13.2474 29.8562 L 53.4116 29.8562 C 53.7248 29.8565 54.0251 29.9805 54.2465 30.2009 C 54.468 30.4213 54.5926 30.7201 54.5929 31.0317 L 54.5929 63.4439 C 54.5926 63.7556 54.468 64.0544 54.2465 64.2747 C 54.0251 64.4951 53.7248 64.6191 53.4116 64.6195 L 13.2474 64.6195 C 12.9342 64.6191 12.634 64.4951 12.4125 64.2747 C 12.1911 64.0544 12.0665 63.7556 12.0661 63.4439 Z" stroke-linecap="round" />
</g>
		<g transform="matrix(1 0 0 1 0.04 6.11)" clip-path="url(#CLIPPATH_10)"  >
<clipPath id="CLIPPATH_10" >
	<rect transform="matrix(1 0 0 1 -0.04 -6.11)" id="clip0_1_3020" x="-39" y="-42" rx="0" ry="0" width="78" height="84" />
</clipPath>
<path style="stroke: none; stroke-width: 1; stroke-dasharray: none; stroke-linecap: butt; stroke-dashoffset: 0; stroke-linejoin: miter; stroke-miterlimit: 4; fill: rgb(255,255,255); fill-rule: nonzero; opacity: 1;" vector-effect="non-scaling-stroke"  transform=" translate(-39.04, -48.11)" d="M 28.7473 56.6425 L 49.2522 56.6425 C 49.2779 56.6428 49.3035 56.6408 49.3288 56.6364 L 39.6309 39.9198 C 39.5718 39.8157 39.4859 39.7291 39.382 39.6688 C 39.2782 39.6086 39.1601 39.5768 39.0399 39.5768 C 38.9197 39.5768 38.8017 39.6086 38.6979 39.6688 C 38.594 39.7291 38.5081 39.8157 38.449 39.9198 L 31.9405 51.1379 L 31.6287 51.6747 L 28.7473 56.6425 Z" stroke-linecap="round" />
</g>
		<g transform="matrix(1 0 0 1 -6.75 11.89)" clip-path="url(#CLIPPATH_11)"  >
<clipPath id="CLIPPATH_11" >
	<rect transform="matrix(1 0 0 1 6.75 -11.89)" id="clip0_1_3020" x="-39" y="-42" rx="0" ry="0" width="78" height="84" />
</clipPath>
<path style="stroke: none; stroke-width: 1; stroke-dasharray: none; stroke-linecap: butt; stroke-dashoffset: 0; stroke-linejoin: miter; stroke-miterlimit: 4; fill: rgb(16,59,102); fill-rule: nonzero; opacity: 0.2;" vector-effect="non-scaling-stroke"  transform=" translate(-32.25, -53.89)" d="M 28.7473 56.6423 L 35.7481 56.6423 L 32.3113 51.6747 L 32.064 51.3167 L 31.9404 51.1378 L 31.6286 51.6747 L 28.7473 56.6423 Z" stroke-linecap="round" />
</g>
		<g transform="matrix(1 0 0 1 -12.8 8.57)" clip-path="url(#CLIPPATH_12)"  >
<clipPath id="CLIPPATH_12" >
	<rect transform="matrix(1 0 0 1 12.8 -8.57)" id="clip0_1_3020" x="-39" y="-42" rx="0" ry="0" width="78" height="84" />
</clipPath>
<path style="stroke: none; stroke-width: 1; stroke-dasharray: none; stroke-linecap: butt; stroke-dashoffset: 0; stroke-linejoin: miter; stroke-miterlimit: 4; fill: rgb(255,255,255); fill-rule: nonzero; opacity: 1;" vector-effect="non-scaling-stroke"  transform=" translate(-26.2, -50.57)" d="M 17.3303 56.6423 L 35.0653 56.6423 L 31.6286 51.6746 L 31.3813 51.3167 L 26.903 44.8428 C 26.6094 44.4185 25.903 44.3921 25.5579 44.7628 C 25.5347 44.7881 25.5131 44.8148 25.4934 44.8428 L 17.3303 56.6423 Z" stroke-linecap="round" />
</g>
		<g transform="matrix(1 0 0 1 -8.3 -1.14)" clip-path="url(#CLIPPATH_13)"  >
<clipPath id="CLIPPATH_13" >
	<rect transform="matrix(1 0 0 1 8.3 1.14)" id="clip0_1_3020" x="-39" y="-42" rx="0" ry="0" width="78" height="84" />
</clipPath>
<path style="stroke: none; stroke-width: 1; stroke-dasharray: none; stroke-linecap: butt; stroke-dashoffset: 0; stroke-linejoin: miter; stroke-miterlimit: 4; fill: rgb(255,255,255); fill-rule: nonzero; opacity: 1;" vector-effect="non-scaling-stroke"  transform=" translate(-30.7, -40.86)" d="M 30.6969 43.879 C 32.3746 43.879 33.7346 42.5256 33.7346 40.8561 C 33.7346 39.1866 32.3746 37.8332 30.6969 37.8332 C 29.0193 37.8332 27.6593 39.1866 27.6593 40.8561 C 27.6593 42.5256 29.0193 43.879 30.6969 43.879 Z" stroke-linecap="round" />
</g>
		<g transform="matrix(1 0 0 1 -2.4 -28.53)" clip-path="url(#CLIPPATH_14)"  >
<clipPath id="CLIPPATH_14" >
	<rect transform="matrix(1 0 0 1 2.4 28.53)" id="clip0_1_3020" x="-39" y="-42" rx="0" ry="0" width="78" height="84" />
</clipPath>
<path style="stroke: none; stroke-width: 1; stroke-dasharray: none; stroke-linecap: butt; stroke-dashoffset: 0; stroke-linejoin: miter; stroke-miterlimit: 4; fill: rgb(63,61,86); fill-rule: nonzero; opacity: 1;" vector-effect="non-scaling-stroke"  transform=" translate(-36.6, -13.47)" d="M 49.1946 12.4742 C 49.4579 12.4785 49.7089 12.5856 49.8936 12.7724 C 50.0782 12.9592 50.1817 13.2107 50.1817 13.4728 C 50.1817 13.7348 50.0782 13.9864 49.8936 14.1732 C 49.7089 14.36 49.4579 14.467 49.1946 14.4713 L 24.0353 14.4713 C 23.7692 14.4757 23.5122 14.3747 23.321 14.1905 C 23.1297 14.0063 23.0198 13.754 23.0154 13.4892 C 23.0111 13.2243 23.1126 12.9686 23.2977 12.7783 C 23.4828 12.5879 23.7363 12.4786 24.0024 12.4742 C 24.0134 12.474 24.0244 12.474 24.0353 12.4742 L 49.1946 12.4742 Z" stroke-linecap="round" />
</g>
		<g transform="matrix(1 0 0 1 15.95 -28.49)" clip-path="url(#CLIPPATH_15)"  >
<clipPath id="CLIPPATH_15" >
	<rect transform="matrix(1 0 0 1 -15.95 28.49)" id="clip0_1_3020" x="-39" y="-42" rx="0" ry="0" width="78" height="84" />
</clipPath>
<path style="stroke: none; stroke-width: 1; stroke-dasharray: none; stroke-linecap: butt; stroke-dashoffset: 0; stroke-linejoin: miter; stroke-miterlimit: 4; fill: rgb(230,230,230); fill-rule: nonzero; opacity: 1;" vector-effect="non-scaling-stroke"  transform=" translate(-54.95, -13.51)" d="M 54.9107 12.1962 C 54.8924 12.2145 54.8778 12.2361 54.8679 12.26 C 54.858 12.2838 54.8529 12.3093 54.8529 12.3352 C 54.8529 12.361 54.858 12.3865 54.8679 12.4104 C 54.8778 12.4342 54.8924 12.4559 54.9107 12.4741 L 55.7583 13.3176 L 53.6682 13.3176 C 53.6422 13.3176 53.6164 13.3226 53.5924 13.3324 C 53.5684 13.3423 53.5466 13.3567 53.5282 13.375 C 53.5098 13.3932 53.4952 13.4149 53.4852 13.4388 C 53.4753 13.4627 53.4702 13.4883 53.4702 13.5141 C 53.4702 13.54 53.4753 13.5656 53.4852 13.5895 C 53.4952 13.6133 53.5098 13.635 53.5282 13.6533 C 53.5466 13.6715 53.5684 13.686 53.5924 13.6958 C 53.6164 13.7057 53.6422 13.7107 53.6682 13.7106 L 55.7583 13.7106 L 54.9107 14.5542 C 54.8923 14.5724 54.8778 14.5941 54.8678 14.6179 C 54.8579 14.6418 54.8527 14.6673 54.8527 14.6932 C 54.8527 14.719 54.8578 14.7446 54.8677 14.7684 C 54.8776 14.7923 54.8922 14.814 54.9105 14.8322 C 54.9289 14.8505 54.9507 14.865 54.9747 14.8748 C 54.9986 14.8847 55.0243 14.8898 55.0503 14.8898 C 55.0762 14.8898 55.1019 14.8846 55.1259 14.8747 C 55.1499 14.8648 55.1716 14.8503 55.1899 14.8321 L 56.3747 13.6531 C 56.4117 13.6162 56.4325 13.5662 56.4325 13.5141 C 56.4325 13.462 56.4117 13.412 56.3747 13.3752 L 55.1899 12.1962 C 55.1716 12.178 55.1499 12.1635 55.1259 12.1536 C 55.1019 12.1437 55.0763 12.1387 55.0503 12.1387 C 55.0244 12.1387 54.9987 12.1437 54.9748 12.1536 C 54.9508 12.1635 54.929 12.178 54.9107 12.1962 Z" stroke-linecap="round" />
</g>
		<g transform="matrix(1 0 0 1 -20.71 -28.49)" clip-path="url(#CLIPPATH_16)"  >
<clipPath id="CLIPPATH_16" >
	<rect transform="matrix(1 0 0 1 20.71 28.49)" id="clip0_1_3020" x="-39" y="-42" rx="0" ry="0" width="78" height="84" />
</clipPath>
<path style="stroke: none; stroke-width: 1; stroke-dasharray: none; stroke-linecap: butt; stroke-dashoffset: 0; stroke-linejoin: miter; stroke-miterlimit: 4; fill: rgb(230,230,230); fill-rule: nonzero; opacity: 1;" vector-effect="non-scaling-stroke"  transform=" translate(-18.29, -13.51)" d="M 18.3298 12.1962 C 18.3481 12.2145 18.3627 12.2361 18.3726 12.26 C 18.3825 12.2838 18.3876 12.3093 18.3876 12.3352 C 18.3876 12.361 18.3825 12.3865 18.3726 12.4104 C 18.3627 12.4342 18.3481 12.4559 18.3298 12.4741 L 17.4821 13.3176 L 19.5723 13.3176 C 19.5983 13.3176 19.6241 13.3226 19.6481 13.3324 C 19.6721 13.3423 19.6939 13.3567 19.7123 13.375 C 19.7307 13.3932 19.7453 13.4149 19.7553 13.4388 C 19.7652 13.4627 19.7703 13.4883 19.7703 13.5141 C 19.7703 13.54 19.7652 13.5656 19.7553 13.5895 C 19.7453 13.6133 19.7307 13.635 19.7123 13.6533 C 19.6939 13.6715 19.6721 13.686 19.6481 13.6958 C 19.6241 13.7057 19.5983 13.7107 19.5723 13.7106 L 17.4821 13.7106 L 18.3298 14.5542 C 18.3482 14.5724 18.3627 14.5941 18.3727 14.6179 C 18.3826 14.6418 18.3878 14.6673 18.3878 14.6932 C 18.3878 14.719 18.3827 14.7446 18.3728 14.7684 C 18.3628 14.7923 18.3483 14.814 18.3299 14.8322 C 18.3116 14.8505 18.2898 14.865 18.2658 14.8748 C 18.2419 14.8847 18.2162 14.8898 18.1902 14.8898 C 18.1643 14.8898 18.1386 14.8846 18.1146 14.8747 C 18.0906 14.8648 18.0689 14.8503 18.0505 14.8321 L 16.8658 13.6531 C 16.8288 13.6162 16.808 13.5662 16.808 13.5141 C 16.808 13.462 16.8288 13.412 16.8658 13.3752 L 18.0505 12.1962 C 18.0689 12.178 18.0906 12.1635 18.1146 12.1536 C 18.1386 12.1437 18.1642 12.1387 18.1902 12.1387 C 18.2161 12.1387 18.2418 12.1437 18.2657 12.1536 C 18.2897 12.1635 18.3114 12.178 18.3298 12.1962 Z" stroke-linecap="round" />
</g>
		<g transform="matrix(1 0 0 1 33.09 -36.24)" clip-path="url(#CLIPPATH_17)"  >
<clipPath id="CLIPPATH_17" >
	<rect transform="matrix(1 0 0 1 -33.09 36.24)" id="clip0_1_3020" x="-39" y="-42" rx="0" ry="0" width="78" height="84" />
</clipPath>
<path style="stroke: none; stroke-width: 1; stroke-dasharray: none; stroke-linecap: butt; stroke-dashoffset: 0; stroke-linejoin: miter; stroke-miterlimit: 4; fill: rgb(33,184,249); fill-rule: nonzero; opacity: 1;" vector-effect="non-scaling-stroke"  transform=" translate(-72.09, -5.76)" d="M 66.3014 5.75565 C 66.3014 4.61728 66.6406 3.50448 67.2761 2.55796 C 67.9117 1.61145 68.8149 0.873729 69.8718 0.438096 C 70.9286 0.00246261 72.0915 -0.111518 73.2135 0.110566 C 74.3354 0.33265 75.366 0.880824 76.1748 1.68577 C 76.9837 2.49072 77.5345 3.51628 77.7577 4.63277 C 77.9809 5.74926 77.8663 6.90654 77.4286 7.95825 C 76.9908 9.00996 76.2495 9.90887 75.2984 10.5413 C 74.3473 11.1738 73.229 11.5113 72.0851 11.5113 C 70.5517 11.5096 69.0816 10.9026 67.9973 9.82362 C 66.913 8.74459 66.3031 7.28162 66.3014 5.75565 Z" stroke-linecap="round" />
</g>
		<g transform="matrix(1 0 0 1 33.08 -36.25)" clip-path="url(#CLIPPATH_18)"  >
<clipPath id="CLIPPATH_18" >
	<rect transform="matrix(1 0 0 1 -33.08 36.25)" id="clip0_1_3020" x="-39" y="-42" rx="0" ry="0" width="78" height="84" />
</clipPath>
<path style="stroke: none; stroke-width: 1; stroke-dasharray: none; stroke-linecap: butt; stroke-dashoffset: 0; stroke-linejoin: miter; stroke-miterlimit: 4; fill: rgb(255,255,255); fill-rule: nonzero; opacity: 1;" vector-effect="non-scaling-stroke"  transform=" translate(-72.08, -5.75)" d="M 69.803 5.18796 L 71.5146 5.18796 L 71.5146 3.48468 C 71.5145 3.41004 71.5292 3.33611 71.5578 3.26712 C 71.5864 3.19813 71.6284 3.13543 71.6814 3.08261 C 71.7344 3.02979 71.7973 2.98788 71.8666 2.95929 C 71.9359 2.9307 72.0101 2.91599 72.0851 2.91599 C 72.1601 2.91599 72.2344 2.9307 72.3037 2.95929 C 72.373 2.98788 72.4359 3.02979 72.4889 3.08261 C 72.5419 3.13543 72.5839 3.19813 72.6125 3.26712 C 72.6411 3.33611 72.6558 3.41004 72.6557 3.48468 L 72.6557 5.18796 L 74.3673 5.18796 C 74.5184 5.18831 74.6631 5.24827 74.7698 5.35471 C 74.8766 5.46115 74.9365 5.60536 74.9365 5.75572 C 74.9365 5.90607 74.8766 6.05029 74.7698 6.15672 C 74.6631 6.26316 74.5184 6.32313 74.3673 6.32348 L 72.6557 6.32348 L 72.6557 8.02677 C 72.6554 8.17719 72.5952 8.32136 72.4882 8.42764 C 72.3813 8.53392 72.2363 8.59361 72.0851 8.59361 C 71.934 8.59361 71.789 8.53392 71.682 8.42764 C 71.5751 8.32136 71.5149 8.17719 71.5146 8.02677 L 71.5146 6.32349 L 69.803 6.32349 C 69.728 6.32366 69.6537 6.3091 69.5843 6.28064 C 69.5149 6.25219 69.4519 6.21039 69.3988 6.15766 C 69.3456 6.10492 69.3035 6.04227 69.2748 5.9733 C 69.246 5.90433 69.2312 5.8304 69.2312 5.75573 C 69.2312 5.68106 69.246 5.60712 69.2748 5.53815 C 69.3035 5.46919 69.3456 5.40654 69.3988 5.3538 C 69.4519 5.30106 69.5149 5.25927 69.5843 5.23081 C 69.6537 5.20235 69.728 5.1878 69.803 5.18797 L 69.803 5.18796 Z" stroke-linecap="round" />
</g>
</g>
</g>
</svg>