<?xml version="1.0" encoding="UTF-8" standalone="no" ?>
<!DOCTYPE svg PUBLIC "-//W3C//DTD SVG 1.1//EN" "http://www.w3.org/Graphics/SVG/1.1/DTD/svg11.dtd">
<svg xmlns="http://www.w3.org/2000/svg" xmlns:xlink="http://www.w3.org/1999/xlink" version="1.1" width="1080" height="1080" viewBox="0 0 1080 1080" xml:space="preserve">
<desc>Created with Fabric.js 5.2.4</desc>
<defs>
</defs>
<g transform="matrix(1 0 0 1 540 540)" id="38999e4c-7fa3-48e1-9ec4-b3bf0cf3128e"  >
<rect style="stroke: none; stroke-width: 1; stroke-dasharray: none; stroke-linecap: butt; stroke-dashoffset: 0; stroke-linejoin: miter; stroke-miterlimit: 4; fill: rgb(255,255,255); fill-rule: nonzero; opacity: 1; visibility: hidden;" vector-effect="non-scaling-stroke"  x="-540" y="-540" rx="0" ry="0" width="1080" height="1080" />
</g>
<g transform="matrix(1 0 0 1 540 540)" id="f0e1eb4e-fafe-4b31-8176-6afd56cc5f8e"  >
</g>
<g transform="matrix(11.87 0 0 11.87 540 540)"  >
<g style=""   >
		<g transform="matrix(1 0 0 1 9.42 -14.4)" clip-path="url(#CLIPPATH_3)"  >
<clipPath id="CLIPPATH_3" >
	<rect transform="matrix(1 0 0 1 -9.42 14.4)" id="clip0_1_2985" x="-45" y="-42" rx="0" ry="0" width="90" height="84" />
</clipPath>
<path style="stroke: none; stroke-width: 1; stroke-dasharray: none; stroke-linecap: butt; stroke-dashoffset: 0; stroke-linejoin: miter; stroke-miterlimit: 4; fill: rgb(242,242,242); fill-rule: nonzero; opacity: 1;" vector-effect="non-scaling-stroke"  transform=" translate(-54.92, -27.6)" d="M 84.5175 49.8689 C 86.3174 45.2356 87.0519 40.2423 86.6643 35.2736 C 86.2767 30.3048 84.7774 25.4932 82.2819 21.2092 L 31.3187 28.4142 L 80.1577 18.0216 C 77.1863 14.0717 73.3646 10.8731 68.9883 8.67317 C 64.6121 6.47327 59.7987 5.33116 54.9208 5.33525 C 37.3338 5.33525 23.0766 19.8925 23.0766 37.8498 C 23.077 39.334 23.176 40.8163 23.373 42.2868 L 84.5175 49.8689 Z" stroke-linecap="round" />
</g>
		<g transform="matrix(1 0 0 1 8.96 17.96)" clip-path="url(#CLIPPATH_4)"  >
<clipPath id="CLIPPATH_4" >
	<rect transform="matrix(1 0 0 1 -8.96 -17.96)" id="clip0_1_2985" x="-45" y="-42" rx="0" ry="0" width="90" height="84" />
</clipPath>
<path style="stroke: none; stroke-width: 1; stroke-dasharray: none; stroke-linecap: butt; stroke-dashoffset: 0; stroke-linejoin: miter; stroke-miterlimit: 4; fill: rgb(242,242,242); fill-rule: nonzero; opacity: 1;" vector-effect="non-scaling-stroke"  transform=" translate(-54.46, -59.96)" d="M 25.2052 49.5564 C 29.808 61.7289 41.376 70.3644 54.9209 70.3644 C 67.6308 70.3644 78.6001 62.7606 83.7073 51.766 L 25.2052 49.5564 Z" stroke-linecap="round" />
</g>
		<g transform="matrix(1 0 0 1 -3.79 9.7)" clip-path="url(#CLIPPATH_5)"  >
<clipPath id="CLIPPATH_5" >
	<rect transform="matrix(1 0 0 1 3.79 -9.7)" id="clip0_1_2985" x="-45" y="-42" rx="0" ry="0" width="90" height="84" />
</clipPath>
<path style="stroke: none; stroke-width: 1; stroke-dasharray: none; stroke-linecap: butt; stroke-dashoffset: 0; stroke-linejoin: miter; stroke-miterlimit: 4; fill: rgb(33,184,249); fill-rule: nonzero; opacity: 1;" vector-effect="non-scaling-stroke"  transform=" translate(-41.71, -51.7)" d="M 82.9203 60.8649 C 82.9203 73.6425 64.4694 84 41.7101 84 C 29.4832 84 18.5001 81.0112 10.9536 76.2628 C 6.02965 73.1656 2.56801 69.3187 1.17934 65.0676 C 0.73117 63.7136 0.501724 62.2941 0.5 60.8649 C 0.5 48.0886 34.6507 -9.54383 41.7101 37.7311 C 48.7696 85.006 82.9203 48.0886 82.9203 60.8649 Z" stroke-linecap="round" />
</g>
		<g transform="matrix(1 0 0 1 -13.82 27.25)" clip-path="url(#CLIPPATH_6)"  >
<clipPath id="CLIPPATH_6" >
	<rect transform="matrix(1 0 0 1 13.82 -27.25)" id="clip0_1_2985" x="-45" y="-42" rx="0" ry="0" width="90" height="84" />
</clipPath>
<path style="stroke: none; stroke-width: 1; stroke-dasharray: none; stroke-linecap: butt; stroke-dashoffset: 0; stroke-linejoin: miter; stroke-miterlimit: 4; fill: rgb(16,59,102); fill-rule: nonzero; opacity: 0.1;" vector-effect="non-scaling-stroke"  transform=" translate(-31.68, -69.25)" d="M 62.1904 69.255 C 62.1904 73.9728 47.5982 77.798 29.5969 77.798 C 22.6636 77.798 16.2361 77.2306 10.9537 76.2628 C 6.02969 73.1656 2.56804 69.3187 1.17938 65.0676 C 6.76772 62.4677 17.3999 60.7119 29.5969 60.7119 C 47.5982 60.7119 62.1904 64.5371 62.1904 69.255 Z" stroke-linecap="round" />
</g>
		<g transform="matrix(1 0 0 1 -15.4 21.22)" clip-path="url(#CLIPPATH_7)"  >
<clipPath id="CLIPPATH_7" >
	<rect transform="matrix(1 0 0 1 15.4 -21.22)" id="clip0_1_2985" x="-45" y="-42" rx="0" ry="0" width="90" height="84" />
</clipPath>
<path style="stroke: none; stroke-width: 1; stroke-dasharray: none; stroke-linecap: butt; stroke-dashoffset: 0; stroke-linejoin: miter; stroke-miterlimit: 4; fill: rgb(47,46,65); fill-rule: nonzero; opacity: 1;" vector-effect="non-scaling-stroke"  transform=" translate(-30.1, -63.22)" d="M 21.7672 59.6214 C 21.6714 60.1078 21.6005 60.6023 21.4377 61.0697 C 21.276 61.5338 21.0265 61.963 20.8787 62.4319 C 20.4076 63.9264 21.0607 65.5928 22.1038 66.7465 C 23.0083 67.7429 24.1759 68.4508 25.4657 68.7848 C 26.4066 69.0264 27.3851 69.0612 28.3548 69.0948 C 31.04 69.1878 33.7944 69.2709 36.3388 68.3898 C 37.1427 68.1046 37.9191 67.7444 38.6584 67.3138 C 38.8918 67.2003 39.0974 67.035 39.2602 66.83 C 39.4543 66.5479 39.4791 66.182 39.4774 65.8373 C 39.4717 64.675 39.241 63.5186 39.2957 62.3576 C 39.3261 61.7145 39.444 61.072 39.386 60.4309 C 39.2544 58.977 38.1236 57.6757 36.7255 57.3692 C 36.0037 57.2109 35.2551 57.2971 34.5202 57.3693 C 32.6127 57.5564 30.6971 57.6439 28.7808 57.6313 C 26.8229 57.6186 24.8771 57.3134 22.9289 57.2815 C 22.3528 57.2721 22.3644 57.4534 22.181 58.0228 C 22.012 58.5468 21.8739 59.0806 21.7672 59.6214 Z" stroke-linecap="round" />
</g>
		<g transform="matrix(1 0 0 1 -16.06 -15.88)" clip-path="url(#CLIPPATH_8)"  >
<clipPath id="CLIPPATH_8" >
	<rect transform="matrix(1 0 0 1 16.06 15.88)" id="clip0_1_2985" x="-45" y="-42" rx="0" ry="0" width="90" height="84" />
</clipPath>
<path style="stroke: none; stroke-width: 1; stroke-dasharray: none; stroke-linecap: butt; stroke-dashoffset: 0; stroke-linejoin: miter; stroke-miterlimit: 4; fill: rgb(47,46,65); fill-rule: nonzero; opacity: 1;" vector-effect="non-scaling-stroke"  transform=" translate(-29.44, -26.12)" d="M 38.6634 20.5938 C 36.0803 16.1373 30.9699 15.9297 30.9699 15.9297 C 30.9699 15.9297 25.9901 15.2794 22.7956 22.0667 C 19.8181 28.393 15.7087 34.5012 22.134 35.9821 L 23.2946 32.2937 L 24.0134 36.2567 C 24.9282 36.3239 25.846 36.3399 26.7626 36.3047 C 33.6436 36.0778 40.1967 36.371 39.9857 33.8499 C 39.7052 30.4983 41.1488 24.8818 38.6634 20.5938 Z" stroke-linecap="round" />
</g>
		<g transform="matrix(1 0 0 1 -15.06 -6.8)" clip-path="url(#CLIPPATH_9)"  >
<clipPath id="CLIPPATH_9" >
	<rect transform="matrix(1 0 0 1 15.06 6.8)" id="clip0_1_2985" x="-45" y="-42" rx="0" ry="0" width="90" height="84" />
</clipPath>
<path style="stroke: none; stroke-width: 1; stroke-dasharray: none; stroke-linecap: butt; stroke-dashoffset: 0; stroke-linejoin: miter; stroke-miterlimit: 4; fill: rgb(160,97,106); fill-rule: nonzero; opacity: 1;" vector-effect="non-scaling-stroke"  transform=" translate(-30.44, -35.2)" d="M 27.3236 30.921 C 27.2296 31.4241 27.1279 31.9455 26.8318 32.3589 C 26.4912 32.8345 25.9358 33.1063 25.5693 33.5614 C 25.0178 34.2466 24.9861 35.2107 24.9838 36.0975 C 24.9817 36.9146 24.998 37.786 25.4442 38.4642 C 25.7338 38.9043 26.1745 39.2129 26.6051 39.5092 C 28.2785 40.6607 30.0868 41.8329 32.1044 41.8708 C 32.9404 41.8866 33.8368 41.6661 34.3868 41.0232 C 34.6243 40.7212 34.811 40.381 34.9394 40.0165 C 35.4553 38.7181 35.768 37.3449 35.8661 35.9472 C 35.9121 35.2896 35.9077 34.6129 35.6897 33.9924 C 35.4446 33.2946 34.949 32.7205 34.6215 32.0589 C 34.2343 31.2722 34.0927 30.3833 34.2157 29.5119 C 34.232 29.4505 34.227 29.3853 34.2015 29.3273 C 34.1745 29.2962 34.1409 29.272 34.1033 29.2564 C 34.0656 29.2408 34.025 29.2344 33.9845 29.2375 L 29.9839 28.9434 C 29.6113 28.9245 29.2403 28.8812 28.8731 28.8137 C 28.6575 28.7689 28.0878 28.4562 27.8822 28.5393 C 27.5016 28.6933 27.4017 30.5039 27.3236 30.921 Z" stroke-linecap="round" />
</g>
		<g transform="matrix(1 0 0 1 -15.06 -6.67)" clip-path="url(#CLIPPATH_10)"  >
<clipPath id="CLIPPATH_10" >
	<rect transform="matrix(1 0 0 1 15.06 6.67)" id="clip0_1_2985" x="-45" y="-42" rx="0" ry="0" width="90" height="84" />
</clipPath>
<path style="stroke: none; stroke-width: 1; stroke-dasharray: none; stroke-linecap: butt; stroke-dashoffset: 0; stroke-linejoin: miter; stroke-miterlimit: 4; fill: rgb(16,59,102); fill-rule: nonzero; opacity: 0.1;" vector-effect="non-scaling-stroke"  transform=" translate(-30.44, -35.33)" d="M 27.3236 31.0487 C 27.2296 31.5517 27.1279 32.0732 26.8318 32.4866 C 26.4912 32.9622 25.9358 33.2339 25.5693 33.6891 C 25.0178 34.3742 24.9861 35.3383 24.9838 36.2252 C 24.9817 37.0422 24.998 37.9137 25.4442 38.5919 C 25.7338 39.032 26.1745 39.3406 26.6051 39.6369 C 28.2785 40.7884 30.0868 41.9605 32.1044 41.9985 C 32.9404 42.0142 33.8368 41.7938 34.3868 41.1509 C 34.6243 40.8489 34.811 40.5087 34.9394 40.1442 C 35.4553 38.8457 35.768 37.4725 35.8661 36.0749 C 35.9121 35.4173 35.9077 34.7406 35.6897 34.12 C 35.4446 33.4223 34.949 32.8481 34.6215 32.1866 C 34.2343 31.3999 34.0927 30.5109 34.2157 29.6395 C 34.232 29.5782 34.227 29.5129 34.2015 29.455 C 34.1745 29.4239 34.1409 29.3997 34.1033 29.3841 C 34.0656 29.3685 34.025 29.362 33.9845 29.3652 L 29.9839 29.0711 C 29.6113 29.0522 29.2403 29.0089 28.8731 28.9414 C 28.6575 28.8966 28.0878 28.5838 27.8822 28.667 C 27.5016 28.8209 27.4017 30.6316 27.3236 31.0487 Z" stroke-linecap="round" />
</g>
		<g transform="matrix(1 0 0 1 -12.43 4.66)" clip-path="url(#CLIPPATH_11)"  >
<clipPath id="CLIPPATH_11" >
	<rect transform="matrix(1 0 0 1 12.43 -4.66)" id="clip0_1_2985" x="-45" y="-42" rx="0" ry="0" width="90" height="84" />
</clipPath>
<path style="stroke: none; stroke-width: 1; stroke-dasharray: none; stroke-linecap: butt; stroke-dashoffset: 0; stroke-linejoin: miter; stroke-miterlimit: 4; fill: rgb(208,205,225); fill-rule: nonzero; opacity: 1;" vector-effect="non-scaling-stroke"  transform=" translate(-33.07, -46.66)" d="M 28.1468 38.8986 C 28.4527 39.2251 28.7768 39.5483 29.1777 39.7397 C 29.5764 39.9301 30.0256 39.9774 30.4656 39.9901 C 31.5236 40.0205 32.6706 39.8225 33.4065 39.0459 C 34.3553 38.0447 34.324 36.43 35.0677 35.2621 C 35.1276 35.1562 35.2094 35.0649 35.3073 34.9945 C 35.4321 34.9251 35.573 34.892 35.7149 34.8988 C 36.6541 34.8898 37.4722 35.5118 38.2106 36.1045 C 38.5414 36.37 38.8804 36.6451 39.089 37.0182 C 39.235 37.3091 39.335 37.6217 39.3853 37.9445 C 39.7517 39.7708 39.8704 41.6381 39.9881 43.4985 C 40.0532 44.526 40.1183 45.5546 40.1134 46.5843 C 40.0975 49.9767 39.3252 53.3124 38.5573 56.6129 C 38.4584 57.0382 38.3229 57.5136 37.9442 57.7173 C 37.7753 57.7948 37.594 57.84 37.4091 57.8506 C 35.2096 58.1144 33.0055 58.3785 30.7911 58.4133 C 29.9269 58.4269 29.0631 58.4055 28.1997 58.3492 C 28.0511 58.3472 27.9037 58.321 27.7632 58.2715 C 27.5725 58.178 27.4086 58.0359 27.2873 57.8588 C 26.0895 56.3177 26.0188 54.187 26.0264 52.2196 C 26.0452 47.4093 26.2135 42.6029 26.5314 37.8003 C 26.5577 37.4039 26.5634 36.9225 26.2836 36.6107 C 26.7873 37.434 27.4879 38.1954 28.1468 38.8986 Z" stroke-linecap="round" />
</g>
		<g transform="matrix(1 0 0 1 -14.35 -16.52)" clip-path="url(#CLIPPATH_12)"  >
<clipPath id="CLIPPATH_12" >
	<rect transform="matrix(1 0 0 1 14.35 16.52)" id="clip0_1_2985" x="-45" y="-42" rx="0" ry="0" width="90" height="84" />
</clipPath>
<path style="stroke: none; stroke-width: 1; stroke-dasharray: none; stroke-linecap: butt; stroke-dashoffset: 0; stroke-linejoin: miter; stroke-miterlimit: 4; fill: rgb(160,97,106); fill-rule: nonzero; opacity: 1;" vector-effect="non-scaling-stroke"  transform=" translate(-31.15, -25.48)" d="M 31.1494 31.4688 C 34.391 31.4688 37.0188 28.7857 37.0188 25.4759 C 37.0188 22.1661 34.391 19.483 31.1494 19.483 C 27.9079 19.483 25.2801 22.1661 25.2801 25.4759 C 25.2801 28.7857 27.9079 31.4688 31.1494 31.4688 Z" stroke-linecap="round" />
</g>
		<g transform="matrix(1 0 0 1 -21.96 2.98)" clip-path="url(#CLIPPATH_13)"  >
<clipPath id="CLIPPATH_13" >
	<rect transform="matrix(1 0 0 1 21.96 -2.98)" id="clip0_1_2985" x="-45" y="-42" rx="0" ry="0" width="90" height="84" />
</clipPath>
<path style="stroke: none; stroke-width: 1; stroke-dasharray: none; stroke-linecap: butt; stroke-dashoffset: 0; stroke-linejoin: miter; stroke-miterlimit: 4; fill: rgb(87,90,137); fill-rule: nonzero; opacity: 1;" vector-effect="non-scaling-stroke"  transform=" translate(-23.54, -44.98)" d="M 26.9036 31.9789 C 26.7054 32.3453 25.2439 33.2551 24.9617 33.5588 C 23.3853 35.2554 20.508 35.1918 19.0663 37.009 C 18.559 37.6484 18.2955 38.4517 18.1016 39.2504 C 17.8275 40.38 17.6811 41.6119 18.1403 42.677 C 18.5822 43.7019 19.5125 44.4104 20.144 45.3259 C 20.8375 46.3311 21.1493 47.5515 21.4481 48.7426 C 21.6687 49.622 21.8911 50.5233 21.8052 51.4268 C 21.7075 52.4542 21.2206 53.3949 20.9331 54.3844 C 20.6457 55.374 20.596 56.5526 21.2607 57.3303 C 21.7491 57.9016 22.515 58.1281 23.2471 58.2555 C 24.1816 58.4182 25.1313 58.4645 26.0783 58.5072 C 26.9152 58.5449 27.8378 58.5523 28.4811 58.0045 C 28.9888 57.5722 29.2094 56.8708 29.238 56.1965 C 29.2666 55.5222 29.1292 54.8539 29.0431 54.1847 C 28.9539 53.491 28.9196 52.7912 28.8909 52.0922 C 28.7622 48.9557 28.7446 45.8171 28.8382 42.6766 C 28.8577 42.0231 28.8813 41.3615 28.7449 40.7228 C 28.5654 39.8827 28.1207 39.1319 27.7497 38.3599 C 27.0132 36.8278 26.6649 35.3394 26.7787 33.6365 C 26.8911 31.9557 27.609 30.6751 26.9036 31.9789 Z" stroke-linecap="round" />
</g>
		<g transform="matrix(1 0 0 1 -24.98 23.5)" clip-path="url(#CLIPPATH_14)"  >
<clipPath id="CLIPPATH_14" >
	<rect transform="matrix(1 0 0 1 24.98 -23.5)" id="clip0_1_2985" x="-45" y="-42" rx="0" ry="0" width="90" height="84" />
</clipPath>
<path style="stroke: none; stroke-width: 1; stroke-dasharray: none; stroke-linecap: butt; stroke-dashoffset: 0; stroke-linejoin: miter; stroke-miterlimit: 4; fill: rgb(47,46,65); fill-rule: nonzero; opacity: 1;" vector-effect="non-scaling-stroke"  transform=" translate(-20.52, -65.5)" d="M 14.111 58.6767 C 13.5845 58.5416 13.0421 58.4827 12.4995 58.5018 C 11.9295 58.534 11.3726 58.6897 10.8661 58.9586 C 10.3596 59.2275 9.91488 59.6035 9.56165 60.0614 C 9.20841 60.5194 8.95471 61.0489 8.81741 61.6147 C 8.68011 62.1806 8.66236 62.7698 8.76534 63.3431 C 8.87743 63.9672 9.12925 64.5557 9.40392 65.1248 C 9.83129 66.0104 10.3439 66.8939 11.1351 67.4615 C 11.5979 67.7934 12.1336 68.0004 12.6629 68.204 L 16.8299 69.8068 C 17.4429 70.0426 18.0561 70.2785 18.6751 70.4971 C 21.7854 71.5948 25.028 72.253 28.313 72.4535 C 29.3136 72.5143 30.3293 72.5312 31.3054 72.2987 C 31.5371 72.2435 31.7842 72.1612 31.9183 71.9606 C 31.9977 71.8193 32.0445 71.6614 32.0552 71.4988 L 32.3116 69.6659 C 32.3477 69.4078 32.3825 69.1362 32.2898 68.8932 C 32.1724 68.5852 31.8779 68.3914 31.5972 68.2268 C 28.8576 66.6202 25.6589 65.7339 23.353 63.5289 C 22.8101 63.0098 22.3559 62.1869 21.6963 61.8343 C 20.9484 61.4345 20.0675 61.2063 19.2945 60.8378 C 17.6044 60.0323 15.9427 59.1067 14.111 58.6767 Z" stroke-linecap="round" />
</g>
		<g transform="matrix(1 0 0 1 -11.72 29.46)" clip-path="url(#CLIPPATH_15)"  >
<clipPath id="CLIPPATH_15" >
	<rect transform="matrix(1 0 0 1 11.72 -29.46)" id="clip0_1_2985" x="-45" y="-42" rx="0" ry="0" width="90" height="84" />
</clipPath>
<path style="stroke: none; stroke-width: 1; stroke-dasharray: none; stroke-linecap: butt; stroke-dashoffset: 0; stroke-linejoin: miter; stroke-miterlimit: 4; fill: rgb(160,97,106); fill-rule: nonzero; opacity: 1;" vector-effect="non-scaling-stroke"  transform=" translate(-33.78, -71.46)" d="M 36.6463 73.4041 C 36.7299 73.4104 36.8129 73.3855 36.8798 73.334 C 36.9092 73.2955 36.9307 73.2514 36.9433 73.2043 C 36.9558 73.1572 36.959 73.108 36.9528 73.0596 C 36.9505 72.2273 36.9482 71.3949 36.9459 70.5626 C 36.2427 70.2205 35.4561 70.1108 34.6839 70.0054 L 31.0813 69.5138 C 31.1641 69.5251 30.5181 71.0981 30.6171 71.3081 C 30.7917 71.6782 32.126 72.0063 32.5026 72.181 C 33.8116 72.7886 35.1719 73.4565 36.6463 73.4041 Z" stroke-linecap="round" />
</g>
		<g transform="matrix(1 0 0 1 -17.64 29.67)" clip-path="url(#CLIPPATH_16)"  >
<clipPath id="CLIPPATH_16" >
	<rect transform="matrix(1 0 0 1 17.64 -29.67)" id="clip0_1_2985" x="-45" y="-42" rx="0" ry="0" width="90" height="84" />
</clipPath>
<path style="stroke: none; stroke-width: 1; stroke-dasharray: none; stroke-linecap: butt; stroke-dashoffset: 0; stroke-linejoin: miter; stroke-miterlimit: 4; fill: rgb(160,97,106); fill-rule: nonzero; opacity: 1;" vector-effect="non-scaling-stroke"  transform=" translate(-27.86, -71.67)" d="M 25.3432 70.5539 C 24.663 70.6645 23.9038 70.7623 23.4633 71.3029 C 22.9047 71.9885 23.1425 73.0106 23.409 73.8599 C 23.4486 74.0317 23.528 74.1913 23.6407 74.3252 C 23.8225 74.5084 24.1012 74.5352 24.3562 74.5517 C 24.9765 74.5918 25.6367 74.6232 26.1787 74.3126 C 26.4354 74.1654 26.6475 73.9504 26.8867 73.7752 C 27.2863 73.5037 27.7257 73.2986 28.1883 73.1676 C 29.0388 72.8945 29.9142 72.7102 30.8012 72.6178 C 31.1488 72.5816 31.5034 72.5583 31.8305 72.4325 C 32.1575 72.3068 32.4604 72.0573 32.5554 71.714 C 32.6809 71.2602 32.4226 70.7975 32.1749 70.3996 C 31.8663 69.9038 31.5394 69.3818 31.0792 69.0169 C 30.408 68.4845 30.0759 68.8932 29.3997 69.2339 C 28.1199 69.8788 26.7525 70.3238 25.3432 70.5539 Z" stroke-linecap="round" />
</g>
		<g transform="matrix(1 0 0 1 -25.44 30.81)" clip-path="url(#CLIPPATH_17)"  >
<clipPath id="CLIPPATH_17" >
	<rect transform="matrix(1 0 0 1 25.44 -30.81)" id="clip0_1_2985" x="-45" y="-42" rx="0" ry="0" width="90" height="84" />
</clipPath>
<path style="stroke: none; stroke-width: 1; stroke-dasharray: none; stroke-linecap: butt; stroke-dashoffset: 0; stroke-linejoin: miter; stroke-miterlimit: 4; fill: rgb(47,46,65); fill-rule: nonzero; opacity: 1;" vector-effect="non-scaling-stroke"  transform=" translate(-20.06, -72.81)" d="M 23.5656 71.1793 L 19.2466 69.8759 C 18.7213 69.7174 18.187 69.5575 17.6393 69.5579 C 17.0916 69.5583 16.5185 69.7417 16.1633 70.1674 C 15.8283 70.5687 15.7325 71.1173 15.649 71.6376 L 15.4704 72.7507 C 15.3796 73.3163 15.2887 73.8928 15.3704 74.4599 C 15.4521 75.027 15.7356 75.5936 16.2284 75.8681 C 16.8261 76.2011 17.5586 76.0384 18.2256 75.8992 C 19.573 75.618 20.9434 75.4679 22.3186 75.451 C 22.8355 75.4447 23.3778 75.4513 23.8346 75.2041 C 24.3776 74.9103 24.7024 74.2889 24.7583 73.664 C 24.8433 72.7132 24.5329 71.4713 23.5656 71.1793 Z" stroke-linecap="round" />
</g>
		<g transform="matrix(1 0 0 1 -5.19 30.39)" clip-path="url(#CLIPPATH_18)"  >
<clipPath id="CLIPPATH_18" >
	<rect transform="matrix(1 0 0 1 5.19 -30.39)" id="clip0_1_2985" x="-45" y="-42" rx="0" ry="0" width="90" height="84" />
</clipPath>
<path style="stroke: none; stroke-width: 1; stroke-dasharray: none; stroke-linecap: butt; stroke-dashoffset: 0; stroke-linejoin: miter; stroke-miterlimit: 4; fill: rgb(47,46,65); fill-rule: nonzero; opacity: 1;" vector-effect="non-scaling-stroke"  transform=" translate(-40.31, -72.39)" d="M 38.3441 70.0436 C 38.904 69.9434 39.3981 69.6185 39.9346 69.4267 C 40.6898 69.1568 41.5081 69.1568 42.3082 69.1598 C 42.6019 69.1609 42.9147 69.1676 43.1592 69.3338 C 43.5116 69.5734 43.602 70.0528 43.6619 70.4807 C 43.7824 71.3414 43.9029 72.2021 44.0234 73.0627 C 44.0914 73.5484 44.159 74.047 44.053 74.5255 C 43.9469 75.004 43.6275 75.4653 43.1625 75.5887 C 42.5977 75.7386 42.044 75.3702 41.5108 75.1282 C 40.178 74.5234 38.6286 74.678 37.2389 74.226 C 36.981 74.1421 36.7048 74.0138 36.5996 73.7592 C 36.5521 73.6157 36.5351 73.4636 36.5499 73.313 C 36.5737 72.483 36.4022 71.3498 36.6469 70.5566 C 36.867 69.8433 37.7191 70.0436 38.3441 70.0436 Z" stroke-linecap="round" />
</g>
		<g transform="matrix(1 0 0 1 -23.78 21.38)" clip-path="url(#CLIPPATH_19)"  >
<clipPath id="CLIPPATH_19" >
	<rect transform="matrix(1 0 0 1 23.78 -21.38)" id="clip0_1_2985" x="-45" y="-42" rx="0" ry="0" width="90" height="84" />
</clipPath>
<path style="stroke: none; stroke-width: 1; stroke-dasharray: none; stroke-linecap: butt; stroke-dashoffset: 0; stroke-linejoin: miter; stroke-miterlimit: 4; fill: rgb(16,59,102); fill-rule: nonzero; opacity: 0.1;" vector-effect="non-scaling-stroke"  transform=" translate(-21.72, -63.38)" d="M 18.2712 61.1476 C 19.744 61.6188 25.9625 64.8836 27.0284 66.0235 C 26.8855 66.076 22.0381 63.3023 21.8927 63.2577 C 20.5705 62.8525 19.241 62.4447 17.9854 61.8518 C 17.7328 61.7325 16.3444 61.1718 16.4073 60.8464 C 16.4782 60.4792 18.0097 61.0639 18.2712 61.1476 Z" stroke-linecap="round" />
</g>
		<g transform="matrix(1 0 0 1 -24.95 3.91)" clip-path="url(#CLIPPATH_20)"  >
<clipPath id="CLIPPATH_20" >
	<rect transform="matrix(1 0 0 1 24.95 -3.91)" id="clip0_1_2985" x="-45" y="-42" rx="0" ry="0" width="90" height="84" />
</clipPath>
<path style="stroke: none; stroke-width: 1; stroke-dasharray: none; stroke-linecap: butt; stroke-dashoffset: 0; stroke-linejoin: miter; stroke-miterlimit: 4; fill: rgb(87,90,137); fill-rule: nonzero; opacity: 1;" vector-effect="non-scaling-stroke"  transform=" translate(-20.55, -45.91)" d="M 19.0513 39.9062 C 18.658 40.7395 18.0005 41.4495 17.7767 42.3459 C 17.6896 42.7648 17.6523 43.193 17.6655 43.621 C 17.6602 44.2662 17.6568 44.9244 17.8508 45.5384 C 17.9757 45.9337 18.1789 46.2983 18.3253 46.6858 C 18.5294 47.2272 18.6203 47.8063 18.5922 48.3857 C 18.5527 49.1884 18.2856 49.9676 18.2648 50.7711 C 18.2319 52.0346 18.8043 53.2224 19.3628 54.3504 C 19.5034 53.995 19.7183 53.6752 19.9925 53.4134 C 20.2668 53.1517 20.5938 52.9543 20.9505 52.835 C 21.3073 52.7157 21.6853 52.6775 22.0581 52.723 C 22.4309 52.7684 22.7894 52.8965 23.1086 53.0983 C 23.256 52.9593 23.2717 52.7312 23.2775 52.5265 C 23.3187 51.0606 23.3586 49.5947 23.3969 48.1288 C 23.4574 45.8616 23.515 43.5641 23.0042 41.3568 C 22.7736 40.3602 22.4147 39.3675 21.7569 38.5945 C 21.4105 38.1875 20.2346 37.1154 19.666 37.5714 C 19.4103 37.7765 19.47 38.3346 19.4295 38.6172 C 19.3684 39.064 19.2408 39.4987 19.0513 39.9062 Z" stroke-linecap="round" />
</g>
		<g transform="matrix(1 0 0 1 -7.29 3.39)" clip-path="url(#CLIPPATH_21)"  >
<clipPath id="CLIPPATH_21" >
	<rect transform="matrix(1 0 0 1 7.29 -3.39)" id="clip0_1_2985" x="-45" y="-42" rx="0" ry="0" width="90" height="84" />
</clipPath>
<path style="stroke: none; stroke-width: 1; stroke-dasharray: none; stroke-linecap: butt; stroke-dashoffset: 0; stroke-linejoin: miter; stroke-miterlimit: 4; fill: rgb(87,90,137); fill-rule: nonzero; opacity: 1;" vector-effect="non-scaling-stroke"  transform=" translate(-38.21, -45.39)" d="M 35.1456 32.1063 C 35.4475 32.4232 36.4735 32.5277 36.8576 32.7317 C 37.2105 32.9192 37.6009 33.0171 37.9831 33.1296 C 39.3841 33.5423 40.7168 34.1668 41.9367 34.9824 C 42.1902 35.1338 42.4143 35.3314 42.5979 35.5655 C 42.8128 35.8707 42.8908 36.2515 42.9636 36.62 C 43.1517 37.5712 43.3407 38.5339 43.2984 39.5034 C 43.2536 40.5325 42.95 41.5291 42.6488 42.5122 L 41.5235 46.1856 C 40.6835 48.9276 39.8382 51.6965 39.6019 54.5593 C 39.4711 56.146 39.5292 57.7429 39.775 59.3153 C 39.7997 59.4734 39.8205 59.6545 39.7182 59.7759 C 39.6441 59.8507 39.5465 59.8966 39.4427 59.9054 C 38.8995 59.9921 38.3739 59.7093 37.8818 59.4591 C 36.3778 58.6949 34.7726 58.1586 33.117 57.8672 C 33.764 56.9126 34.2631 55.862 34.597 54.7522 C 34.7865 54.0476 34.9358 53.3323 35.0441 52.6099 L 35.5676 49.5185 C 35.7595 48.3849 35.9518 47.2483 36.0166 46.0998 C 36.0562 45.6693 36.0317 45.2351 35.9438 44.812 C 35.8435 44.4039 35.6442 44.0299 35.4657 43.6507 C 34.6029 41.8183 34.1981 39.7273 34.5376 37.7239 C 34.6861 36.8472 34.9748 35.9693 34.8544 35.0881 C 34.7387 34.2408 34.859 33.5824 34.6461 32.7439 C 33.7719 29.3012 34.5775 31.5102 35.1456 32.1063 Z" stroke-linecap="round" />
</g>
		<g transform="matrix(1 0 0 1 -4.3 23.43)" clip-path="url(#CLIPPATH_22)"  >
<clipPath id="CLIPPATH_22" >
	<rect transform="matrix(1 0 0 1 4.3 -23.43)" id="clip0_1_2985" x="-45" y="-42" rx="0" ry="0" width="90" height="84" />
</clipPath>
<path style="stroke: none; stroke-width: 1; stroke-dasharray: none; stroke-linecap: butt; stroke-dashoffset: 0; stroke-linejoin: miter; stroke-miterlimit: 4; fill: rgb(47,46,65); fill-rule: nonzero; opacity: 1;" vector-effect="non-scaling-stroke"  transform=" translate(-41.2, -65.43)" d="M 47.4841 57.6373 C 48.3471 57.4163 49.2418 57.3539 50.1262 57.453 C 50.8325 57.5324 51.5602 57.7331 52.0759 58.2323 C 52.7036 58.8399 52.9053 59.7795 52.9221 60.6624 C 52.9497 62.421 52.3785 64.1349 51.306 65.5112 C 51.0441 65.8593 50.7326 66.1654 50.382 66.4194 C 50.0037 66.661 49.6005 66.8594 49.1798 67.0109 L 39.8478 70.7692 C 37.3928 71.7579 34.9291 72.7495 32.3684 73.4013 C 32.2984 73.4358 32.2223 73.4557 32.1447 73.4598 C 32.067 73.4638 31.9894 73.4519 31.9163 73.4249 C 31.8432 73.3978 31.7762 73.3561 31.7191 73.3022 C 31.662 73.2483 31.6161 73.1833 31.584 73.111 C 30.7664 71.9185 30.0804 70.6373 29.5387 69.2908 C 29.5131 69.2588 29.4953 69.221 29.487 69.1805 C 29.4787 69.14 29.4801 69.0981 29.491 69.0583 C 29.502 69.0185 29.5221 68.9819 29.5498 68.9518 C 29.5775 68.9216 29.6119 68.8987 29.6501 68.8849 L 36.2507 65.0126 C 36.7235 64.7352 37.2016 64.4539 37.5941 64.0675 C 37.8794 63.7852 38.113 63.4532 38.2839 63.087 C 38.4207 62.7952 38.4335 62.1066 38.6082 61.891 C 38.7793 61.6798 39.3647 61.6629 39.635 61.5799 C 40.0163 61.4606 40.3896 61.3165 40.7528 61.1484 C 42.2293 60.474 43.5441 59.4941 44.9595 58.7044 C 45.7534 58.2409 46.6017 57.8824 47.4841 57.6373 Z" stroke-linecap="round" />
</g>
		<g transform="matrix(1 0 0 1 -6.33 21.68)" clip-path="url(#CLIPPATH_23)"  >
<clipPath id="CLIPPATH_23" >
	<rect transform="matrix(1 0 0 1 6.33 -21.68)" id="clip0_1_2985" x="-45" y="-42" rx="0" ry="0" width="90" height="84" />
</clipPath>
<path style="stroke: none; stroke-width: 1; stroke-dasharray: none; stroke-linecap: butt; stroke-dashoffset: 0; stroke-linejoin: miter; stroke-miterlimit: 4; fill: rgb(16,59,102); fill-rule: nonzero; opacity: 0.1;" vector-effect="non-scaling-stroke"  transform=" translate(-39.17, -63.68)" d="M 43.7422 60.5293 C 42.6082 61.399 41.1399 62.1984 40.016 63.0909 C 39.6324 63.3956 33.238 67.0662 33.1476 67.5537 C 34.1962 67.7341 40.8755 62.963 41.8311 62.487 C 42.7868 62.0109 43.6339 61.3395 44.4734 60.6731 C 44.6873 60.5033 45.5939 59.9927 44.9798 59.803 C 44.6339 59.6961 43.9976 60.3555 43.7422 60.5293 Z" stroke-linecap="round" />
</g>
		<g transform="matrix(1 0 0 1 -5.4 3.97)" clip-path="url(#CLIPPATH_24)"  >
<clipPath id="CLIPPATH_24" >
	<rect transform="matrix(1 0 0 1 5.4 -3.97)" id="clip0_1_2985" x="-45" y="-42" rx="0" ry="0" width="90" height="84" />
</clipPath>
<path style="stroke: none; stroke-width: 1; stroke-dasharray: none; stroke-linecap: butt; stroke-dashoffset: 0; stroke-linejoin: miter; stroke-miterlimit: 4; fill: rgb(87,90,137); fill-rule: nonzero; opacity: 1;" vector-effect="non-scaling-stroke"  transform=" translate(-40.1, -45.97)" d="M 43.4134 37.5046 C 43.5995 38.096 43.6106 38.728 43.6143 39.3493 C 43.6218 40.6165 43.6054 41.8835 43.5649 43.1504 C 43.5442 43.7989 43.5157 44.4564 43.3231 45.0748 C 43.1961 45.4826 43.0001 45.8651 42.8689 46.2715 C 42.4758 47.4896 42.6906 48.8107 42.7243 50.0928 C 42.7481 50.5077 42.7134 50.924 42.6213 51.3289 C 42.4138 52.1237 41.8563 52.7659 41.4672 53.4861 C 41.0976 54.17 40.8746 54.9367 40.4332 55.5748 C 39.9918 56.2128 39.2277 56.7184 38.4871 56.5225 C 37.9259 56.3741 37.5272 55.8669 37.2514 55.3463 C 36.6495 54.2017 36.4437 52.8832 36.6672 51.6042 C 36.9441 50.0482 37.8393 48.6677 38.1621 47.1209 C 38.6054 44.9968 37.9317 42.8049 37.9517 40.6333 C 37.9426 40.2928 37.9878 39.9532 38.0856 39.6276 C 38.2549 39.1315 38.6186 38.7354 38.9546 38.3375 C 39.3745 37.8404 39.7645 37.3177 40.1226 36.7725 C 40.3631 36.4062 40.6898 35.4641 41.1162 35.3858 C 42.0683 35.2109 43.1772 36.7535 43.4134 37.5046 Z" stroke-linecap="round" />
</g>
		<g transform="matrix(1 0 0 1 -14.59 -1.8)" clip-path="url(#CLIPPATH_25)"  >
<clipPath id="CLIPPATH_25" >
	<rect transform="matrix(1 0 0 1 14.59 1.8)" id="clip0_1_2985" x="-45" y="-42" rx="0" ry="0" width="90" height="84" />
</clipPath>
<path style="stroke: none; stroke-width: 1; stroke-dasharray: none; stroke-linecap: butt; stroke-dashoffset: 0; stroke-linejoin: miter; stroke-miterlimit: 4; fill: rgb(63,61,86); fill-rule: nonzero; opacity: 1;" vector-effect="non-scaling-stroke"  transform=" translate(-30.91, -40.2)" d="M 35.9393 32.1907 L 25.9849 32.1907 C 25.5805 32.1907 25.1926 32.3547 24.9067 32.6467 C 24.6207 32.9387 24.46 33.3347 24.46 33.7477 L 24.46 34.3178 L 24.3519 34.3178 L 24.3519 35.5929 L 24.46 35.5929 L 24.46 36.4855 L 24.3519 36.4855 L 24.3519 37.2505 L 24.46 37.2505 L 24.46 46.6588 C 24.46 47.0717 24.6207 47.4678 24.9067 47.7598 C 25.1926 48.0517 25.5805 48.2158 25.9849 48.2158 L 35.9393 48.2158 C 36.3437 48.2158 36.7316 48.0517 37.0176 47.7598 C 37.3035 47.4678 37.4642 47.0717 37.4642 46.6588 L 37.4642 33.7477 C 37.4642 33.3347 37.3035 32.9387 37.0176 32.6467 C 36.7316 32.3547 36.3437 32.1907 35.9393 32.1907 Z" stroke-linecap="round" />
</g>
		<g transform="matrix(1 0 0 1 -21.91 7.06)" clip-path="url(#CLIPPATH_26)"  >
<clipPath id="CLIPPATH_26" >
	<rect transform="matrix(1 0 0 1 21.91 -7.06)" id="clip0_1_2985" x="-45" y="-42" rx="0" ry="0" width="90" height="84" />
</clipPath>
<path style="stroke: none; stroke-width: 1; stroke-dasharray: none; stroke-linecap: butt; stroke-dashoffset: 0; stroke-linejoin: miter; stroke-miterlimit: 4; fill: rgb(160,97,106); fill-rule: nonzero; opacity: 1;" vector-effect="non-scaling-stroke"  transform=" translate(-23.59, -49.06)" d="M 20.3722 56.7948 C 20.6217 57.1751 20.9139 57.547 21.3146 57.7521 C 21.8153 58.0085 22.4333 57.9627 22.9347 57.7078 C 23.4317 57.4357 23.8386 57.0192 24.1038 56.5109 C 24.6525 55.5216 24.7662 54.3377 24.6977 53.2029 C 24.6292 52.0681 24.3919 50.9507 24.2869 49.8188 C 24.2105 48.996 24.2043 48.1683 24.1982 47.3418 C 24.1969 47.1681 24.1996 46.981 24.3001 46.8409 C 24.4217 46.6714 24.6442 46.6247 24.8414 46.5649 C 25.9488 46.229 26.6839 45.1691 27.2108 44.1194 C 27.5627 43.4185 27.8687 42.6523 27.8009 41.8677 C 27.733 41.0831 27.1807 40.2927 26.4133 40.2127 C 25.7806 40.1467 25.1964 40.557 24.74 41.0092 C 23.5888 42.1572 22.8489 43.667 22.6392 45.2961 C 22.5391 46.0938 22.5678 46.9133 22.3553 47.6878 C 21.9015 49.3414 20.4818 50.3552 19.7743 51.8432 C 18.9948 53.4828 19.425 55.3441 20.3722 56.7948 Z" stroke-linecap="round" />
</g>
		<g transform="matrix(1 0 0 1 38.31 3.96)" clip-path="url(#CLIPPATH_27)"  >
<clipPath id="CLIPPATH_27" >
	<rect transform="matrix(1 0 0 1 -38.31 -3.96)" id="clip0_1_2985" x="-45" y="-42" rx="0" ry="0" width="90" height="84" />
</clipPath>
<path style="stroke: none; stroke-width: 1; stroke-dasharray: none; stroke-linecap: butt; stroke-dashoffset: 0; stroke-linejoin: miter; stroke-miterlimit: 4; fill: rgb(63,61,86); fill-rule: nonzero; opacity: 1;" vector-effect="non-scaling-stroke"  transform=" translate(-83.81, -45.96)" d="M 83.8098 39.1255 C 82.4866 39.1255 81.1932 39.5262 80.093 40.2768 C 78.9928 41.0274 78.1353 42.0942 77.6289 43.3424 C 77.1226 44.5906 76.9901 45.9641 77.2482 47.2892 C 77.5064 48.6143 78.1435 49.8315 79.0792 50.7868 C 80.0148 51.7421 81.2069 52.3927 82.5046 52.6563 C 83.8024 52.9199 85.1476 52.7846 86.37 52.2676 C 87.5925 51.7505 88.6374 50.875 89.3725 49.7516 C 90.1076 48.6283 90.5 47.3076 90.5 45.9565 C 90.5 45.0595 90.3269 44.1712 89.9907 43.3424 C 89.6545 42.5137 89.1617 41.7606 88.5405 41.1263 C 87.9192 40.492 87.1817 39.9888 86.37 39.6455 C 85.5584 39.3022 84.6884 39.1255 83.8098 39.1255 Z M 87.1162 44.224 C 87.1197 44.2978 87.1215 44.3734 87.1215 44.4489 C 87.1215 46.7535 85.4053 49.4108 82.2637 49.4108 C 81.3368 49.4128 80.4293 49.139 79.6524 48.6228 C 79.7875 48.6393 79.9234 48.6477 80.0595 48.648 C 80.8281 48.6493 81.5748 48.3863 82.1791 47.9013 C 81.8229 47.8945 81.4776 47.7741 81.1917 47.557 C 80.9058 47.3399 80.6935 47.0369 80.5845 46.6906 C 80.6901 46.7123 80.7975 46.7231 80.9052 46.7229 C 81.057 46.7229 81.2081 46.7023 81.3545 46.6618 C 80.9682 46.582 80.6207 46.3683 80.3712 46.0567 C 80.1217 45.7452 79.9854 45.3551 79.9855 44.9527 L 79.9855 44.9311 C 80.2226 45.0672 80.4888 45.1419 80.7607 45.1488 C 80.3988 44.9024 80.1425 44.5245 80.044 44.092 C 79.9455 43.6595 80.0121 43.2049 80.2304 42.8208 C 80.6582 43.3599 81.1925 43.8008 81.7985 44.1148 C 82.4045 44.4288 83.0685 44.6089 83.7473 44.6432 C 83.7174 44.5129 83.7026 44.3795 83.7032 44.2456 C 83.7028 43.896 83.8055 43.5544 83.9979 43.2653 C 84.1902 42.9761 84.4634 42.7527 84.7818 42.6242 C 85.1002 42.4957 85.4491 42.4681 85.7831 42.5448 C 86.1171 42.6216 86.4208 42.7992 86.6545 43.0546 C 87.0369 42.9783 87.4034 42.8353 87.7382 42.6319 C 87.6108 43.0356 87.3441 43.3784 86.9876 43.5962 C 87.3256 43.5543 87.6558 43.4615 87.9672 43.3209 C 87.7383 43.6712 87.4501 43.977 87.1162 44.224 Z" stroke-linecap="round" />
</g>
		<g transform="matrix(1 0 0 1 -14.4 -4.24)" clip-path="url(#CLIPPATH_28)"  >
<clipPath id="CLIPPATH_28" >
	<rect transform="matrix(1 0 0 1 14.4 4.24)" id="clip0_1_2985" x="-45" y="-42" rx="0" ry="0" width="90" height="84" />
</clipPath>
<path style="stroke: none; stroke-width: 1; stroke-dasharray: none; stroke-linecap: butt; stroke-dashoffset: 0; stroke-linejoin: miter; stroke-miterlimit: 4; fill: rgb(208,205,225); fill-rule: nonzero; opacity: 1;" vector-effect="non-scaling-stroke"  transform=" translate(-31.1, -37.76)" d="M 31.0954 39.0355 C 31.7851 39.0355 32.3442 38.4647 32.3442 37.7604 C 32.3442 37.0562 31.7851 36.4854 31.0954 36.4854 C 30.4057 36.4854 29.8466 37.0562 29.8466 37.7604 C 29.8466 38.4647 30.4057 39.0355 31.0954 39.0355 Z" stroke-linecap="round" />
</g>
		<g transform="matrix(1 0 0 1 -7.43 1.81)" clip-path="url(#CLIPPATH_29)"  >
<clipPath id="CLIPPATH_29" >
	<rect transform="matrix(1 0 0 1 7.43 -1.81)" id="clip0_1_2985" x="-45" y="-42" rx="0" ry="0" width="90" height="84" />
</clipPath>
<path style="stroke: none; stroke-width: 1; stroke-dasharray: none; stroke-linecap: butt; stroke-dashoffset: 0; stroke-linejoin: miter; stroke-miterlimit: 4; fill: rgb(160,97,106); fill-rule: nonzero; opacity: 1;" vector-effect="non-scaling-stroke"  transform=" translate(-38.07, -43.81)" d="M 41.2637 50.4773 C 41.1023 50.8608 40.8672 51.2074 40.5724 51.4966 C 40.2777 51.7859 39.9291 52.0118 39.5474 52.1613 C 39.0729 52.3559 38.5495 52.3886 38.0553 52.2546 C 37.8102 52.1851 37.5841 52.059 37.3945 51.8858 C 37.2049 51.7127 37.057 51.4973 36.9622 51.2563 C 36.8866 51.0136 36.8451 50.7611 36.8391 50.5065 C 36.7681 49.3913 36.7955 48.2422 37.1922 47.2007 C 37.3452 46.799 37.5515 46.4181 37.6723 46.0051 C 37.81 45.534 37.832 45.037 37.8531 44.5458 L 37.9835 41.5032 C 38.005 41.2823 37.9901 41.0593 37.9392 40.8435 C 37.8091 40.4032 37.4062 40.1171 37.0364 39.8546 C 36.1434 39.2205 35.261 38.4806 34.8283 37.4617 C 34.6959 37.1499 34.6085 36.8034 34.6757 36.4705 C 34.7977 35.8664 35.3949 35.4752 35.9851 35.3434 C 36.3713 35.2572 36.7706 35.2517 37.1589 35.3273 C 37.5472 35.4028 37.9166 35.5578 38.2447 35.783 C 38.5727 36.0082 38.8528 36.2988 39.0679 36.6374 C 39.2831 36.9761 39.4288 37.3557 39.4965 37.7533 C 39.5549 38.0967 39.5541 38.4474 39.5882 38.7942 C 39.6607 39.5297 39.8894 40.2388 40.0325 40.9635 C 40.3849 42.7485 40.2023 44.5938 40.5508 46.3785 C 40.8422 47.8708 41.9409 48.8445 41.2637 50.4773 Z" stroke-linecap="round" />
</g>
		<g transform="matrix(1 0 0 1 36.16 -21.87)" clip-path="url(#CLIPPATH_30)"  >
<clipPath id="CLIPPATH_30" >
	<rect transform="matrix(1 0 0 1 -36.16 21.87)" id="clip0_1_2985" x="-45" y="-42" rx="0" ry="0" width="90" height="84" />
</clipPath>
<path style="stroke: none; stroke-width: 1; stroke-dasharray: none; stroke-linecap: butt; stroke-dashoffset: 0; stroke-linejoin: miter; stroke-miterlimit: 4; fill: rgb(63,61,86); fill-rule: nonzero; opacity: 1;" vector-effect="non-scaling-stroke"  transform=" translate(-81.66, -20.13)" d="M 81.6586 21.339 C 82.3151 21.339 82.8474 20.7955 82.8474 20.1252 C 82.8474 19.4548 82.3151 18.9113 81.6586 18.9113 C 81.002 18.9113 80.4698 19.4548 80.4698 20.1252 C 80.4698 20.7955 81.002 21.339 81.6586 21.339 Z" stroke-linecap="round" />
</g>
		<g transform="matrix(1 0 0 1 -14.59 -20.73)" clip-path="url(#CLIPPATH_31)"  >
<clipPath id="CLIPPATH_31" >
	<rect transform="matrix(1 0 0 1 14.59 20.73)" id="clip0_1_2985" x="-45" y="-42" rx="0" ry="0" width="90" height="84" />
</clipPath>
<path style="stroke: none; stroke-width: 1; stroke-dasharray: none; stroke-linecap: butt; stroke-dashoffset: 0; stroke-linejoin: miter; stroke-miterlimit: 4; fill: rgb(47,46,65); fill-rule: nonzero; opacity: 1;" vector-effect="non-scaling-stroke"  transform=" translate(-30.91, -21.27)" d="M 37.5214 20.1641 L 32.4725 17.4638 L 25.5003 18.5685 L 24.0579 25.0738 L 27.6487 24.9327 L 28.6519 22.5428 L 28.6519 24.8934 L 30.3088 24.8283 L 31.2705 21.0234 L 31.8715 25.0738 L 37.7618 24.951 L 37.5214 20.1641 Z" stroke-linecap="round" />
</g>
		<g transform="matrix(1 0 0 1 36.16 -21.87)" clip-path="url(#CLIPPATH_32)"  >
<clipPath id="CLIPPATH_32" >
	<rect transform="matrix(1 0 0 1 -36.16 21.87)" id="clip0_1_2985" x="-45" y="-42" rx="0" ry="0" width="90" height="84" />
</clipPath>
<path style="stroke: none; stroke-width: 1; stroke-dasharray: none; stroke-linecap: butt; stroke-dashoffset: 0; stroke-linejoin: miter; stroke-miterlimit: 4; fill: rgb(63,61,86); fill-rule: nonzero; opacity: 1;" vector-effect="non-scaling-stroke"  transform=" translate(-81.66, -20.13)" d="M 83.1447 17.0905 L 80.1726 17.0905 C 79.7789 17.0917 79.4016 17.2519 79.1232 17.5362 C 78.8447 17.8205 78.6878 18.2058 78.6866 18.6078 L 78.6866 21.6424 C 78.6878 22.0444 78.8447 22.4297 79.1232 22.714 C 79.4016 22.9982 79.7789 23.1585 80.1726 23.1597 L 83.1447 23.1597 C 83.5384 23.1585 83.9157 22.9982 84.1941 22.7139 C 84.4726 22.4297 84.6295 22.0444 84.6307 21.6424 L 84.6307 18.6078 C 84.6295 18.2058 84.4726 17.8205 84.1941 17.5362 C 83.9157 17.2519 83.5384 17.0917 83.1447 17.0905 L 83.1447 17.0905 Z M 81.6586 21.9458 C 81.306 21.9458 80.9612 21.839 80.668 21.639 C 80.3747 21.4389 80.1462 21.1545 80.0112 20.8219 C 79.8762 20.4892 79.8409 20.1231 79.9097 19.7699 C 79.9785 19.4167 80.1484 19.0923 80.3977 18.8376 C 80.6471 18.583 80.9649 18.4096 81.3108 18.3393 C 81.6567 18.2691 82.0152 18.3051 82.3411 18.4429 C 82.6669 18.5807 82.9454 18.8141 83.1413 19.1135 C 83.3373 19.413 83.4419 19.765 83.4419 20.1251 C 83.4417 20.6079 83.2538 21.071 82.9194 21.4124 C 82.585 21.7538 82.1315 21.9457 81.6586 21.9458 Z M 83.5904 18.6078 C 83.5023 18.6078 83.4161 18.5811 83.3428 18.5311 C 83.2695 18.4811 83.2123 18.41 83.1786 18.3268 C 83.1448 18.2436 83.136 18.1521 83.1532 18.0638 C 83.1704 17.9755 83.2129 17.8944 83.2752 17.8307 C 83.3376 17.7671 83.417 17.7237 83.5035 17.7062 C 83.59 17.6886 83.6796 17.6976 83.7611 17.7321 C 83.8425 17.7665 83.9121 17.8249 83.9611 17.8997 C 84.0101 17.9746 84.0363 18.0626 84.0363 18.1526 C 84.0364 18.2124 84.025 18.2717 84.0026 18.327 C 83.9803 18.3823 83.9474 18.4325 83.906 18.4748 C 83.8646 18.5171 83.8154 18.5506 83.7612 18.5735 C 83.7071 18.5963 83.649 18.6079 83.5904 18.6078 L 83.5904 18.6078 Z" stroke-linecap="round" />
</g>
		<g transform="matrix(1 0 0 1 36.08 -21.81)" clip-path="url(#CLIPPATH_33)"  >
<clipPath id="CLIPPATH_33" >
	<rect transform="matrix(1 0 0 1 -36.08 21.81)" id="clip0_1_2985" x="-45" y="-42" rx="0" ry="0" width="90" height="84" />
</clipPath>
<path style="stroke: none; stroke-width: 1; stroke-dasharray: none; stroke-linecap: butt; stroke-dashoffset: 0; stroke-linejoin: miter; stroke-miterlimit: 4; fill: rgb(63,61,86); fill-rule: nonzero; opacity: 1;" vector-effect="non-scaling-stroke"  transform=" translate(-81.58, -20.19)" d="M 81.5823 12.9876 C 80.1874 12.9876 78.8238 13.41 77.664 14.2013 C 76.5041 14.9926 75.6001 16.1172 75.0663 17.4331 C 74.5325 18.749 74.3928 20.1969 74.665 21.5939 C 74.9371 22.9908 75.6088 24.2739 76.5952 25.2811 C 77.5815 26.2882 78.8382 26.9741 80.2064 27.2519 C 81.5745 27.5298 82.9926 27.3872 84.2813 26.8421 C 85.5701 26.2971 86.6716 25.3741 87.4466 24.1898 C 88.2215 23.0055 88.6352 21.6132 88.6352 20.189 C 88.6352 19.2433 88.4528 18.3068 88.0983 17.4331 C 87.7439 16.5594 87.2244 15.7655 86.5694 15.0968 C 85.9145 14.4281 85.137 13.8977 84.2813 13.5358 C 83.4256 13.1739 82.5085 12.9876 81.5823 12.9876 Z M 85.225 21.6425 C 85.2234 22.2053 85.0037 22.7447 84.6139 23.1427 C 84.2241 23.5407 83.6959 23.765 83.1446 23.7667 L 80.1726 23.7667 C 79.6214 23.765 79.0931 23.5407 78.7033 23.1427 C 78.3135 22.7447 78.0938 22.2053 78.0922 21.6425 L 78.0922 18.6079 C 78.0938 18.045 78.3135 17.5057 78.7033 17.1077 C 79.0931 16.7097 79.6214 16.4854 80.1726 16.4837 L 83.1446 16.4837 C 83.6959 16.4854 84.2241 16.7097 84.6139 17.1077 C 85.0037 17.5057 85.2234 18.045 85.225 18.6079 L 85.225 21.6425 Z" stroke-linecap="round" />
</g>
		<g transform="matrix(1 0 0 1 7.47 -34.91)" clip-path="url(#CLIPPATH_34)"  >
<clipPath id="CLIPPATH_34" >
	<rect transform="matrix(1 0 0 1 -7.47 34.91)" id="clip0_1_2985" x="-45" y="-42" rx="0" ry="0" width="90" height="84" />
</clipPath>
<path style="stroke: none; stroke-width: 1; stroke-dasharray: none; stroke-linecap: butt; stroke-dashoffset: 0; stroke-linejoin: miter; stroke-miterlimit: 4; fill: rgb(63,61,86); fill-rule: nonzero; opacity: 1;" vector-effect="non-scaling-stroke"  transform=" translate(-52.97, -7.09)" d="M 52.9735 0 C 51.601 0 50.2593 0.41557 49.1181 1.19416 C 47.9768 1.97275 47.0874 3.07939 46.5621 4.37413 C 46.0369 5.66888 45.8995 7.09358 46.1672 8.46808 C 46.435 9.84257 47.0959 11.1051 48.0665 12.0961 C 49.037 13.087 50.2735 13.7619 51.6197 14.0353 C 52.9658 14.3087 54.3611 14.1684 55.6292 13.6321 C 56.8972 13.0958 57.9811 12.1876 58.7436 11.0223 C 59.5061 9.8571 59.9131 8.48715 59.9131 7.08572 C 59.9131 6.15521 59.7336 5.23381 59.3849 4.37413 C 59.0361 3.51445 58.525 2.73333 57.8806 2.07536 C 57.2362 1.41739 56.4711 0.895459 55.6292 0.539368 C 54.7872 0.183278 53.8848 0 52.9735 0 Z M 55.1617 4.2875 L 54.2733 4.2875 C 53.6668 4.2875 53.5511 4.58043 53.5511 5.0121 L 53.5511 5.92943 L 54.9956 5.92943 L 54.8068 7.36837 L 53.5511 7.36837 L 53.5511 11.2741 L 51.9405 11.2741 L 51.9405 7.36837 L 50.7854 7.36837 L 50.7854 5.92943 L 51.9405 5.92943 L 51.9405 4.86565 C 51.9405 3.59116 52.8062 2.89738 53.921 2.89738 C 54.4545 2.89738 55.0283 2.9385 55.1617 2.95648 L 55.1617 4.2875 Z" stroke-linecap="round" />
</g>
</g>
</g>
</svg>