<?xml version="1.0" encoding="UTF-8" standalone="no" ?>
<!DOCTYPE svg PUBLIC "-//W3C//DTD SVG 1.1//EN" "http://www.w3.org/Graphics/SVG/1.1/DTD/svg11.dtd">
<svg xmlns="http://www.w3.org/2000/svg" xmlns:xlink="http://www.w3.org/1999/xlink" version="1.1" width="1080" height="1080" viewBox="0 0 1080 1080" xml:space="preserve">
<desc>Created with Fabric.js 5.2.4</desc>
<defs>
</defs>
<g transform="matrix(1 0 0 1 540 540)" id="2a67172f-6795-43ce-9263-faf65ef5f799"  >
<rect style="stroke: none; stroke-width: 1; stroke-dasharray: none; stroke-linecap: butt; stroke-dashoffset: 0; stroke-linejoin: miter; stroke-miterlimit: 4; fill: rgb(255,255,255); fill-rule: nonzero; opacity: 1; visibility: hidden;" vector-effect="non-scaling-stroke"  x="-540" y="-540" rx="0" ry="0" width="1080" height="1080" />
</g>
<g transform="matrix(1 0 0 1 540 540)" id="0c630333-6853-4192-ac27-7ab18bc825dd"  >
</g>
<g transform="matrix(7.83 0 0 7.83 540 540)"  >
<g style=""   >
		<g transform="matrix(1 0 0 1 -57.86 9.52)" clip-path="url(#CLIPPATH_3)"  >
<clipPath id="CLIPPATH_3" >
	<rect transform="matrix(1 0 0 1 57.86 -9.52)" id="clip0_1_3189" x="-69" y="-42" rx="0" ry="0" width="138" height="84" />
</clipPath>
<path style="stroke: none; stroke-width: 1; stroke-dasharray: none; stroke-linecap: butt; stroke-dashoffset: 0; stroke-linejoin: miter; stroke-miterlimit: 4; fill: rgb(33,184,249); fill-rule: nonzero; opacity: 0.6;" vector-effect="non-scaling-stroke"  transform=" translate(-11.14, -51.52)" d="M 6.46258 37.0918 C 6.95275 36.9227 7.47377 36.7619 7.98622 36.8499 C 8.84316 36.9971 9.44473 37.7991 9.7001 38.6231 C 9.95547 39.4471 9.9469 40.3151 10.1097 41.1611 C 10.2725 42.0071 10.6616 42.8818 11.4294 43.2862 C 12.1972 43.6906 13.1039 43.5316 13.9557 43.4334 C 15.0729 43.3062 16.2006 43.296 17.32 43.403 C 18.2592 43.4927 19.363 43.8057 19.6389 44.6973 C 19.8651 45.4249 19.4161 46.1677 19.1247 46.8699 C 18.566 48.1829 18.5214 49.7344 19.1607 51.0102 C 19.8 52.2859 21.0957 53.2368 21.6373 54.5837 C 21.7942 54.9205 21.8398 55.2976 21.7675 55.6615 C 21.6874 55.9162 21.5556 56.1523 21.3802 56.3552 C 20.9552 56.8949 20.4478 57.3704 20.0605 57.9389 C 19.2533 59.1233 19.0322 60.5953 18.9396 62.0183 C 18.8473 63.4175 18.8553 64.8214 18.9636 66.2195 C 17.9113 65.8811 16.7493 66.1823 15.6644 65.9606 C 13.3558 65.4902 11.9144 62.7932 9.56299 62.6291 C 8.45068 62.5512 7.25439 63.069 6.26206 62.5665 C 5.78798 62.2968 5.41697 61.8806 5.20631 61.3821 C 4.78689 60.4997 4.69116 59.5008 4.93551 58.5565 C 5.1069 57.9033 5.44968 57.2638 5.38284 56.5921 C 5.32628 56.0168 4.97665 55.5092 4.5756 55.0879 C 3.43244 53.8899 1.7734 53.1573 0.952455 51.7242 C 0.579075 51.0434 0.423276 50.267 0.505572 49.4972 C 0.587867 48.7273 0.904397 48.0001 1.41349 47.4113 C 1.70649 47.1289 1.98397 46.8313 2.24472 46.5196 C 2.63891 45.9714 2.75888 45.2794 2.81202 44.6077 C 2.92513 42.9986 2.64063 41.2948 3.17364 39.7314 C 3.65182 38.3168 5.11204 37.5656 6.46258 37.0918 Z" stroke-linecap="round" />
</g>
		<g transform="matrix(1 0 0 1 -57.13 9.5)" clip-path="url(#CLIPPATH_4)"  >
<clipPath id="CLIPPATH_4" >
	<rect transform="matrix(1 0 0 1 57.13 -9.5)" id="clip0_1_3189" x="-69" y="-42" rx="0" ry="0" width="138" height="84" />
</clipPath>
<path style="stroke: rgb(83,84,97); stroke-width: 1; stroke-dasharray: none; stroke-linecap: butt; stroke-dashoffset: 0; stroke-linejoin: miter; stroke-miterlimit: 10; fill: none; fill-rule: nonzero; opacity: 0.6;" vector-effect="non-scaling-stroke"  transform=" translate(-11.87, -51.5)" d="M 6.48651 37.1391 C 6.48651 37.1391 11.1671 62.8015 17.2445 65.8623" stroke-linecap="round" />
</g>
		<g transform="matrix(1 0 0 1 -59.67 19.11)" clip-path="url(#CLIPPATH_5)"  >
<clipPath id="CLIPPATH_5" >
	<rect transform="matrix(1 0 0 1 59.67 -19.11)" id="clip0_1_3189" x="-69" y="-42" rx="0" ry="0" width="138" height="84" />
</clipPath>
<path style="stroke: rgb(83,84,97); stroke-width: 1; stroke-dasharray: none; stroke-linecap: butt; stroke-dashoffset: 0; stroke-linejoin: miter; stroke-miterlimit: 10; fill: none; fill-rule: nonzero; opacity: 0.6;" vector-effect="non-scaling-stroke"  transform=" translate(-9.33, -61.11)" d="M 13.1226 60.3484 C 13.1226 60.3484 9.18071 59.6716 5.54214 61.9642" stroke-linecap="round" />
</g>
		<g transform="matrix(1 0 0 1 -52.11 14.23)" clip-path="url(#CLIPPATH_6)"  >
<clipPath id="CLIPPATH_6" >
	<rect transform="matrix(1 0 0 1 52.11 -14.23)" id="clip0_1_3189" x="-69" y="-42" rx="0" ry="0" width="138" height="84" />
</clipPath>
<path style="stroke: rgb(83,84,97); stroke-width: 1; stroke-dasharray: none; stroke-linecap: butt; stroke-dashoffset: 0; stroke-linejoin: miter; stroke-miterlimit: 10; fill: none; fill-rule: nonzero; opacity: 0.6;" vector-effect="non-scaling-stroke"  transform=" translate(-16.89, -56.23)" d="M 21.7161 54.6038 C 21.7161 54.6038 14.6754 55.1943 12.0686 57.8626" stroke-linecap="round" />
</g>
		<g transform="matrix(1 0 0 1 -54.5 5.12)" clip-path="url(#CLIPPATH_7)"  >
<clipPath id="CLIPPATH_7" >
	<rect transform="matrix(1 0 0 1 54.5 -5.12)" id="clip0_1_3189" x="-69" y="-42" rx="0" ry="0" width="138" height="84" />
</clipPath>
<path style="stroke: rgb(83,84,97); stroke-width: 1; stroke-dasharray: none; stroke-linecap: butt; stroke-dashoffset: 0; stroke-linejoin: miter; stroke-miterlimit: 10; fill: none; fill-rule: nonzero; opacity: 0.6;" vector-effect="non-scaling-stroke"  transform=" translate(-14.5, -47.12)" d="M 19.5085 44.2423 C 19.5085 44.2423 14.4954 44.9191 9.48746 50.0035" stroke-linecap="round" />
</g>
		<g transform="matrix(1 0 0 1 -63.57 9.4)" clip-path="url(#CLIPPATH_8)"  >
<clipPath id="CLIPPATH_8" >
	<rect transform="matrix(1 0 0 1 63.57 -9.4)" id="clip0_1_3189" x="-69" y="-42" rx="0" ry="0" width="138" height="84" />
</clipPath>
<path style="stroke: rgb(83,84,97); stroke-width: 1; stroke-dasharray: none; stroke-linecap: butt; stroke-dashoffset: 0; stroke-linejoin: miter; stroke-miterlimit: 10; fill: none; fill-rule: nonzero; opacity: 0.6;" vector-effect="non-scaling-stroke"  transform=" translate(-5.43, -51.4)" d="M 10.3685 52.9847 C 10.3685 52.9847 6.51051 49.2623 0.482788 49.8934" stroke-linecap="round" />
</g>
		<g transform="matrix(1 0 0 1 6.61 -0.11)" clip-path="url(#CLIPPATH_9)"  >
<clipPath id="CLIPPATH_9" >
	<rect transform="matrix(1 0 0 1 -6.61 0.11)" id="clip0_1_3189" x="-69" y="-42" rx="0" ry="0" width="138" height="84" />
</clipPath>
<path style="stroke: none; stroke-width: 1; stroke-dasharray: none; stroke-linecap: butt; stroke-dashoffset: 0; stroke-linejoin: miter; stroke-miterlimit: 4; fill: rgb(244,244,244); fill-rule: nonzero; opacity: 1;" vector-effect="non-scaling-stroke"  transform=" translate(-75.61, -41.89)" d="M 13.3129 0 L 13.3129 4.22829 L 13.3129 83.7874 L 137.9 83.7874 L 137.9 4.22829 L 137.9 0 L 13.3129 0 Z" stroke-linecap="round" />
</g>
		<g transform="matrix(1 0 0 1 6.87 1.04)" clip-path="url(#CLIPPATH_10)"  >
<clipPath id="CLIPPATH_10" >
	<rect transform="matrix(1 0 0 1 -6.87 -1.04)" id="clip0_1_3189" x="-69" y="-42" rx="0" ry="0" width="138" height="84" />
</clipPath>
<path style="stroke: none; stroke-width: 1; stroke-dasharray: none; stroke-linecap: butt; stroke-dashoffset: 0; stroke-linejoin: miter; stroke-miterlimit: 4; fill: rgb(255,255,255); fill-rule: nonzero; opacity: 1;" vector-effect="non-scaling-stroke"  transform=" translate(-75.87, -43.04)" d="M 136.58 3.80182 L 15.1605 3.80182 L 15.1605 82.2713 L 136.58 82.2713 L 136.58 3.80182 Z" stroke-linecap="round" />
</g>
		<g transform="matrix(1 0 0 1 -27.16 -7.37)" clip-path="url(#CLIPPATH_11)"  >
<clipPath id="CLIPPATH_11" >
	<rect transform="matrix(1 0 0 1 27.16 7.37)" id="clip0_1_3189" x="-69" y="-42" rx="0" ry="0" width="138" height="84" />
</clipPath>
<path style="stroke: none; stroke-width: 1; stroke-dasharray: none; stroke-linecap: butt; stroke-dashoffset: 0; stroke-linejoin: miter; stroke-miterlimit: 4; fill: rgb(33,184,249); fill-rule: nonzero; opacity: 0.5;" vector-effect="non-scaling-stroke"  transform=" translate(-41.84, -34.63)" d="M 51.0063 33.7009 L 32.6678 33.7009 L 32.6678 35.5621 L 51.0063 35.5621 L 51.0063 33.7009 Z" stroke-linecap="round" />
</g>
		<g transform="matrix(1 0 0 1 -37.27 -11.09)" clip-path="url(#CLIPPATH_12)"  >
<clipPath id="CLIPPATH_12" >
	<rect transform="matrix(1 0 0 1 37.27 11.09)" id="clip0_1_3189" x="-69" y="-42" rx="0" ry="0" width="138" height="84" />
</clipPath>
<path style="stroke: none; stroke-width: 1; stroke-dasharray: none; stroke-linecap: butt; stroke-dashoffset: 0; stroke-linejoin: miter; stroke-miterlimit: 4; fill: rgb(33,184,249); fill-rule: nonzero; opacity: 0.5;" vector-effect="non-scaling-stroke"  transform=" translate(-31.73, -30.91)" d="M 43.6365 29.9785 L 19.8136 29.9785 L 19.8136 31.8397 L 43.6365 31.8397 L 43.6365 29.9785 Z" stroke-linecap="round" />
</g>
		<g transform="matrix(1 0 0 1 28.71 1.26)" clip-path="url(#CLIPPATH_13)"  >
<clipPath id="CLIPPATH_13" >
	<rect transform="matrix(1 0 0 1 -28.71 -1.26)" id="clip0_1_3189" x="-69" y="-42" rx="0" ry="0" width="138" height="84" />
</clipPath>
<path style="stroke: none; stroke-width: 1; stroke-dasharray: none; stroke-linecap: butt; stroke-dashoffset: 0; stroke-linejoin: miter; stroke-miterlimit: 4; fill: rgb(33,184,249); fill-rule: nonzero; opacity: 0.5;" vector-effect="non-scaling-stroke"  transform=" translate(-97.71, -43.26)" d="M 124.36 28.1174 L 71.0587 28.1174 L 71.0587 58.4041 L 124.36 58.4041 L 124.36 28.1174 Z" stroke-linecap="round" />
</g>
		<g transform="matrix(1 0 0 1 35.05 4.14)" clip-path="url(#CLIPPATH_14)"  >
<clipPath id="CLIPPATH_14" >
	<rect transform="matrix(1 0 0 1 -35.05 -4.14)" id="clip0_1_3189" x="-69" y="-42" rx="0" ry="0" width="138" height="84" />
</clipPath>
<path style="stroke: none; stroke-width: 1; stroke-dasharray: none; stroke-linecap: butt; stroke-dashoffset: 0; stroke-linejoin: miter; stroke-miterlimit: 4; fill: rgb(238,238,238); fill-rule: nonzero; opacity: 1;" vector-effect="non-scaling-stroke"  transform=" translate(-104.05, -46.14)" d="M 130.702 30.9938 L 77.4 30.9938 L 77.4 61.2804 L 130.702 61.2804 L 130.702 30.9938 Z" stroke-linecap="round" />
</g>
		<g transform="matrix(1 0 0 1 23.31 15.19)" clip-path="url(#CLIPPATH_15)"  >
<clipPath id="CLIPPATH_15" >
	<rect transform="matrix(1 0 0 1 -23.31 -15.19)" id="clip0_1_3189" x="-69" y="-42" rx="0" ry="0" width="138" height="84" />
</clipPath>
<path style="stroke: none; stroke-width: 1; stroke-dasharray: none; stroke-linecap: butt; stroke-dashoffset: 0; stroke-linejoin: miter; stroke-miterlimit: 4; fill: rgb(33,184,249); fill-rule: nonzero; opacity: 1;" vector-effect="non-scaling-stroke"  transform=" translate(-92.31, -57.19)" d="M 107.222 61.2804 L 77.4 61.2804 L 77.4 55.7324 C 84.6857 52.3704 95.8962 50.4821 107.222 61.2804 Z" stroke-linecap="round" />
</g>
		<g transform="matrix(1 0 0 1 42.76 15.19)" clip-path="url(#CLIPPATH_16)"  >
<clipPath id="CLIPPATH_16" >
	<rect transform="matrix(1 0 0 1 -42.76 -15.19)" id="clip0_1_3189" x="-69" y="-42" rx="0" ry="0" width="138" height="84" />
</clipPath>
<path style="stroke: none; stroke-width: 1; stroke-dasharray: none; stroke-linecap: butt; stroke-dashoffset: 0; stroke-linejoin: miter; stroke-miterlimit: 4; fill: rgb(16,59,102); fill-rule: nonzero; opacity: 0.1;" vector-effect="non-scaling-stroke"  transform=" translate(-111.76, -57.19)" d="M 130.359 60.4871 L 130.359 61.2806 L 93.1677 61.2806 L 93.1677 61.1114 C 93.1677 61.1114 111.469 43.5198 130.359 60.4871 Z" stroke-linecap="round" />
</g>
		<g transform="matrix(1 0 0 1 43.11 15.19)" clip-path="url(#CLIPPATH_17)"  >
<clipPath id="CLIPPATH_17" >
	<rect transform="matrix(1 0 0 1 -43.11 -15.19)" id="clip0_1_3189" x="-69" y="-42" rx="0" ry="0" width="138" height="84" />
</clipPath>
<path style="stroke: none; stroke-width: 1; stroke-dasharray: none; stroke-linecap: butt; stroke-dashoffset: 0; stroke-linejoin: miter; stroke-miterlimit: 4; fill: rgb(33,184,249); fill-rule: nonzero; opacity: 1;" vector-effect="non-scaling-stroke"  transform=" translate(-112.11, -57.19)" d="M 130.702 60.4871 L 130.702 61.2806 L 93.5105 61.2806 L 93.5105 61.1114 C 93.5105 61.1114 111.811 43.5198 130.702 60.4871 Z" stroke-linecap="round" />
</g>
		<g transform="matrix(1 0 0 1 52.34 10.87)" clip-path="url(#CLIPPATH_18)"  >
<clipPath id="CLIPPATH_18" >
	<rect transform="matrix(1 0 0 1 -52.34 -10.87)" id="clip0_1_3189" x="-69" y="-42" rx="0" ry="0" width="138" height="84" />
</clipPath>
<path style="stroke: none; stroke-width: 1; stroke-dasharray: none; stroke-linecap: butt; stroke-dashoffset: 0; stroke-linejoin: miter; stroke-miterlimit: 4; fill: rgb(33,184,249); fill-rule: nonzero; opacity: 1;" vector-effect="non-scaling-stroke"  transform=" translate(-121.34, -52.87)" d="M 121.102 57.1809 L 121.713 57.1809 C 121.713 57.1809 121.903 50.5974 121.102 48.5653 L 120.95 48.5653 C 120.95 48.5653 121.483 56.0185 121.102 57.1809 Z" stroke-linecap="round" />
</g>
		<g transform="matrix(1 0 0 1 28.09 9.61)" clip-path="url(#CLIPPATH_19)"  >
<clipPath id="CLIPPATH_19" >
	<rect transform="matrix(1 0 0 1 -28.09 -9.61)" id="clip0_1_3189" x="-69" y="-42" rx="0" ry="0" width="138" height="84" />
</clipPath>
<path style="stroke: none; stroke-width: 1; stroke-dasharray: none; stroke-linecap: butt; stroke-dashoffset: 0; stroke-linejoin: miter; stroke-miterlimit: 4; fill: rgb(244,244,244); fill-rule: nonzero; opacity: 1;" vector-effect="non-scaling-stroke"  transform=" translate(-97.09, -51.61)" d="M 98.8219 49.7361 L 98.6933 49.0593 C 98.6932 49.0095 98.6827 48.9603 98.6627 48.9146 C 98.6427 48.869 98.6134 48.8278 98.5768 48.7936 L 97.9821 48.506 C 97.9383 48.4552 97.9024 48.3981 97.8758 48.3368 L 97.8861 48.3216 C 97.9188 48.2814 97.9423 48.2346 97.9547 48.1845 C 97.9558 48.1716 97.9558 48.1585 97.9547 48.1456 L 97.9632 48.1456 C 98.0181 48.1528 98.0738 48.1394 98.1191 48.1081 C 98.1645 48.0768 98.1963 48.0298 98.2083 47.9764 L 98.2083 47.9612 C 98.1977 48.0069 98.1725 48.048 98.1364 48.0785 C 98.1003 48.109 98.0552 48.1272 98.0078 48.1304 C 98.0906 48.0756 98.1584 48.0016 98.2053 47.9149 C 98.2523 47.8281 98.2768 47.7313 98.2769 47.6329 C 98.2769 47.6329 98.2769 47.616 98.2769 47.6075 C 98.3031 47.5916 98.3257 47.5705 98.3431 47.5454 C 98.3605 47.5203 98.3724 47.4919 98.378 47.462 L 98.378 47.4468 C 98.3707 47.4752 98.3577 47.5018 98.3398 47.525 C 98.3218 47.5483 98.2992 47.5677 98.2734 47.5822 C 98.2693 47.5242 98.2566 47.4672 98.2357 47.413 L 98.2512 47.413 C 98.3098 47.413 98.366 47.39 98.4075 47.349 C 98.449 47.3081 98.4722 47.2526 98.4722 47.1947 C 98.4722 47.1947 98.4722 47.1845 98.4722 47.1795 C 98.4684 47.2344 98.4436 47.2858 98.4029 47.3235 C 98.3622 47.3611 98.3086 47.3822 98.2529 47.3825 L 98.2254 47.3825 L 98.2254 47.3723 C 98.2912 47.3529 98.3499 47.3153 98.3949 47.2641 C 98.4398 47.2128 98.469 47.15 98.4791 47.083 C 98.4791 47.083 98.4791 47.0729 98.4791 47.0678 C 98.4762 47.1102 98.4607 47.1508 98.4345 47.1845 C 98.4375 47.1303 98.4198 47.077 98.385 47.0349 C 98.3503 46.9929 98.3009 46.9651 98.2465 46.9571 C 98.1921 46.9491 98.1366 46.9613 98.0909 46.9915 C 98.0452 47.0217 98.0125 47.0676 97.9992 47.1202 L 97.9598 47.0982 C 97.9721 47.0547 97.9979 47.0159 98.0335 46.9874 C 98.0691 46.9589 98.1129 46.9421 98.1586 46.9392 L 98.1432 46.9392 C 98.0969 46.9388 98.0516 46.9528 98.0138 46.9793 C 97.9759 47.0057 97.9475 47.0431 97.9324 47.0864 C 97.7999 47.0256 97.6496 47.014 97.5092 47.0538 C 97.3688 47.0936 97.2476 47.1821 97.168 47.303 C 97.1217 47.3368 97.0617 47.3859 97.0634 47.4282 C 97.0436 47.4478 97.0258 47.4693 97.0103 47.4925 C 96.9451 47.6338 96.9213 47.7903 96.9418 47.9442 C 96.9512 48.0208 96.9418 48.0984 96.9144 48.1706 C 96.8869 48.2428 96.8422 48.3073 96.7841 48.3588 C 96.8096 48.3693 96.837 48.3747 96.8646 48.3747 C 96.8923 48.3747 96.9197 48.3693 96.9452 48.3588 C 96.9961 48.3375 97.044 48.3096 97.0874 48.2759 C 97.128 48.2515 97.1625 48.2186 97.1886 48.1794 L 97.1886 48.171 C 97.2171 48.1898 97.2475 48.2057 97.2794 48.2183 C 97.2914 48.3199 97.2948 48.4366 97.2485 48.4755 L 97.2571 48.4569 C 97.1466 48.539 97.0092 48.5776 96.8715 48.5652 C 96.7884 48.5698 96.7079 48.5956 96.6379 48.6401 C 96.5679 48.6846 96.5108 48.7462 96.4721 48.819 L 96.2853 49.5889 L 96.2853 49.6024 L 96.2853 49.6159 C 96.2882 49.6263 96.2938 49.6357 96.3017 49.6432 C 96.3095 49.6506 96.3193 49.6558 96.3299 49.6582 L 96.3882 49.6735 C 96.397 49.805 96.3836 49.9371 96.3488 50.0643 C 96.3096 50.2538 96.2873 50.4463 96.2819 50.6396 C 96.2956 50.736 96.3196 51.2386 96.3316 51.4771 C 96.3108 51.5586 96.2942 51.641 96.2819 51.7242 L 96.006 53.3586 C 96.006 53.3586 95.8003 54.6665 95.8106 55.0625 L 95.7746 55.2909 C 95.7746 55.2909 95.2142 55.9846 95.3787 56.0827 C 95.5432 56.1809 95.7969 56.2232 96.0385 55.8543 C 96.0713 55.7674 96.1241 55.6892 96.1928 55.6259 C 96.2202 55.6025 96.2416 55.5729 96.255 55.5396 C 96.2684 55.5063 96.2735 55.4703 96.2699 55.4347 L 96.2528 55.2655 L 96.2819 55.2756 L 96.299 55.2756 C 96.299 55.2756 96.575 54.3806 96.5441 53.7529 C 96.5441 53.7529 97.0583 51.956 97.4439 51.6734 L 97.4439 51.6615 L 97.4799 51.6446 L 97.5622 53.3857 L 97.4782 55.3044 L 97.4593 55.4195 C 97.4593 55.4195 96.8989 56.1132 97.0634 56.2113 C 97.228 56.3095 97.4816 56.3518 97.7233 55.9829 C 97.756 55.896 97.8089 55.8178 97.8775 55.7545 C 97.905 55.7311 97.9263 55.7015 97.9397 55.6682 C 97.9532 55.6349 97.9583 55.5989 97.9547 55.5633 L 97.9289 55.3095 C 98.0249 54.9863 98.2717 54.0557 98.1706 53.516 L 98.342 52.3688 C 98.5134 52.1776 98.4911 51.692 98.4911 51.692 C 98.6265 51.4128 98.6625 50.3181 98.6625 50.3181 L 98.6968 49.7767 C 98.7224 49.7745 98.7482 49.7745 98.7739 49.7767 L 98.791 49.7767 L 98.8013 49.7767 L 98.8013 49.7665 C 98.8063 49.7622 98.8103 49.7571 98.8133 49.7513 L 98.8236 49.7513 L 98.8236 49.7378 L 98.8219 49.7361 Z M 98.342 50.8359 C 98.3266 50.7986 98.3094 50.7614 98.2906 50.7242 L 98.2769 50.7242 L 98.2769 50.7106 C 98.2764 50.7061 98.2764 50.7016 98.2769 50.6971 L 98.2769 50.6836 C 98.2849 50.6654 98.2918 50.6468 98.2974 50.6277 C 98.3196 50.5928 98.3309 50.5522 98.33 50.511 C 98.3502 50.6181 98.3542 50.7276 98.342 50.8359 Z M 98.2906 50.3723 L 98.2563 50.0102 L 98.2666 49.9814 L 98.3129 50.4416 L 98.2906 50.3723 Z M 96.6658 50.4213 C 96.654 50.4346 96.6452 50.4503 96.6399 50.4672 C 96.6346 50.4841 96.6329 50.5019 96.635 50.5195 C 96.635 50.5195 96.635 50.5195 96.635 50.5313 C 96.6352 50.5679 96.6404 50.6043 96.6504 50.6396 L 96.5973 50.8663 L 96.5973 50.4332 C 96.6325 50.3875 96.6634 50.3388 96.6898 50.2877 C 96.6952 50.3336 96.6869 50.38 96.6658 50.4213 Z" stroke-linecap="round" />
</g>
		<g transform="matrix(1 0 0 1 28.48 13.51)" clip-path="url(#CLIPPATH_20)"  >
<clipPath id="CLIPPATH_20" >
	<rect transform="matrix(1 0 0 1 -28.48 -13.51)" id="clip0_1_3189" x="-69" y="-42" rx="0" ry="0" width="138" height="84" />
</clipPath>
<path style="stroke: none; stroke-width: 1; stroke-dasharray: none; stroke-linecap: butt; stroke-dashoffset: 0; stroke-linejoin: miter; stroke-miterlimit: 4; fill: rgb(51,51,51); fill-rule: nonzero; opacity: 1;" vector-effect="non-scaling-stroke"  transform=" translate(-97.48, -55.51)" d="M 97.5038 54.9524 L 97.4507 55.2908 C 97.4507 55.2908 96.9108 55.9676 97.0702 56.0539 C 97.2296 56.1402 97.473 56.1893 97.7061 55.834 C 97.7373 55.7504 97.7877 55.6751 97.8534 55.614 C 97.8798 55.5914 97.9003 55.5628 97.9131 55.5307 C 97.926 55.4986 97.9308 55.4639 97.9271 55.4296 L 97.874 54.9135 L 97.5038 54.9524 Z" stroke-linecap="round" />
</g>
		<g transform="matrix(1 0 0 1 26.86 13.38)" clip-path="url(#CLIPPATH_21)"  >
<clipPath id="CLIPPATH_21" >
	<rect transform="matrix(1 0 0 1 -26.86 -13.38)" id="clip0_1_3189" x="-69" y="-42" rx="0" ry="0" width="138" height="84" />
</clipPath>
<path style="stroke: none; stroke-width: 1; stroke-dasharray: none; stroke-linecap: butt; stroke-dashoffset: 0; stroke-linejoin: miter; stroke-miterlimit: 4; fill: rgb(51,51,51); fill-rule: nonzero; opacity: 1;" vector-effect="non-scaling-stroke"  transform=" translate(-95.86, -55.38)" d="M 95.8791 54.8189 L 95.826 55.1573 C 95.826 55.1573 95.2861 55.8341 95.4455 55.9204 C 95.6049 56.0067 95.8483 56.0557 96.0814 55.7004 C 96.1126 55.6168 96.163 55.5415 96.2287 55.4805 C 96.2551 55.4578 96.2756 55.4292 96.2884 55.3971 C 96.3013 55.365 96.3061 55.3304 96.3024 55.296 L 96.2493 54.78 L 95.8791 54.8189 Z" stroke-linecap="round" />
</g>
		<g transform="matrix(1 0 0 1 28.13 11.02)" clip-path="url(#CLIPPATH_22)"  >
<clipPath id="CLIPPATH_22" >
	<rect transform="matrix(1 0 0 1 -28.13 -11.02)" id="clip0_1_3189" x="-69" y="-42" rx="0" ry="0" width="138" height="84" />
</clipPath>
<path style="stroke: none; stroke-width: 1; stroke-dasharray: none; stroke-linecap: butt; stroke-dashoffset: 0; stroke-linejoin: miter; stroke-miterlimit: 4; fill: rgb(77,138,240); fill-rule: nonzero; opacity: 1;" vector-effect="non-scaling-stroke"  transform=" translate(-97.13, -53.02)" d="M 96.6624 50.9069 C 96.6624 50.9069 96.4088 51.0879 96.3196 51.7174 L 96.054 53.2926 C 96.054 53.2926 95.8295 54.7206 95.8706 54.9948 L 96.3196 55.147 C 96.3196 55.147 96.5853 54.2841 96.5562 53.6835 C 96.5562 53.6835 97.096 51.785 97.4748 51.6531 L 97.5554 53.3298 L 97.4697 55.2164 L 97.8536 55.2925 C 97.8536 55.2925 98.2426 54.0912 98.1192 53.455 L 98.3198 52.1014 C 98.3198 52.1014 98.5494 51.379 98.2306 50.7478 L 96.6624 50.9069 Z" stroke-linecap="round" />
</g>
		<g transform="matrix(1 0 0 1 27.86 11.4)" clip-path="url(#CLIPPATH_23)"  >
<clipPath id="CLIPPATH_23" >
	<rect transform="matrix(1 0 0 1 -27.86 -11.4)" id="clip0_1_3189" x="-69" y="-42" rx="0" ry="0" width="138" height="84" />
</clipPath>
<path style="stroke: none; stroke-width: 1; stroke-dasharray: none; stroke-linecap: butt; stroke-dashoffset: 0; stroke-linejoin: miter; stroke-miterlimit: 4; fill: rgb(16,59,102); fill-rule: nonzero; opacity: 0.010000000000000002;" vector-effect="non-scaling-stroke"  transform=" translate(-96.86, -53.4)" d="M 97.4353 51.6786 L 97.4353 51.6499 C 97.0565 51.7835 96.5166 53.6803 96.5166 53.6803 C 96.5075 54.1713 96.4296 54.6587 96.2853 55.1286 L 96.3333 55.1455 C 96.3333 55.1455 96.5989 54.2826 96.5698 53.682 C 96.5681 53.6836 97.0617 51.9578 97.4353 51.6786 Z" stroke-linecap="round" />
</g>
		<g transform="matrix(1 0 0 1 29.12 11.02)" clip-path="url(#CLIPPATH_24)"  >
<clipPath id="CLIPPATH_24" >
	<rect transform="matrix(1 0 0 1 -29.12 -11.02)" id="clip0_1_3189" x="-69" y="-42" rx="0" ry="0" width="138" height="84" />
</clipPath>
<path style="stroke: none; stroke-width: 1; stroke-dasharray: none; stroke-linecap: butt; stroke-dashoffset: 0; stroke-linejoin: miter; stroke-miterlimit: 4; fill: rgb(16,59,102); fill-rule: nonzero; opacity: 0.010000000000000002;" vector-effect="non-scaling-stroke"  transform=" translate(-98.12, -53.02)" d="M 98.246 50.7564 L 98.1946 50.7564 C 98.3788 51.1806 98.4091 51.6545 98.2802 52.0982 L 98.0797 53.4518 C 98.198 54.0541 97.8535 55.1624 97.8175 55.2791 L 97.8672 55.2893 C 97.8672 55.2893 98.2563 54.088 98.1329 53.4518 L 98.3334 52.0982 C 98.3334 52.0982 98.5648 51.3791 98.246 50.7564 Z" stroke-linecap="round" />
</g>
		<g transform="matrix(1 0 0 1 28.77 12.19)" clip-path="url(#CLIPPATH_25)"  >
<clipPath id="CLIPPATH_25" >
	<rect transform="matrix(1 0 0 1 -28.77 -12.19)" id="clip0_1_3189" x="-69" y="-42" rx="0" ry="0" width="138" height="84" />
</clipPath>
<path style="stroke: none; stroke-width: 1; stroke-dasharray: none; stroke-linecap: butt; stroke-dashoffset: 0; stroke-linejoin: miter; stroke-miterlimit: 4; fill: rgb(240,228,228); fill-rule: nonzero; opacity: 1;" vector-effect="non-scaling-stroke"  transform=" translate(-97.77, -54.19)" d="M 97.5845 54.1775 L 97.7833 54.1775 L 97.9547 54.1944 L 97.8947 54.1944 L 97.5845 54.1775 Z" stroke-linecap="round" />
</g>
		<g transform="matrix(1 0 0 1 28.77 12.15)" clip-path="url(#CLIPPATH_26)"  >
<clipPath id="CLIPPATH_26" >
	<rect transform="matrix(1 0 0 1 -28.77 -12.15)" id="clip0_1_3189" x="-69" y="-42" rx="0" ry="0" width="138" height="84" />
</clipPath>
<path style="stroke: none; stroke-width: 1; stroke-dasharray: none; stroke-linecap: butt; stroke-dashoffset: 0; stroke-linejoin: miter; stroke-miterlimit: 4; fill: rgb(240,228,228); fill-rule: nonzero; opacity: 1;" vector-effect="non-scaling-stroke"  transform=" translate(-97.77, -54.15)" d="M 97.5845 54.137 L 97.7833 54.137 L 97.9547 54.1539 L 97.8947 54.1539 L 97.5845 54.137 Z" stroke-linecap="round" />
</g>
		<g transform="matrix(1 0 0 1 28.77 12.1)" clip-path="url(#CLIPPATH_27)"  >
<clipPath id="CLIPPATH_27" >
	<rect transform="matrix(1 0 0 1 -28.77 -12.1)" id="clip0_1_3189" x="-69" y="-42" rx="0" ry="0" width="138" height="84" />
</clipPath>
<path style="stroke: none; stroke-width: 1; stroke-dasharray: none; stroke-linecap: butt; stroke-dashoffset: 0; stroke-linejoin: miter; stroke-miterlimit: 4; fill: rgb(240,228,228); fill-rule: nonzero; opacity: 1;" vector-effect="non-scaling-stroke"  transform=" translate(-97.77, -54.1)" d="M 97.5845 54.0964 L 97.7833 54.0964 L 97.9547 54.1133 L 97.8947 54.1133 L 97.5845 54.0964 Z" stroke-linecap="round" />
</g>
		<g transform="matrix(1 0 0 1 28.77 12.06)" clip-path="url(#CLIPPATH_28)"  >
<clipPath id="CLIPPATH_28" >
	<rect transform="matrix(1 0 0 1 -28.77 -12.06)" id="clip0_1_3189" x="-69" y="-42" rx="0" ry="0" width="138" height="84" />
</clipPath>
<path style="stroke: none; stroke-width: 1; stroke-dasharray: none; stroke-linecap: butt; stroke-dashoffset: 0; stroke-linejoin: miter; stroke-miterlimit: 4; fill: rgb(240,228,228); fill-rule: nonzero; opacity: 1;" vector-effect="non-scaling-stroke"  transform=" translate(-97.77, -54.06)" d="M 97.5845 54.054 L 97.7833 54.054 L 97.9547 54.0709 L 97.8947 54.0709 L 97.5845 54.054 Z" stroke-linecap="round" />
</g>
		<g transform="matrix(1 0 0 1 27.5 10.69)" clip-path="url(#CLIPPATH_29)"  >
<clipPath id="CLIPPATH_29" >
	<rect transform="matrix(1 0 0 1 -27.5 -10.69)" id="clip0_1_3189" x="-69" y="-42" rx="0" ry="0" width="138" height="84" />
</clipPath>
<path style="stroke: none; stroke-width: 1; stroke-dasharray: none; stroke-linecap: butt; stroke-dashoffset: 0; stroke-linejoin: miter; stroke-miterlimit: 4; fill: rgb(253,183,151); fill-rule: nonzero; opacity: 1;" vector-effect="non-scaling-stroke"  transform=" translate(-96.5, -52.69)" d="M 96.5732 52.5735 L 96.431 52.5735 C 96.3675 52.5735 96.3161 52.6242 96.3161 52.6868 C 96.3161 52.7494 96.3675 52.8002 96.431 52.8002 L 96.5732 52.8002 C 96.6366 52.8002 96.688 52.7494 96.688 52.6868 C 96.688 52.6242 96.6366 52.5735 96.5732 52.5735 Z" stroke-linecap="round" />
</g>
		<g transform="matrix(1 0 0 1 27.5 10.8)" clip-path="url(#CLIPPATH_30)"  >
<clipPath id="CLIPPATH_30" >
	<rect transform="matrix(1 0 0 1 -27.5 -10.8)" id="clip0_1_3189" x="-69" y="-42" rx="0" ry="0" width="138" height="84" />
</clipPath>
<path style="stroke: none; stroke-width: 1; stroke-dasharray: none; stroke-linecap: butt; stroke-dashoffset: 0; stroke-linejoin: miter; stroke-miterlimit: 4; fill: rgb(240,228,228); fill-rule: nonzero; opacity: 1;" vector-effect="non-scaling-stroke"  transform=" translate(-96.5, -52.8)" d="M 96.3179 52.7919 L 96.5167 52.7919 L 96.6881 52.8122 L 96.6282 52.8122 L 96.3179 52.7919 Z" stroke-linecap="round" />
</g>
		<g transform="matrix(1 0 0 1 27.5 10.78)" clip-path="url(#CLIPPATH_31)"  >
<clipPath id="CLIPPATH_31" >
	<rect transform="matrix(1 0 0 1 -27.5 -10.78)" id="clip0_1_3189" x="-69" y="-42" rx="0" ry="0" width="138" height="84" />
</clipPath>
<path style="stroke: none; stroke-width: 1; stroke-dasharray: none; stroke-linecap: butt; stroke-dashoffset: 0; stroke-linejoin: miter; stroke-miterlimit: 4; fill: rgb(240,228,228); fill-rule: nonzero; opacity: 1;" vector-effect="non-scaling-stroke"  transform=" translate(-96.5, -52.78)" d="M 96.3179 52.7714 L 96.5167 52.7714 L 96.6881 52.7918 L 96.6282 52.7918 L 96.3179 52.7714 Z" stroke-linecap="round" />
</g>
		<g transform="matrix(1 0 0 1 27.5 10.76)" clip-path="url(#CLIPPATH_32)"  >
<clipPath id="CLIPPATH_32" >
	<rect transform="matrix(1 0 0 1 -27.5 -10.76)" id="clip0_1_3189" x="-69" y="-42" rx="0" ry="0" width="138" height="84" />
</clipPath>
<path style="stroke: none; stroke-width: 1; stroke-dasharray: none; stroke-linecap: butt; stroke-dashoffset: 0; stroke-linejoin: miter; stroke-miterlimit: 4; fill: rgb(240,228,228); fill-rule: nonzero; opacity: 1;" vector-effect="non-scaling-stroke"  transform=" translate(-96.5, -52.76)" d="M 96.3179 52.7513 L 96.5167 52.7513 L 96.6881 52.7716 L 96.6282 52.7716 L 96.3179 52.7513 Z" stroke-linecap="round" />
</g>
		<g transform="matrix(1 0 0 1 27.5 10.74)" clip-path="url(#CLIPPATH_33)"  >
<clipPath id="CLIPPATH_33" >
	<rect transform="matrix(1 0 0 1 -27.5 -10.74)" id="clip0_1_3189" x="-69" y="-42" rx="0" ry="0" width="138" height="84" />
</clipPath>
<path style="stroke: none; stroke-width: 1; stroke-dasharray: none; stroke-linecap: butt; stroke-dashoffset: 0; stroke-linejoin: miter; stroke-miterlimit: 4; fill: rgb(240,228,228); fill-rule: nonzero; opacity: 1;" vector-effect="non-scaling-stroke"  transform=" translate(-96.5, -52.74)" d="M 96.3179 52.7309 L 96.5167 52.7309 L 96.6881 52.7512 L 96.6282 52.7512 L 96.3179 52.7309 Z" stroke-linecap="round" />
</g>
		<g transform="matrix(1 0 0 1 27.5 10.64)" clip-path="url(#CLIPPATH_34)"  >
<clipPath id="CLIPPATH_34" >
	<rect transform="matrix(1 0 0 1 -27.5 -10.64)" id="clip0_1_3189" x="-69" y="-42" rx="0" ry="0" width="138" height="84" />
</clipPath>
<path style="stroke: none; stroke-width: 1; stroke-dasharray: none; stroke-linecap: butt; stroke-dashoffset: 0; stroke-linejoin: miter; stroke-miterlimit: 4; fill: rgb(240,228,228); fill-rule: nonzero; opacity: 1;" vector-effect="non-scaling-stroke"  transform=" translate(-96.5, -52.64)" d="M 96.3179 52.6346 L 96.5167 52.6261 L 96.6881 52.6532 L 96.6282 52.6532 L 96.3179 52.6346 Z" stroke-linecap="round" />
</g>
		<g transform="matrix(1 0 0 1 27.5 10.61)" clip-path="url(#CLIPPATH_35)"  >
<clipPath id="CLIPPATH_35" >
	<rect transform="matrix(1 0 0 1 -27.5 -10.61)" id="clip0_1_3189" x="-69" y="-42" rx="0" ry="0" width="138" height="84" />
</clipPath>
<path style="stroke: none; stroke-width: 1; stroke-dasharray: none; stroke-linecap: butt; stroke-dashoffset: 0; stroke-linejoin: miter; stroke-miterlimit: 4; fill: rgb(240,228,228); fill-rule: nonzero; opacity: 1;" vector-effect="non-scaling-stroke"  transform=" translate(-96.5, -52.61)" d="M 96.3179 52.6039 L 96.5167 52.5955 L 96.6881 52.6226 L 96.6282 52.6226 L 96.3179 52.6039 Z" stroke-linecap="round" />
</g>
		<g transform="matrix(1 0 0 1 27.5 10.57)" clip-path="url(#CLIPPATH_36)"  >
<clipPath id="CLIPPATH_36" >
	<rect transform="matrix(1 0 0 1 -27.5 -10.57)" id="clip0_1_3189" x="-69" y="-42" rx="0" ry="0" width="138" height="84" />
</clipPath>
<path style="stroke: none; stroke-width: 1; stroke-dasharray: none; stroke-linecap: butt; stroke-dashoffset: 0; stroke-linejoin: miter; stroke-miterlimit: 4; fill: rgb(240,228,228); fill-rule: nonzero; opacity: 1;" vector-effect="non-scaling-stroke"  transform=" translate(-96.5, -52.57)" d="M 96.3179 52.5684 L 96.5167 52.5599 L 96.6881 52.587 L 96.6282 52.587 L 96.3179 52.5684 Z" stroke-linecap="round" />
</g>
		<g transform="matrix(1 0 0 1 29.46 7.91)" clip-path="url(#CLIPPATH_37)"  >
<clipPath id="CLIPPATH_37" >
	<rect transform="matrix(1 0 0 1 -29.46 -7.91)" id="clip0_1_3189" x="-69" y="-42" rx="0" ry="0" width="138" height="84" />
</clipPath>
<path style="stroke: none; stroke-width: 1; stroke-dasharray: none; stroke-linecap: butt; stroke-dashoffset: 0; stroke-linejoin: miter; stroke-miterlimit: 4; fill: rgb(245,95,68); fill-rule: nonzero; opacity: 1;" vector-effect="non-scaling-stroke"  transform=" translate(-98.46, -49.91)" d="M 98.1722 50.0592 C 98.3308 49.9481 98.5143 49.8767 98.707 49.8511 C 98.7202 49.8511 98.7328 49.8459 98.7421 49.8367 C 98.7514 49.8275 98.7567 49.815 98.7567 49.802 C 98.7567 49.802 98.3076 49.6278 98.1722 50.0592 Z" stroke-linecap="round" />
</g>
		<g transform="matrix(1 0 0 1 29.46 7.91)" clip-path="url(#CLIPPATH_38)"  >
<clipPath id="CLIPPATH_38" >
	<rect transform="matrix(1 0 0 1 -29.46 -7.91)" id="clip0_1_3189" x="-69" y="-42" rx="0" ry="0" width="138" height="84" />
</clipPath>
<path style="stroke: none; stroke-width: 1; stroke-dasharray: none; stroke-linecap: butt; stroke-dashoffset: 0; stroke-linejoin: miter; stroke-miterlimit: 4; fill: rgb(16,59,102); fill-rule: nonzero; opacity: 0.1;" vector-effect="non-scaling-stroke"  transform=" translate(-98.46, -49.91)" d="M 98.7567 49.8003 C 98.7567 49.8003 98.3076 49.6311 98.1722 50.0575 C 98.1722 50.0575 98.503 49.8071 98.7327 49.8477" stroke-linecap="round" />
</g>
		<g transform="matrix(1 0 0 1 29.31 9.02)" clip-path="url(#CLIPPATH_39)"  >
<clipPath id="CLIPPATH_39" >
	<rect transform="matrix(1 0 0 1 -29.31 -9.02)" id="clip0_1_3189" x="-69" y="-42" rx="0" ry="0" width="138" height="84" />
</clipPath>
<path style="stroke: none; stroke-width: 1; stroke-dasharray: none; stroke-linecap: butt; stroke-dashoffset: 0; stroke-linejoin: miter; stroke-miterlimit: 4; fill: rgb(16,59,102); fill-rule: nonzero; opacity: 0.1;" vector-effect="non-scaling-stroke"  transform=" translate(-98.31, -51.02)" d="M 98.6419 49.6245 L 98.5939 50.3774 C 98.5939 50.3774 98.5648 51.4332 98.4345 51.7005 C 98.4345 51.7005 98.4705 52.4416 98.1209 52.423 C 97.7712 52.4044 98.1792 51.6126 98.1792 51.6126 C 98.1792 51.6126 98.366 50.7886 98.27 50.528 L 98.1792 49.6245 L 98.6419 49.6245 Z" stroke-linecap="round" />
</g>
		<g transform="matrix(1 0 0 1 29.32 9.02)" clip-path="url(#CLIPPATH_40)"  >
<clipPath id="CLIPPATH_40" >
	<rect transform="matrix(1 0 0 1 -29.32 -9.02)" id="clip0_1_3189" x="-69" y="-42" rx="0" ry="0" width="138" height="84" />
</clipPath>
<path style="stroke: none; stroke-width: 1; stroke-dasharray: none; stroke-linecap: butt; stroke-dashoffset: 0; stroke-linejoin: miter; stroke-miterlimit: 4; fill: rgb(253,183,151); fill-rule: nonzero; opacity: 1;" vector-effect="non-scaling-stroke"  transform=" translate(-98.32, -51.02)" d="M 98.647 49.6245 L 98.599 50.3774 C 98.599 50.3774 98.5699 51.4332 98.4396 51.7005 C 98.4396 51.7005 98.4756 52.4416 98.126 52.423 C 97.7764 52.4044 98.1843 51.6126 98.1843 51.6126 C 98.1843 51.6126 98.3711 50.7886 98.2751 50.528 L 98.1843 49.6245 L 98.647 49.6245 Z" stroke-linecap="round" />
</g>
		<g transform="matrix(1 0 0 1 28.84 9.82)" clip-path="url(#CLIPPATH_41)"  >
<clipPath id="CLIPPATH_41" >
	<rect transform="matrix(1 0 0 1 -28.84 -9.82)" id="clip0_1_3189" x="-69" y="-42" rx="0" ry="0" width="138" height="84" />
</clipPath>
<path style="stroke: none; stroke-width: 1; stroke-dasharray: none; stroke-linecap: butt; stroke-dashoffset: 0; stroke-linejoin: miter; stroke-miterlimit: 4; fill: rgb(240,228,228); fill-rule: nonzero; opacity: 1;" vector-effect="non-scaling-stroke"  transform=" translate(-97.84, -51.82)" d="M 97.6581 51.8087 L 97.8569 51.8087 L 98.0283 51.8257 L 97.9683 51.8257 L 97.6581 51.8087 Z" stroke-linecap="round" />
</g>
		<g transform="matrix(1 0 0 1 28.86 9.82)" clip-path="url(#CLIPPATH_42)"  >
<clipPath id="CLIPPATH_42" >
	<rect transform="matrix(1 0 0 1 -28.86 -9.82)" id="clip0_1_3189" x="-69" y="-42" rx="0" ry="0" width="138" height="84" />
</clipPath>
<path style="stroke: none; stroke-width: 1; stroke-dasharray: none; stroke-linecap: butt; stroke-dashoffset: 0; stroke-linejoin: miter; stroke-miterlimit: 4; fill: rgb(240,228,228); fill-rule: nonzero; opacity: 1;" vector-effect="non-scaling-stroke"  transform=" translate(-97.86, -51.82)" d="M 97.6702 51.8087 L 97.869 51.8087 L 98.0404 51.8257 L 97.9838 51.8257 L 97.6702 51.8087 Z" stroke-linecap="round" />
</g>
		<g transform="matrix(1 0 0 1 28.84 9.78)" clip-path="url(#CLIPPATH_43)"  >
<clipPath id="CLIPPATH_43" >
	<rect transform="matrix(1 0 0 1 -28.84 -9.78)" id="clip0_1_3189" x="-69" y="-42" rx="0" ry="0" width="138" height="84" />
</clipPath>
<path style="stroke: none; stroke-width: 1; stroke-dasharray: none; stroke-linecap: butt; stroke-dashoffset: 0; stroke-linejoin: miter; stroke-miterlimit: 4; fill: rgb(240,228,228); fill-rule: nonzero; opacity: 1;" vector-effect="non-scaling-stroke"  transform=" translate(-97.84, -51.78)" d="M 97.6581 51.7682 L 97.8569 51.7682 L 98.0283 51.7851 L 97.9683 51.7851 L 97.6581 51.7682 Z" stroke-linecap="round" />
</g>
		<g transform="matrix(1 0 0 1 28.86 9.78)" clip-path="url(#CLIPPATH_44)"  >
<clipPath id="CLIPPATH_44" >
	<rect transform="matrix(1 0 0 1 -28.86 -9.78)" id="clip0_1_3189" x="-69" y="-42" rx="0" ry="0" width="138" height="84" />
</clipPath>
<path style="stroke: none; stroke-width: 1; stroke-dasharray: none; stroke-linecap: butt; stroke-dashoffset: 0; stroke-linejoin: miter; stroke-miterlimit: 4; fill: rgb(240,228,228); fill-rule: nonzero; opacity: 1;" vector-effect="non-scaling-stroke"  transform=" translate(-97.86, -51.78)" d="M 97.6702 51.7682 L 97.869 51.7682 L 98.0404 51.7851 L 97.9838 51.7851 L 97.6702 51.7682 Z" stroke-linecap="round" />
</g>
		<g transform="matrix(1 0 0 1 28.84 9.73)" clip-path="url(#CLIPPATH_45)"  >
<clipPath id="CLIPPATH_45" >
	<rect transform="matrix(1 0 0 1 -28.84 -9.73)" id="clip0_1_3189" x="-69" y="-42" rx="0" ry="0" width="138" height="84" />
</clipPath>
<path style="stroke: none; stroke-width: 1; stroke-dasharray: none; stroke-linecap: butt; stroke-dashoffset: 0; stroke-linejoin: miter; stroke-miterlimit: 4; fill: rgb(240,228,228); fill-rule: nonzero; opacity: 1;" vector-effect="non-scaling-stroke"  transform=" translate(-97.84, -51.73)" d="M 97.6581 51.7258 L 97.8569 51.7258 L 98.0283 51.7427 L 97.9683 51.7427 L 97.6581 51.7258 Z" stroke-linecap="round" />
</g>
		<g transform="matrix(1 0 0 1 28.86 9.73)" clip-path="url(#CLIPPATH_46)"  >
<clipPath id="CLIPPATH_46" >
	<rect transform="matrix(1 0 0 1 -28.86 -9.73)" id="clip0_1_3189" x="-69" y="-42" rx="0" ry="0" width="138" height="84" />
</clipPath>
<path style="stroke: none; stroke-width: 1; stroke-dasharray: none; stroke-linecap: butt; stroke-dashoffset: 0; stroke-linejoin: miter; stroke-miterlimit: 4; fill: rgb(240,228,228); fill-rule: nonzero; opacity: 1;" vector-effect="non-scaling-stroke"  transform=" translate(-97.86, -51.73)" d="M 97.6702 51.7258 L 97.869 51.7258 L 98.0404 51.7427 L 97.9838 51.7427 L 97.6702 51.7258 Z" stroke-linecap="round" />
</g>
		<g transform="matrix(1 0 0 1 28.84 9.69)" clip-path="url(#CLIPPATH_47)"  >
<clipPath id="CLIPPATH_47" >
	<rect transform="matrix(1 0 0 1 -28.84 -9.69)" id="clip0_1_3189" x="-69" y="-42" rx="0" ry="0" width="138" height="84" />
</clipPath>
<path style="stroke: none; stroke-width: 1; stroke-dasharray: none; stroke-linecap: butt; stroke-dashoffset: 0; stroke-linejoin: miter; stroke-miterlimit: 4; fill: rgb(240,228,228); fill-rule: nonzero; opacity: 1;" vector-effect="non-scaling-stroke"  transform=" translate(-97.84, -51.69)" d="M 97.6581 51.6852 L 97.8569 51.6852 L 98.0283 51.7021 L 97.9683 51.7021 L 97.6581 51.6852 Z" stroke-linecap="round" />
</g>
		<g transform="matrix(1 0 0 1 28.86 9.69)" clip-path="url(#CLIPPATH_48)"  >
<clipPath id="CLIPPATH_48" >
	<rect transform="matrix(1 0 0 1 -28.86 -9.69)" id="clip0_1_3189" x="-69" y="-42" rx="0" ry="0" width="138" height="84" />
</clipPath>
<path style="stroke: none; stroke-width: 1; stroke-dasharray: none; stroke-linecap: butt; stroke-dashoffset: 0; stroke-linejoin: miter; stroke-miterlimit: 4; fill: rgb(240,228,228); fill-rule: nonzero; opacity: 1;" vector-effect="non-scaling-stroke"  transform=" translate(-97.86, -51.69)" d="M 97.6702 51.6852 L 97.869 51.6852 L 98.0404 51.7021 L 97.9838 51.7021 L 97.6702 51.6852 Z" stroke-linecap="round" />
</g>
		<g transform="matrix(1 0 0 1 27.54 7.77)" clip-path="url(#CLIPPATH_49)"  >
<clipPath id="CLIPPATH_49" >
	<rect transform="matrix(1 0 0 1 -27.54 -7.77)" id="clip0_1_3189" x="-69" y="-42" rx="0" ry="0" width="138" height="84" />
</clipPath>
<path style="stroke: none; stroke-width: 1; stroke-dasharray: none; stroke-linecap: butt; stroke-dashoffset: 0; stroke-linejoin: miter; stroke-miterlimit: 4; fill: rgb(245,95,68); fill-rule: nonzero; opacity: 1;" vector-effect="non-scaling-stroke"  transform=" translate(-96.54, -49.77)" d="M 96.3179 49.6734 C 96.3176 49.6863 96.3219 49.699 96.33 49.7092 C 96.3381 49.7194 96.3496 49.7265 96.3624 49.7292 C 96.4878 49.7603 96.6048 49.818 96.7052 49.8984 C 96.8938 50.0439 96.5047 49.6074 96.5047 49.6074 L 96.3744 49.6361 L 96.3213 49.6835 L 96.3179 49.6734 Z" stroke-linecap="round" />
</g>
		<g transform="matrix(1 0 0 1 27.54 7.77)" clip-path="url(#CLIPPATH_50)"  >
<clipPath id="CLIPPATH_50" >
	<rect transform="matrix(1 0 0 1 -27.54 -7.77)" id="clip0_1_3189" x="-69" y="-42" rx="0" ry="0" width="138" height="84" />
</clipPath>
<path style="stroke: none; stroke-width: 1; stroke-dasharray: none; stroke-linecap: butt; stroke-dashoffset: 0; stroke-linejoin: miter; stroke-miterlimit: 4; fill: rgb(16,59,102); fill-rule: nonzero; opacity: 0.1;" vector-effect="non-scaling-stroke"  transform=" translate(-96.54, -49.77)" d="M 96.3179 49.6734 C 96.3176 49.6863 96.3219 49.699 96.33 49.7092 C 96.3381 49.7194 96.3496 49.7265 96.3624 49.7292 C 96.4878 49.7603 96.6048 49.818 96.7052 49.8984 C 96.8938 50.0439 96.5047 49.6074 96.5047 49.6074 L 96.3744 49.6361 L 96.3213 49.6835 L 96.3179 49.6734 Z" stroke-linecap="round" />
</g>
		<g transform="matrix(1 0 0 1 27.56 8.91)" clip-path="url(#CLIPPATH_51)"  >
<clipPath id="CLIPPATH_51" >
	<rect transform="matrix(1 0 0 1 -27.56 -8.91)" id="clip0_1_3189" x="-69" y="-42" rx="0" ry="0" width="138" height="84" />
</clipPath>
<path style="stroke: none; stroke-width: 1; stroke-dasharray: none; stroke-linecap: butt; stroke-dashoffset: 0; stroke-linejoin: miter; stroke-miterlimit: 4; fill: rgb(16,59,102); fill-rule: nonzero; opacity: 0.1;" vector-effect="non-scaling-stroke"  transform=" translate(-96.56, -50.91)" d="M 96.4207 49.5721 C 96.4329 49.7556 96.4208 49.9399 96.3847 50.1203 C 96.3468 50.3025 96.325 50.4876 96.3196 50.6735 C 96.3367 50.7954 96.3727 51.6007 96.3727 51.6007 C 96.3727 51.6007 96.3076 52.3063 96.6555 52.242 C 97.0034 52.1777 96.6024 51.4366 96.6024 51.4366 L 96.6195 50.4739 C 96.7139 50.3473 96.773 50.1986 96.7909 50.0424 C 96.8166 49.8106 96.4207 49.5721 96.4207 49.5721 Z" stroke-linecap="round" />
</g>
		<g transform="matrix(1 0 0 1 27.55 8.91)" clip-path="url(#CLIPPATH_52)"  >
<clipPath id="CLIPPATH_52" >
	<rect transform="matrix(1 0 0 1 -27.55 -8.91)" id="clip0_1_3189" x="-69" y="-42" rx="0" ry="0" width="138" height="84" />
</clipPath>
<path style="stroke: none; stroke-width: 1; stroke-dasharray: none; stroke-linecap: butt; stroke-dashoffset: 0; stroke-linejoin: miter; stroke-miterlimit: 4; fill: rgb(253,183,151); fill-rule: nonzero; opacity: 1;" vector-effect="non-scaling-stroke"  transform=" translate(-96.55, -50.91)" d="M 96.4156 49.5721 C 96.4278 49.7556 96.4157 49.9399 96.3796 50.1203 C 96.3417 50.3025 96.3199 50.4876 96.3145 50.6735 C 96.3316 50.7954 96.3676 51.6007 96.3676 51.6007 C 96.3676 51.6007 96.3024 52.3063 96.6504 52.242 C 96.9983 52.1777 96.5972 51.4366 96.5972 51.4366 L 96.6144 50.4739 C 96.7088 50.3473 96.7678 50.1986 96.7858 50.0424 C 96.8098 49.8106 96.4156 49.5721 96.4156 49.5721 Z" stroke-linecap="round" />
</g>
		<g transform="matrix(1 0 0 1 28.03 5.98)" clip-path="url(#CLIPPATH_53)"  >
<clipPath id="CLIPPATH_53" >
	<rect transform="matrix(1 0 0 1 -28.03 -5.98)" id="clip0_1_3189" x="-69" y="-42" rx="0" ry="0" width="138" height="84" />
</clipPath>
<path style="stroke: none; stroke-width: 1; stroke-dasharray: none; stroke-linecap: butt; stroke-dashoffset: 0; stroke-linejoin: miter; stroke-miterlimit: 4; fill: rgb(114,53,28); fill-rule: nonzero; opacity: 1;" vector-effect="non-scaling-stroke"  transform=" translate(-97.03, -47.98)" d="M 97.0119 47.6261 C 96.9489 47.762 96.9257 47.9127 96.9451 48.061 C 96.9541 48.1347 96.9449 48.2096 96.9183 48.2791 C 96.8918 48.3486 96.8486 48.4107 96.7926 48.4603 C 96.8173 48.4705 96.8438 48.4757 96.8706 48.4757 C 96.8973 48.4757 96.9238 48.4705 96.9485 48.4603 C 96.9976 48.4399 97.0437 48.4132 97.0856 48.3808 C 97.1248 48.3573 97.1582 48.3255 97.1833 48.2877 C 97.207 48.2292 97.2147 48.1656 97.2056 48.1033 C 97.2059 47.9927 97.2156 47.8823 97.2347 47.7733 C 97.245 47.7057 97.3101 47.5212 97.2347 47.4857 C 97.1593 47.4502 97.0445 47.5754 97.0119 47.6261 Z" stroke-linecap="round" />
</g>
		<g transform="matrix(1 0 0 1 28.65 5.76)" clip-path="url(#CLIPPATH_54)"  >
<clipPath id="CLIPPATH_54" >
	<rect transform="matrix(1 0 0 1 -28.65 -5.76)" id="clip0_1_3189" x="-69" y="-42" rx="0" ry="0" width="138" height="84" />
</clipPath>
<path style="stroke: none; stroke-width: 1; stroke-dasharray: none; stroke-linecap: butt; stroke-dashoffset: 0; stroke-linejoin: miter; stroke-miterlimit: 4; fill: rgb(114,53,28); fill-rule: nonzero; opacity: 1;" vector-effect="non-scaling-stroke"  transform=" translate(-97.65, -47.76)" d="M 97.6512 48.3385 C 97.974 48.3385 98.2357 48.0802 98.2357 47.7615 C 98.2357 47.4429 97.974 47.1845 97.6512 47.1845 C 97.3285 47.1845 97.0668 47.4429 97.0668 47.7615 C 97.0668 48.0802 97.3285 48.3385 97.6512 48.3385 Z" stroke-linecap="round" />
</g>
		<g transform="matrix(1 0 0 1 28.61 6.47)" clip-path="url(#CLIPPATH_55)"  >
<clipPath id="CLIPPATH_55" >
	<rect transform="matrix(1 0 0 1 -28.61 -6.47)" id="clip0_1_3189" x="-69" y="-42" rx="0" ry="0" width="138" height="84" />
</clipPath>
<path style="stroke: none; stroke-width: 1; stroke-dasharray: none; stroke-linecap: butt; stroke-dashoffset: 0; stroke-linejoin: miter; stroke-miterlimit: 4; fill: rgb(253,183,151); fill-rule: nonzero; opacity: 1;" vector-effect="non-scaling-stroke"  transform=" translate(-97.61, -48.47)" d="M 97.2485 48.166 C 97.2485 48.166 97.3307 48.5044 97.2485 48.5737 C 97.1662 48.6431 96.9999 48.7717 97.1251 48.8715 C 97.2502 48.9713 97.6975 49.1405 97.8466 49.0576 C 97.9957 48.9747 98.1654 49.0001 98.1243 48.8309 C 98.0831 48.6617 97.7575 48.6972 97.7523 47.8563 L 97.2485 48.166 Z" stroke-linecap="round" />
</g>
		<g transform="matrix(1 0 0 1 28.53 7.82)" clip-path="url(#CLIPPATH_56)"  >
<clipPath id="CLIPPATH_56" >
	<rect transform="matrix(1 0 0 1 -28.53 -7.82)" id="clip0_1_3189" x="-69" y="-42" rx="0" ry="0" width="138" height="84" />
</clipPath>
<path style="stroke: none; stroke-width: 1; stroke-dasharray: none; stroke-linecap: butt; stroke-dashoffset: 0; stroke-linejoin: miter; stroke-miterlimit: 4; fill: rgb(16,59,102); fill-rule: nonzero; opacity: 0.1;" vector-effect="non-scaling-stroke"  transform=" translate(-97.53, -49.82)" d="M 97.5141 48.8952 C 97.5141 48.8952 97.7969 49.0238 97.9511 48.6414 L 98.5253 48.9189 C 98.5606 48.952 98.5887 48.9919 98.6078 49.0361 C 98.627 49.0804 98.6368 49.128 98.6367 49.1761 L 98.7601 49.8292 C 98.7601 49.8292 98.3402 49.6887 98.2099 50.0745 L 98.2459 50.4417 C 98.273 50.5323 98.2663 50.6296 98.227 50.7158 C 98.2236 50.7235 98.2218 50.7319 98.2218 50.7403 C 98.2218 50.7488 98.2236 50.7571 98.227 50.7649 C 98.2356 50.7916 98.2377 50.8199 98.2332 50.8476 C 98.2287 50.8753 98.2176 50.9015 98.201 50.9242 C 98.1843 50.9469 98.1625 50.9655 98.1372 50.9784 C 98.112 50.9912 98.0841 50.9981 98.0557 50.9983 C 97.9014 51.0001 97.7473 51.012 97.5946 51.0339 C 97.4712 51.0694 97.0976 50.9645 96.9742 51.0339 C 96.8508 51.1033 96.5903 50.9814 96.5903 50.9814 L 96.6606 50.6836 C 96.6606 50.6836 96.6126 50.5381 96.6726 50.4857 C 96.7326 50.4332 96.6966 49.9781 96.6434 49.8495 C 96.6434 49.8495 96.4309 49.6515 96.3007 49.6803 L 96.472 48.9273 C 96.509 48.8571 96.5639 48.7976 96.6312 48.7546 C 96.6985 48.7116 96.7759 48.6866 96.856 48.682 C 96.9888 48.6938 97.1214 48.6564 97.2279 48.5771 C 97.2279 48.5771 97.0993 48.8546 97.5141 48.8952 Z" stroke-linecap="round" />
</g>
		<g transform="matrix(1 0 0 1 28.53 7.8)" clip-path="url(#CLIPPATH_57)"  >
<clipPath id="CLIPPATH_57" >
	<rect transform="matrix(1 0 0 1 -28.53 -7.8)" id="clip0_1_3189" x="-69" y="-42" rx="0" ry="0" width="138" height="84" />
</clipPath>
<path style="stroke: none; stroke-width: 1; stroke-dasharray: none; stroke-linecap: butt; stroke-dashoffset: 0; stroke-linejoin: miter; stroke-miterlimit: 4; fill: rgb(16,59,102); fill-rule: nonzero; opacity: 0.1;" vector-effect="non-scaling-stroke"  transform=" translate(-97.53, -49.8)" d="M 97.5432 48.8816 C 97.6203 48.9019 97.826 48.9239 97.9494 48.6177 L 98.5236 48.8952 C 98.5589 48.9283 98.587 48.9682 98.6061 49.0124 C 98.6253 49.0566 98.6351 49.1043 98.635 49.1523 L 98.7584 49.8055 C 98.7584 49.8055 98.3385 49.665 98.2082 50.0508 L 98.2442 50.418 L 98.2682 50.4907 C 98.2785 50.5218 98.2812 50.5549 98.2762 50.5872 C 98.2711 50.6196 98.2584 50.6503 98.2391 50.6768 C 98.2309 50.6859 98.2255 50.6971 98.2234 50.709 C 98.2213 50.721 98.2226 50.7332 98.2271 50.7445 C 98.2356 50.7712 98.2377 50.7996 98.2332 50.8273 C 98.2287 50.855 98.2176 50.8812 98.201 50.9039 C 98.1843 50.9266 98.1625 50.9451 98.1372 50.958 C 98.112 50.9709 98.0841 50.9777 98.0557 50.978 C 97.9014 50.9798 97.7473 50.9916 97.5946 51.0135 C 97.4712 51.0491 97.0976 50.9442 96.9742 51.0135 C 96.8508 51.0829 96.5903 50.9611 96.5903 50.9611 L 96.6606 50.6633 C 96.6606 50.6633 96.6126 50.5178 96.6726 50.4653 C 96.7326 50.4129 96.6966 49.9577 96.6434 49.8291 C 96.6434 49.8291 96.4309 49.6312 96.3007 49.6599 L 96.472 48.907 C 96.509 48.8368 96.5639 48.7773 96.6312 48.7342 C 96.6985 48.6912 96.7759 48.6662 96.856 48.6617 C 96.9888 48.6734 97.1214 48.636 97.2279 48.5568 C 97.2279 48.5568 97.089 48.8072 97.4541 48.8613 L 97.5432 48.8816 Z" stroke-linecap="round" />
</g>
		<g transform="matrix(1 0 0 1 28.53 7.8)" clip-path="url(#CLIPPATH_58)"  >
<clipPath id="CLIPPATH_58" >
	<rect transform="matrix(1 0 0 1 -28.53 -7.8)" id="clip0_1_3189" x="-69" y="-42" rx="0" ry="0" width="138" height="84" />
</clipPath>
<path style="stroke: none; stroke-width: 1; stroke-dasharray: none; stroke-linecap: butt; stroke-dashoffset: 0; stroke-linejoin: miter; stroke-miterlimit: 4; fill: rgb(245,95,68); fill-rule: nonzero; opacity: 1;" vector-effect="non-scaling-stroke"  transform=" translate(-97.53, -49.8)" d="M 97.5433 48.8935 C 97.6204 48.9138 97.8261 48.9358 97.9495 48.6296 L 98.5236 48.9071 C 98.5589 48.9402 98.587 48.9801 98.6062 49.0243 C 98.6253 49.0685 98.6352 49.1162 98.635 49.1643 L 98.7584 49.8174 C 98.7584 49.8174 98.3385 49.6769 98.2083 50.0627 L 98.2443 50.4299 C 98.2713 50.5205 98.2646 50.6178 98.2254 50.704 C 98.222 50.7117 98.2202 50.7201 98.2202 50.7285 C 98.2202 50.7369 98.222 50.7453 98.2254 50.753 C 98.234 50.7798 98.2361 50.8081 98.2316 50.8358 C 98.227 50.8635 98.216 50.8897 98.1993 50.9124 C 98.1827 50.9351 98.1608 50.9537 98.1356 50.9665 C 98.1104 50.9794 98.0824 50.9863 98.054 50.9865 C 97.8997 50.9883 97.7457 51.0002 97.593 51.0221 C 97.4696 51.0576 97.096 50.9527 96.9726 51.0221 C 96.8492 51.0914 96.5887 50.9696 96.5887 50.9696 L 96.6589 50.6718 C 96.6589 50.6718 96.6109 50.5263 96.6709 50.4739 C 96.7309 50.4214 96.6949 49.9663 96.6418 49.8377 C 96.6418 49.8377 96.4293 49.6397 96.299 49.6685 L 96.4704 48.9155 C 96.5074 48.8453 96.5622 48.7858 96.6295 48.7428 C 96.6968 48.6998 96.7743 48.6748 96.8543 48.6702 C 96.9872 48.6819 97.1197 48.6446 97.2262 48.5653 C 97.2262 48.5653 97.0874 48.8157 97.4525 48.8698 L 97.5433 48.8935 Z" stroke-linecap="round" />
</g>
		<g transform="matrix(1 0 0 1 27.84 8.47)" clip-path="url(#CLIPPATH_59)"  >
<clipPath id="CLIPPATH_59" >
	<rect transform="matrix(1 0 0 1 -27.84 -8.47)" id="clip0_1_3189" x="-69" y="-42" rx="0" ry="0" width="138" height="84" />
</clipPath>
<path style="stroke: none; stroke-width: 1; stroke-dasharray: none; stroke-linecap: butt; stroke-dashoffset: 0; stroke-linejoin: miter; stroke-miterlimit: 4; fill: rgb(16,59,102); fill-rule: nonzero; opacity: 0.1;" vector-effect="non-scaling-stroke"  transform=" translate(-96.84, -50.47)" d="M 96.6829 50.4721 C 96.7288 50.4884 96.7791 50.4884 96.8251 50.4721 C 96.881 50.4554 96.9406 50.4554 96.9965 50.4721" stroke-linecap="round" />
</g>
		<g transform="matrix(1 0 0 1 28.39 8.02)" clip-path="url(#CLIPPATH_60)"  >
<clipPath id="CLIPPATH_60" >
	<rect transform="matrix(1 0 0 1 -28.39 -8.02)" id="clip0_1_3189" x="-69" y="-42" rx="0" ry="0" width="138" height="84" />
</clipPath>
<path style="stroke: none; stroke-width: 1; stroke-dasharray: none; stroke-linecap: butt; stroke-dashoffset: 0; stroke-linejoin: miter; stroke-miterlimit: 4; fill: rgb(16,59,102); fill-rule: nonzero; opacity: 0.1;" vector-effect="non-scaling-stroke"  transform=" translate(-97.39, -50.02)" d="M 96.7549 50.0591 C 96.9218 50.067 97.0886 50.0411 97.2451 49.983 C 97.2451 49.983 97.8484 50.1285 98.0197 50.0236" stroke-linecap="round" />
</g>
		<g transform="matrix(1 0 0 1 27.7 7.67)" clip-path="url(#CLIPPATH_61)"  >
<clipPath id="CLIPPATH_61" >
	<rect transform="matrix(1 0 0 1 -27.7 -7.67)" id="clip0_1_3189" x="-69" y="-42" rx="0" ry="0" width="138" height="84" />
</clipPath>
<path style="stroke: none; stroke-width: 1; stroke-dasharray: none; stroke-linecap: butt; stroke-dashoffset: 0; stroke-linejoin: miter; stroke-miterlimit: 4; fill: rgb(16,59,102); fill-rule: nonzero; opacity: 0.1;" vector-effect="non-scaling-stroke"  transform=" translate(-96.7, -49.67)" d="M 96.6949 49.347 C 96.7172 49.4508 96.7172 49.558 96.6949 49.6617 C 96.6949 49.6617 96.6658 49.9358 96.712 49.9832" stroke-linecap="round" />
</g>
		<g transform="matrix(1 0 0 1 29.14 7.6)" clip-path="url(#CLIPPATH_62)"  >
<clipPath id="CLIPPATH_62" >
	<rect transform="matrix(1 0 0 1 -29.14 -7.6)" id="clip0_1_3189" x="-69" y="-42" rx="0" ry="0" width="138" height="84" />
</clipPath>
<path style="stroke: none; stroke-width: 1; stroke-dasharray: none; stroke-linecap: butt; stroke-dashoffset: 0; stroke-linejoin: miter; stroke-miterlimit: 4; fill: rgb(16,59,102); fill-rule: nonzero; opacity: 0.1;" vector-effect="non-scaling-stroke"  transform=" translate(-98.14, -49.6)" d="M 98.1312 49.2826 C 98.1535 49.3863 98.1535 49.4936 98.1312 49.5973 C 98.1312 49.5973 98.102 49.8714 98.1483 49.9188" stroke-linecap="round" />
</g>
		<g transform="matrix(1 0 0 1 28.53 6.14)" clip-path="url(#CLIPPATH_63)"  >
<clipPath id="CLIPPATH_63" >
	<rect transform="matrix(1 0 0 1 -28.53 -6.14)" id="clip0_1_3189" x="-69" y="-42" rx="0" ry="0" width="138" height="84" />
</clipPath>
<path style="stroke: none; stroke-width: 1; stroke-dasharray: none; stroke-linecap: butt; stroke-dashoffset: 0; stroke-linejoin: miter; stroke-miterlimit: 4; fill: rgb(16,59,102); fill-rule: nonzero; opacity: 0.1;" vector-effect="non-scaling-stroke"  transform=" translate(-97.53, -48.14)" d="M 97.761 47.8867 L 97.2588 48.1963 C 97.2716 48.2522 97.2813 48.3087 97.288 48.3655 C 97.3452 48.388 97.4063 48.3995 97.4679 48.3994 C 97.5906 48.3909 97.7061 48.3393 97.7936 48.2539 C 97.7709 48.1328 97.7599 48.0098 97.761 47.8867 Z" stroke-linecap="round" />
</g>
		<g transform="matrix(1 0 0 1 28.46 5.88)" clip-path="url(#CLIPPATH_64)"  >
<clipPath id="CLIPPATH_64" >
	<rect transform="matrix(1 0 0 1 -28.46 -5.88)" id="clip0_1_3189" x="-69" y="-42" rx="0" ry="0" width="138" height="84" />
</clipPath>
<path style="stroke: none; stroke-width: 1; stroke-dasharray: none; stroke-linecap: butt; stroke-dashoffset: 0; stroke-linejoin: miter; stroke-miterlimit: 4; fill: rgb(253,183,151); fill-rule: nonzero; opacity: 1;" vector-effect="non-scaling-stroke"  transform=" translate(-97.46, -47.88)" d="M 97.4576 48.3623 C 97.7254 48.3623 97.9426 48.148 97.9426 47.8835 C 97.9426 47.619 97.7254 47.4047 97.4576 47.4047 C 97.1897 47.4047 96.9725 47.619 96.9725 47.8835 C 96.9725 48.148 97.1897 48.3623 97.4576 48.3623 Z" stroke-linecap="round" />
</g>
		<g transform="matrix(1 0 0 1 28.96 6.14)" clip-path="url(#CLIPPATH_65)"  >
<clipPath id="CLIPPATH_65" >
	<rect transform="matrix(1 0 0 1 -28.96 -6.14)" id="clip0_1_3189" x="-69" y="-42" rx="0" ry="0" width="138" height="84" />
</clipPath>
<path style="stroke: none; stroke-width: 1; stroke-dasharray: none; stroke-linecap: butt; stroke-dashoffset: 0; stroke-linejoin: miter; stroke-miterlimit: 4; fill: rgb(114,53,28); fill-rule: nonzero; opacity: 1;" vector-effect="non-scaling-stroke"  transform=" translate(-97.96, -48.14)" d="M 97.9272 48.2353 C 97.8745 48.2254 97.8275 48.1962 97.7957 48.1535 C 97.7639 48.1108 97.7497 48.0579 97.7558 48.0052 L 97.7558 48.0188 C 97.7456 48.0735 97.7578 48.13 97.7898 48.1759 C 97.8218 48.2217 97.8709 48.2532 97.9263 48.2632 C 97.9818 48.2733 98.039 48.2613 98.0855 48.2297 C 98.1319 48.1981 98.1638 48.1496 98.174 48.0949 L 98.174 48.0797 C 98.1609 48.1319 98.128 48.1772 98.0821 48.2062 C 98.0362 48.2351 97.9807 48.2456 97.9272 48.2353 Z" stroke-linecap="round" />
</g>
		<g transform="matrix(1 0 0 1 29.17 5.31)" clip-path="url(#CLIPPATH_66)"  >
<clipPath id="CLIPPATH_66" >
	<rect transform="matrix(1 0 0 1 -29.17 -5.31)" id="clip0_1_3189" x="-69" y="-42" rx="0" ry="0" width="138" height="84" />
</clipPath>
<path style="stroke: none; stroke-width: 1; stroke-dasharray: none; stroke-linecap: butt; stroke-dashoffset: 0; stroke-linejoin: miter; stroke-miterlimit: 4; fill: rgb(114,53,28); fill-rule: nonzero; opacity: 1;" vector-effect="non-scaling-stroke"  transform=" translate(-98.17, -47.31)" d="M 98.1722 47.5162 C 98.2896 47.5162 98.3848 47.4223 98.3848 47.3064 C 98.3848 47.1906 98.2896 47.0966 98.1722 47.0966 C 98.0549 47.0966 97.9597 47.1906 97.9597 47.3064 C 97.9597 47.4223 98.0549 47.5162 98.1722 47.5162 Z" stroke-linecap="round" />
</g>
		<g transform="matrix(1 0 0 1 29.21 5.45)" clip-path="url(#CLIPPATH_67)"  >
<clipPath id="CLIPPATH_67" >
	<rect transform="matrix(1 0 0 1 -29.21 -5.45)" id="clip0_1_3189" x="-69" y="-42" rx="0" ry="0" width="138" height="84" />
</clipPath>
<path style="stroke: none; stroke-width: 1; stroke-dasharray: none; stroke-linecap: butt; stroke-dashoffset: 0; stroke-linejoin: miter; stroke-miterlimit: 4; fill: rgb(114,53,28); fill-rule: nonzero; opacity: 1;" vector-effect="non-scaling-stroke"  transform=" translate(-98.21, -47.45)" d="M 98.2134 47.5281 C 98.1596 47.5282 98.1077 47.5082 98.0683 47.4721 C 98.0289 47.436 98.0048 47.3865 98.0009 47.3335 C 98.0009 47.3335 98.0009 47.3437 98.0009 47.3488 C 98.0009 47.4044 98.0233 47.4578 98.0631 47.4971 C 98.103 47.5365 98.157 47.5586 98.2134 47.5586 C 98.2697 47.5586 98.3238 47.5365 98.3637 47.4971 C 98.4035 47.4578 98.4259 47.4044 98.4259 47.3488 C 98.4259 47.3488 98.4259 47.3386 98.4259 47.3335 C 98.422 47.3865 98.3979 47.436 98.3585 47.4721 C 98.319 47.5082 98.2672 47.5282 98.2134 47.5281 Z" stroke-linecap="round" />
</g>
		<g transform="matrix(1 0 0 1 29.13 5.63)" clip-path="url(#CLIPPATH_68)"  >
<clipPath id="CLIPPATH_68" >
	<rect transform="matrix(1 0 0 1 -29.13 -5.63)" id="clip0_1_3189" x="-69" y="-42" rx="0" ry="0" width="138" height="84" />
</clipPath>
<path style="stroke: none; stroke-width: 1; stroke-dasharray: none; stroke-linecap: butt; stroke-dashoffset: 0; stroke-linejoin: miter; stroke-miterlimit: 4; fill: rgb(114,53,28); fill-rule: nonzero; opacity: 1;" vector-effect="non-scaling-stroke"  transform=" translate(-98.13, -47.63)" d="M 98.0918 47.7277 C 98.0391 47.7178 97.9921 47.6885 97.9603 47.6459 C 97.9285 47.6032 97.9143 47.5502 97.9204 47.4976 L 97.9204 47.5111 C 97.9102 47.5659 97.9224 47.6224 97.9544 47.6682 C 97.9864 47.7141 98.0355 47.7455 98.0909 47.7556 C 98.1464 47.7657 98.2036 47.7536 98.2501 47.7221 C 98.2965 47.6905 98.3284 47.642 98.3386 47.5873 L 98.3386 47.572 C 98.3255 47.6243 98.2926 47.6695 98.2467 47.6985 C 98.2007 47.7275 98.1453 47.7379 98.0918 47.7277 Z" stroke-linecap="round" />
</g>
		<g transform="matrix(1 0 0 1 29.21 5.33)" clip-path="url(#CLIPPATH_69)"  >
<clipPath id="CLIPPATH_69" >
	<rect transform="matrix(1 0 0 1 -29.21 -5.33)" id="clip0_1_3189" x="-69" y="-42" rx="0" ry="0" width="138" height="84" />
</clipPath>
<path style="stroke: none; stroke-width: 1; stroke-dasharray: none; stroke-linecap: butt; stroke-dashoffset: 0; stroke-linejoin: miter; stroke-miterlimit: 4; fill: rgb(114,53,28); fill-rule: nonzero; opacity: 1;" vector-effect="non-scaling-stroke"  transform=" translate(-98.21, -47.33)" d="M 98.2134 47.4164 C 98.1593 47.4165 98.1072 47.3962 98.0678 47.3598 C 98.0283 47.3233 98.0043 47.2734 98.0009 47.2201 C 98.0009 47.2201 98.0009 47.2302 98.0009 47.2353 C 98.0009 47.291 98.0233 47.3443 98.0631 47.3837 C 98.103 47.423 98.157 47.4451 98.2134 47.4451 C 98.2697 47.4451 98.3238 47.423 98.3637 47.3837 C 98.4035 47.3443 98.4259 47.291 98.4259 47.2353 C 98.4259 47.2353 98.4259 47.2252 98.4259 47.2201 C 98.4224 47.2734 98.3985 47.3233 98.359 47.3598 C 98.3195 47.3962 98.2675 47.4165 98.2134 47.4164 Z" stroke-linecap="round" />
</g>
		<g transform="matrix(1 0 0 1 29 5.3)" clip-path="url(#CLIPPATH_70)"  >
<clipPath id="CLIPPATH_70" >
	<rect transform="matrix(1 0 0 1 -29 -5.3)" id="clip0_1_3189" x="-69" y="-42" rx="0" ry="0" width="138" height="84" />
</clipPath>
<path style="stroke: none; stroke-width: 1; stroke-dasharray: none; stroke-linecap: butt; stroke-dashoffset: 0; stroke-linejoin: miter; stroke-miterlimit: 4; fill: rgb(114,53,28); fill-rule: nonzero; opacity: 1;" vector-effect="non-scaling-stroke"  transform=" translate(-98, -47.3)" d="M 97.9169 47.3031 C 97.9172 47.2497 97.9381 47.1985 97.9754 47.1598 C 98.0126 47.1211 98.0634 47.098 98.1174 47.0949 L 98.102 47.0949 C 98.0456 47.0949 97.9915 47.117 97.9517 47.1564 C 97.9118 47.1957 97.8894 47.2491 97.8894 47.3047 C 97.8894 47.3604 97.9118 47.4138 97.9517 47.4531 C 97.9915 47.4924 98.0456 47.5145 98.102 47.5145 L 98.1174 47.5145 C 98.0628 47.5115 98.0116 47.4878 97.9742 47.4485 C 97.9369 47.4091 97.9163 47.357 97.9169 47.3031 Z" stroke-linecap="round" />
</g>
		<g transform="matrix(1 0 0 1 28.72 5.99)" clip-path="url(#CLIPPATH_71)"  >
<clipPath id="CLIPPATH_71" >
	<rect transform="matrix(1 0 0 1 -28.72 -5.99)" id="clip0_1_3189" x="-69" y="-42" rx="0" ry="0" width="138" height="84" />
</clipPath>
<path style="stroke: none; stroke-width: 1; stroke-dasharray: none; stroke-linecap: butt; stroke-dashoffset: 0; stroke-linejoin: miter; stroke-miterlimit: 4; fill: rgb(16,59,102); fill-rule: nonzero; opacity: 0.1;" vector-effect="non-scaling-stroke"  transform=" translate(-97.72, -47.99)" d="M 97.5398 47.5769 C 97.5208 47.7558 97.5443 47.9365 97.6083 48.1049 C 97.6401 48.1866 97.6543 48.2739 97.6498 48.3613 C 97.6454 48.4487 97.6225 48.5343 97.5826 48.6125 C 97.609 48.6184 97.6364 48.6182 97.6626 48.6117 C 97.6888 48.6052 97.7131 48.5927 97.7335 48.5752 C 97.776 48.5384 97.813 48.4957 97.8431 48.4483 C 97.875 48.4097 97.8978 48.3647 97.91 48.3164 C 97.9152 48.2403 97.9035 48.1641 97.8757 48.093 C 97.8425 47.9634 97.8184 47.8317 97.8037 47.6988 C 97.7934 47.6176 97.8037 47.3841 97.7112 47.3604 C 97.6186 47.3367 97.5569 47.5093 97.5398 47.5769 Z" stroke-linecap="round" />
</g>
		<g transform="matrix(1 0 0 1 28.73 5.98)" clip-path="url(#CLIPPATH_72)"  >
<clipPath id="CLIPPATH_72" >
	<rect transform="matrix(1 0 0 1 -28.73 -5.98)" id="clip0_1_3189" x="-69" y="-42" rx="0" ry="0" width="138" height="84" />
</clipPath>
<path style="stroke: none; stroke-width: 1; stroke-dasharray: none; stroke-linecap: butt; stroke-dashoffset: 0; stroke-linejoin: miter; stroke-miterlimit: 4; fill: rgb(114,53,28); fill-rule: nonzero; opacity: 1;" vector-effect="non-scaling-stroke"  transform=" translate(-97.73, -47.98)" d="M 97.5518 47.5721 C 97.5328 47.751 97.5563 47.9317 97.6204 48.1 C 97.6522 48.1817 97.6663 48.2691 97.6619 48.3565 C 97.6574 48.4439 97.6345 48.5295 97.5947 48.6076 C 97.621 48.6136 97.6484 48.6133 97.6746 48.6069 C 97.7008 48.6004 97.7251 48.5879 97.7455 48.5704 C 97.7881 48.5336 97.825 48.4908 97.8552 48.4435 C 97.887 48.4049 97.9098 48.3598 97.922 48.3115 C 97.9272 48.2355 97.9155 48.1593 97.8877 48.0882 C 97.8545 47.9586 97.8304 47.8269 97.8157 47.694 C 97.8055 47.6127 97.8157 47.3792 97.7232 47.3556 C 97.6306 47.3319 97.5689 47.5028 97.5518 47.5721 Z" stroke-linecap="round" />
</g>
		<g transform="matrix(1 0 0 1 28.57 5.68)" clip-path="url(#CLIPPATH_73)"  >
<clipPath id="CLIPPATH_73" >
	<rect transform="matrix(1 0 0 1 -28.57 -5.68)" id="clip0_1_3189" x="-69" y="-42" rx="0" ry="0" width="138" height="84" />
</clipPath>
<path style="stroke: none; stroke-width: 1; stroke-dasharray: none; stroke-linecap: butt; stroke-dashoffset: 0; stroke-linejoin: miter; stroke-miterlimit: 4; fill: rgb(16,59,102); fill-rule: nonzero; opacity: 0.1;" vector-effect="non-scaling-stroke"  transform=" translate(-97.57, -47.68)" d="M 97.3427 47.6973 C 97.3839 47.7396 97.3924 47.8022 97.4267 47.8496 C 97.4572 47.8818 97.4945 47.9071 97.5359 47.9234 C 97.5774 47.9398 97.6221 47.947 97.6667 47.9443 C 97.691 47.9431 97.7153 47.9483 97.7369 47.9596 C 97.7746 47.9832 97.7763 48.0374 97.8003 48.0746 C 97.8132 48.0882 97.8287 48.099 97.8459 48.1064 C 97.8632 48.1138 97.8818 48.1176 97.9006 48.1176 C 97.9194 48.1176 97.938 48.1138 97.9553 48.1064 C 97.9725 48.099 97.988 48.0882 98.0009 48.0746 C 98.0504 48.0162 98.0776 47.9426 98.078 47.8665 C 98.0862 47.7827 98.0862 47.6982 98.078 47.6144 C 98.0757 47.5184 98.0372 47.4267 97.97 47.3572 C 97.9138 47.3161 97.8487 47.2883 97.7798 47.276 C 97.6858 47.2432 97.5846 47.2356 97.4867 47.254 C 97.4392 47.2696 97.3942 47.2918 97.353 47.32 C 97.2947 47.3572 97.2376 47.395 97.1816 47.4333 C 97.1182 47.4773 96.9982 47.5653 97.1148 47.6127 C 97.1885 47.6465 97.281 47.6313 97.3427 47.6973 Z" stroke-linecap="round" />
</g>
		<g transform="matrix(1 0 0 1 28.59 5.67)" clip-path="url(#CLIPPATH_74)"  >
<clipPath id="CLIPPATH_74" >
	<rect transform="matrix(1 0 0 1 -28.59 -5.67)" id="clip0_1_3189" x="-69" y="-42" rx="0" ry="0" width="138" height="84" />
</clipPath>
<path style="stroke: none; stroke-width: 1; stroke-dasharray: none; stroke-linecap: butt; stroke-dashoffset: 0; stroke-linejoin: miter; stroke-miterlimit: 4; fill: rgb(114,53,28); fill-rule: nonzero; opacity: 1;" vector-effect="non-scaling-stroke"  transform=" translate(-97.59, -47.67)" d="M 97.3548 47.6905 C 97.3959 47.7328 97.4045 47.7954 97.4388 47.8427 C 97.4692 47.875 97.5065 47.9002 97.548 47.9166 C 97.5895 47.933 97.6341 47.9401 97.6787 47.9375 C 97.7031 47.9362 97.7274 47.9415 97.749 47.9527 C 97.7867 47.9764 97.7884 48.0305 97.8124 48.0678 C 97.8252 48.0813 97.8407 48.0922 97.858 48.0996 C 97.8752 48.107 97.8938 48.1108 97.9126 48.1108 C 97.9314 48.1108 97.95 48.107 97.9673 48.0996 C 97.9845 48.0922 98.0001 48.0813 98.0129 48.0678 C 98.0624 48.0094 98.0897 47.9358 98.09 47.8597 C 98.0983 47.7758 98.0983 47.6914 98.09 47.6075 C 98.0877 47.5115 98.0492 47.4198 97.982 47.3504 C 97.9258 47.3092 97.8607 47.2814 97.7918 47.2691 C 97.6978 47.2364 97.5967 47.2288 97.4987 47.2471 C 97.4512 47.2628 97.4062 47.285 97.3651 47.3131 C 97.3068 47.3504 97.2497 47.3881 97.1937 47.4265 C 97.1303 47.4705 97.0103 47.5585 97.1268 47.6058 C 97.2005 47.6397 97.2982 47.6262 97.3548 47.6905 Z" stroke-linecap="round" />
</g>
		<g transform="matrix(1 0 0 1 40.71 10.3)" clip-path="url(#CLIPPATH_75)"  >
<clipPath id="CLIPPATH_75" >
	<rect transform="matrix(1 0 0 1 -40.71 -10.3)" id="clip0_1_3189" x="-69" y="-42" rx="0" ry="0" width="138" height="84" />
</clipPath>
<path style="stroke: none; stroke-width: 1; stroke-dasharray: none; stroke-linecap: butt; stroke-dashoffset: 0; stroke-linejoin: miter; stroke-miterlimit: 4; fill: rgb(33,184,249); fill-rule: nonzero; opacity: 1;" vector-effect="non-scaling-stroke"  transform=" translate(-109.71, -52.3)" d="M 109.323 59.2587 L 110.307 59.2587 C 110.307 59.2587 110.615 48.6279 109.323 45.3472 L 109.076 45.3472 C 109.076 45.3472 109.94 57.3722 109.323 59.2587 Z" stroke-linecap="round" />
</g>
		<g transform="matrix(1 0 0 1 52.02 5.55)" clip-path="url(#CLIPPATH_76)"  >
<clipPath id="CLIPPATH_76" >
	<rect transform="matrix(1 0 0 1 -52.02 -5.55)" id="clip0_1_3189" x="-69" y="-42" rx="0" ry="0" width="138" height="84" />
</clipPath>
<path style="stroke: none; stroke-width: 1; stroke-dasharray: none; stroke-linecap: butt; stroke-dashoffset: 0; stroke-linejoin: miter; stroke-miterlimit: 4; fill: rgb(33,184,249); fill-rule: nonzero; opacity: 1;" vector-effect="non-scaling-stroke"  transform=" translate(-121.02, -47.55)" d="M 121.522 48.2267 C 121.522 48.2267 122.018 49.5803 121.79 50.1826 C 121.79 50.1826 121.447 48.9407 121.046 48.7529 C 120.645 48.5651 120.227 50.1826 120.227 50.1826 C 120.227 50.1826 119.999 49.1674 120.417 48.3383 C 119.88 48.6516 119.444 49.1078 119.159 49.6547 C 119.159 49.6547 119.083 49.0896 120.074 47.9238 C 119.542 48.0699 119.049 48.3266 118.626 48.6767 C 118.626 48.6767 118.436 48.2622 119.616 47.5854 C 119.616 47.5854 119.464 47.0964 118.549 47.3214 C 118.549 47.3214 118.549 46.6819 119.997 46.7952 C 119.997 46.7952 119.997 46.3807 119.044 46.4568 C 119.044 46.4568 119.044 45.9306 120.149 46.1184 C 120.047 45.9599 119.919 45.8197 119.769 45.7039 C 119.959 45.6866 120.15 45.7404 120.302 45.8545 C 120.302 45.8545 120.264 45.1777 120.835 44.9137 L 120.91 45.8545 C 120.91 45.8545 121.551 45.11 121.406 45.2521 C 121.314 45.4788 121.275 45.7227 121.291 45.9662 C 121.503 45.8138 121.759 45.7348 122.021 45.7416 C 122.283 45.7483 122.536 45.8403 122.739 46.0034 C 122.739 46.0034 121.748 46.0778 121.596 46.4179 C 121.596 46.4179 122.434 46.2673 122.624 46.3807 C 122.624 46.3807 121.976 46.6057 122.014 46.7563 C 122.014 46.7563 123.157 46.7563 123.31 47.1709 C 123.31 47.1709 122.129 47.3214 122.052 47.4348 C 122.052 47.4348 123.423 48.4128 123.5 48.6767 C 123.5 48.6767 122.09 47.8493 121.862 47.8493 C 121.634 47.8493 122.89 49.054 122.814 49.3535 C 122.818 49.3552 121.788 48.1505 121.522 48.2267 Z" stroke-linecap="round" />
</g>
		<g transform="matrix(1 0 0 1 32.96 0.44)" clip-path="url(#CLIPPATH_77)"  >
<clipPath id="CLIPPATH_77" >
	<rect transform="matrix(1 0 0 1 -32.96 -0.44)" id="clip0_1_3189" x="-69" y="-42" rx="0" ry="0" width="138" height="84" />
</clipPath>
<path style="stroke: none; stroke-width: 1; stroke-dasharray: none; stroke-linecap: butt; stroke-dashoffset: 0; stroke-linejoin: miter; stroke-miterlimit: 4; fill: rgb(244,244,244); fill-rule: nonzero; opacity: 1;" vector-effect="non-scaling-stroke"  transform=" translate(-101.96, -42.44)" d="M 99.8691 42.3777 C 99.8005 42.3777 99.7251 42.3777 99.6737 42.3777 C 99.6503 42.3789 99.6272 42.3834 99.6052 42.3913 L 99.2624 42.5148 C 99.5452 42.5148 99.8383 42.5148 100.128 42.5148 L 101.749 42.5029 C 101.921 42.5029 102.092 42.5029 102.226 42.4911 C 102.318 42.4911 102.387 42.4742 102.471 42.4674 C 102.778 42.4403 103.225 42.4454 103.626 42.4471 C 103.969 42.4585 104.313 42.4421 104.654 42.398 L 103.797 42.398 C 103.705 42.398 103.607 42.398 103.527 42.398 C 103.446 42.398 103.372 42.3828 103.288 42.3743 C 103.149 42.3625 102.958 42.3608 102.774 42.3608 C 101.797 42.3608 100.831 42.3828 99.8691 42.3777 Z" stroke-linecap="round" />
</g>
		<g transform="matrix(1 0 0 1 23.92 8.68)" clip-path="url(#CLIPPATH_78)"  >
<clipPath id="CLIPPATH_78" >
	<rect transform="matrix(1 0 0 1 -23.92 -8.68)" id="clip0_1_3189" x="-69" y="-42" rx="0" ry="0" width="138" height="84" />
</clipPath>
<path style="stroke: none; stroke-width: 1; stroke-dasharray: none; stroke-linecap: butt; stroke-dashoffset: 0; stroke-linejoin: miter; stroke-miterlimit: 4; fill: rgb(33,184,249); fill-rule: nonzero; opacity: 1;" vector-effect="non-scaling-stroke"  transform=" translate(-92.92, -50.68)" d="M 93.4266 59.7797 L 92.1377 59.7797 C 92.1377 59.7797 91.735 45.8648 93.4266 41.5705 L 93.7488 41.5705 C 93.7488 41.5705 92.621 57.3145 93.4266 59.7797 Z" stroke-linecap="round" />
</g>
		<g transform="matrix(1 0 0 1 40.2 1.71)" clip-path="url(#CLIPPATH_79)"  >
<clipPath id="CLIPPATH_79" >
	<rect transform="matrix(1 0 0 1 -40.2 -1.71)" id="clip0_1_3189" x="-69" y="-42" rx="0" ry="0" width="138" height="84" />
</clipPath>
<path style="stroke: none; stroke-width: 1; stroke-dasharray: none; stroke-linecap: butt; stroke-dashoffset: 0; stroke-linejoin: miter; stroke-miterlimit: 4; fill: rgb(33,184,249); fill-rule: nonzero; opacity: 1;" vector-effect="non-scaling-stroke"  transform=" translate(-109.2, -43.71)" d="M 110 44.8004 C 110 44.8004 110.8 46.9882 110.43 47.9594 C 110.43 47.9594 109.876 45.9544 109.23 45.6515 C 108.584 45.3486 107.907 47.9594 107.907 47.9594 C 107.907 47.9594 107.539 46.3198 108.216 44.9832 C 107.349 45.4893 106.645 46.2265 106.185 47.11 C 106.185 47.11 106.061 46.198 107.662 44.3148 C 107.662 44.3148 106.246 44.6786 105.324 45.5297 C 105.324 45.5297 105.016 44.8613 106.925 43.7683 C 106.925 43.7683 106.678 42.9782 105.203 43.3436 C 105.203 43.3436 105.203 42.3115 107.54 42.4976 C 107.54 42.4976 107.54 41.8293 105.998 41.9511 C 105.998 41.9511 105.998 41.1051 107.782 41.4046 C 107.782 41.4046 107.413 40.8581 107.167 40.7363 C 107.473 40.7095 107.779 40.7964 108.024 40.9799 C 108.024 40.9799 107.962 39.8869 108.881 39.4571 L 109.004 40.9799 C 109.004 40.9799 110.032 39.7769 109.804 40.0087 C 109.657 40.3751 109.594 40.7692 109.619 41.1627 C 109.619 41.1627 110.665 40.3167 111.957 41.2236 C 111.957 41.2236 110.356 41.3454 110.111 41.8919 C 110.111 41.8919 111.465 41.6483 111.772 41.831 C 111.772 41.831 110.726 42.1948 110.788 42.4384 C 110.788 42.4384 112.634 42.4384 112.881 43.1068 C 112.881 43.1068 110.973 43.3504 110.85 43.5314 C 110.85 43.5314 113.066 45.1118 113.188 45.5364 C 113.188 45.5364 110.912 44.1998 110.541 44.1998 C 110.171 44.1998 112.202 46.1439 112.084 46.6295 C 112.092 46.6227 110.432 44.682 110 44.8004 Z" stroke-linecap="round" />
</g>
		<g transform="matrix(1 0 0 1 44.44 -4.3)" clip-path="url(#CLIPPATH_80)"  >
<clipPath id="CLIPPATH_80" >
	<rect transform="matrix(1 0 0 1 -44.44 4.3)" id="clip0_1_3189" x="-69" y="-42" rx="0" ry="0" width="138" height="84" />
</clipPath>
<path style="stroke: none; stroke-width: 1; stroke-dasharray: none; stroke-linecap: butt; stroke-dashoffset: 0; stroke-linejoin: miter; stroke-miterlimit: 4; fill: rgb(244,244,244); fill-rule: nonzero; opacity: 1;" vector-effect="non-scaling-stroke"  transform=" translate(-113.44, -37.7)" d="M 111.352 37.64 C 111.283 37.64 111.208 37.64 111.157 37.64 C 111.133 37.6412 111.11 37.6457 111.088 37.6535 L 110.745 37.7771 C 111.028 37.7771 111.321 37.7771 111.611 37.7771 L 113.232 37.7652 C 113.404 37.7652 113.575 37.7652 113.709 37.7534 C 113.801 37.7534 113.87 37.7365 113.954 37.7297 C 114.26 37.7026 114.708 37.7077 115.109 37.7094 C 115.452 37.7208 115.796 37.7044 116.137 37.6603 L 115.28 37.6603 C 115.188 37.6603 115.09 37.6603 115.009 37.6603 C 114.929 37.6603 114.855 37.6451 114.771 37.6366 C 114.632 37.6248 114.44 37.6231 114.257 37.6231 C 113.28 37.6231 112.313 37.6451 111.352 37.64 Z" stroke-linecap="round" />
</g>
		<g transform="matrix(1 0 0 1 47.53 -7.34)" clip-path="url(#CLIPPATH_81)"  >
<clipPath id="CLIPPATH_81" >
	<rect transform="matrix(1 0 0 1 -47.53 7.34)" id="clip0_1_3189" x="-69" y="-42" rx="0" ry="0" width="138" height="84" />
</clipPath>
<path style="stroke: none; stroke-width: 1; stroke-dasharray: none; stroke-linecap: butt; stroke-dashoffset: 0; stroke-linejoin: miter; stroke-miterlimit: 4; fill: rgb(244,244,244); fill-rule: nonzero; opacity: 1;" vector-effect="non-scaling-stroke"  transform=" translate(-116.53, -34.66)" d="M 106.917 34.361 C 106.603 34.361 106.253 34.361 106.015 34.3796 C 105.909 34.3854 105.803 34.4065 105.703 34.4422 L 104.09 35.0141 C 105.393 35.0462 106.752 35.0361 108.087 35.0259 L 115.573 34.9684 C 116.338 34.9684 117.14 34.9549 117.776 34.9109 C 118.202 34.8804 118.516 34.8364 118.91 34.8026 C 120.328 34.6774 122.393 34.7011 124.239 34.7078 C 126.085 34.7146 128.313 34.6672 128.962 34.4845 L 125 34.4845 C 124.573 34.4845 124.124 34.4845 123.747 34.4642 C 123.306 34.4388 123.037 34.3915 122.65 34.3576 C 122.009 34.3035 121.125 34.2967 120.302 34.2933 C 115.786 34.2747 111.326 34.3796 106.917 34.361 Z" stroke-linecap="round" />
</g>
		<g transform="matrix(1 0 0 1 24.58 -2.57)" clip-path="url(#CLIPPATH_82)"  >
<clipPath id="CLIPPATH_82" >
	<rect transform="matrix(1 0 0 1 -24.58 2.57)" id="clip0_1_3189" x="-69" y="-42" rx="0" ry="0" width="138" height="84" />
</clipPath>
<path style="stroke: none; stroke-width: 1; stroke-dasharray: none; stroke-linecap: butt; stroke-dashoffset: 0; stroke-linejoin: miter; stroke-miterlimit: 4; fill: rgb(33,184,249); fill-rule: nonzero; opacity: 1;" vector-effect="non-scaling-stroke"  transform=" translate(-93.58, -39.43)" d="M 92.5405 40.8548 C 92.5405 40.8548 91.4933 43.7176 91.9766 44.99 C 91.9766 44.99 92.7016 42.3657 93.5465 41.9681 C 94.3915 41.5705 95.2776 44.99 95.2776 44.99 C 95.2776 44.99 95.7609 42.8429 94.8748 41.0984 C 94.8748 41.0984 96.6469 42.0527 97.533 43.8817 C 97.533 43.8817 97.6941 42.6974 95.5998 40.2237 C 95.5998 40.2237 97.4525 40.7008 98.6608 41.8141 C 98.6608 41.8141 99.0635 40.9394 96.5664 39.508 C 96.5664 39.508 96.8886 38.4741 98.8219 38.9513 C 98.8219 38.9513 98.8219 37.5977 95.7609 37.838 C 95.7609 37.838 95.7609 36.9632 97.7747 37.1222 C 97.7747 37.1222 97.7747 36.0089 95.4387 36.4065 C 95.4387 36.4065 95.922 35.6908 96.2442 35.5318 C 95.8412 35.495 95.4389 35.6085 95.1165 35.8499 C 95.1165 35.8499 95.197 34.4184 93.9887 33.8618 L 93.8276 35.8499 C 93.8276 35.8499 92.4736 34.2746 92.7804 34.5775 C 92.861 34.657 93.1026 35.6113 93.0221 36.0884 C 93.0221 36.0884 91.651 34.9751 89.9611 36.168 C 89.9611 36.168 92.0555 36.327 92.3777 37.0427 C 92.3777 37.0427 90.6055 36.7246 90.2027 36.9632 C 90.2027 36.9632 91.5739 37.4403 91.4916 37.7584 C 91.4916 37.7584 89.075 37.7584 88.7494 38.6332 C 88.7494 38.6332 91.2465 38.9513 91.4076 39.1899 C 91.4076 39.1899 88.5077 41.2575 88.3466 41.8141 C 88.3466 41.8141 91.3271 40.0646 91.8104 40.0646 C 92.2937 40.0646 89.6355 42.6026 89.7966 43.2456 C 89.8034 43.2405 91.9852 40.6957 92.5405 40.8548 Z" stroke-linecap="round" />
</g>
		<g transform="matrix(1 0 0 1 14.57 -5.59)" clip-path="url(#CLIPPATH_83)"  >
<clipPath id="CLIPPATH_83" >
	<rect transform="matrix(1 0 0 1 -14.57 5.59)" id="clip0_1_3189" x="-69" y="-42" rx="0" ry="0" width="138" height="84" />
</clipPath>
<path style="stroke: none; stroke-width: 1; stroke-dasharray: none; stroke-linecap: butt; stroke-dashoffset: 0; stroke-linejoin: miter; stroke-miterlimit: 4; fill: rgb(33,184,249); fill-rule: nonzero; opacity: 1;" vector-effect="non-scaling-stroke"  transform=" translate(-83.57, -36.41)" d="M 83.57 39.1153 C 85.0845 39.1153 86.3122 37.9033 86.3122 36.4081 C 86.3122 34.913 85.0845 33.7009 83.57 33.7009 C 82.0555 33.7009 80.8278 34.913 80.8278 36.4081 C 80.8278 37.9033 82.0555 39.1153 83.57 39.1153 Z" stroke-linecap="round" />
</g>
		<g transform="matrix(1 0 0 1 -18.76 -14.81)" clip-path="url(#CLIPPATH_84)"  >
<clipPath id="CLIPPATH_84" >
	<rect transform="matrix(1 0 0 1 18.76 14.81)" id="clip0_1_3189" x="-69" y="-42" rx="0" ry="0" width="138" height="84" />
</clipPath>
<path style="stroke: none; stroke-width: 1; stroke-dasharray: none; stroke-linecap: butt; stroke-dashoffset: 0; stroke-linejoin: miter; stroke-miterlimit: 4; fill: rgb(33,184,249); fill-rule: nonzero; opacity: 0.5;" vector-effect="non-scaling-stroke"  transform=" translate(-50.24, -27.19)" d="M 65.0601 26.2563 L 35.41 26.2563 L 35.41 28.1175 L 65.0601 28.1175 L 65.0601 26.2563 Z" stroke-linecap="round" />
</g>
		<g transform="matrix(1 0 0 1 -26.56 -18.54)" clip-path="url(#CLIPPATH_85)"  >
<clipPath id="CLIPPATH_85" >
	<rect transform="matrix(1 0 0 1 26.56 18.54)" id="clip0_1_3189" x="-69" y="-42" rx="0" ry="0" width="138" height="84" />
</clipPath>
<path style="stroke: none; stroke-width: 1; stroke-dasharray: none; stroke-linecap: butt; stroke-dashoffset: 0; stroke-linejoin: miter; stroke-miterlimit: 4; fill: rgb(33,184,249); fill-rule: nonzero; opacity: 0.5;" vector-effect="non-scaling-stroke"  transform=" translate(-42.44, -23.46)" d="M 65.06 22.5339 L 19.8136 22.5339 L 19.8136 24.3951 L 65.06 24.3951 L 65.06 22.5339 Z" stroke-linecap="round" />
</g>
		<g transform="matrix(1 0 0 1 -26.56 -22.26)" clip-path="url(#CLIPPATH_86)"  >
<clipPath id="CLIPPATH_86" >
	<rect transform="matrix(1 0 0 1 26.56 22.26)" id="clip0_1_3189" x="-69" y="-42" rx="0" ry="0" width="138" height="84" />
</clipPath>
<path style="stroke: none; stroke-width: 1; stroke-dasharray: none; stroke-linecap: butt; stroke-dashoffset: 0; stroke-linejoin: miter; stroke-miterlimit: 4; fill: rgb(33,184,249); fill-rule: nonzero; opacity: 0.5;" vector-effect="non-scaling-stroke"  transform=" translate(-42.44, -19.74)" d="M 65.06 18.8115 L 19.8136 18.8115 L 19.8136 20.6727 L 65.06 20.6727 L 65.06 18.8115 Z" stroke-linecap="round" />
</g>
		<g transform="matrix(1 0 0 1 -26.56 -25.98)" clip-path="url(#CLIPPATH_87)"  >
<clipPath id="CLIPPATH_87" >
	<rect transform="matrix(1 0 0 1 26.56 25.98)" id="clip0_1_3189" x="-69" y="-42" rx="0" ry="0" width="138" height="84" />
</clipPath>
<path style="stroke: none; stroke-width: 1; stroke-dasharray: none; stroke-linecap: butt; stroke-dashoffset: 0; stroke-linejoin: miter; stroke-miterlimit: 4; fill: rgb(33,184,249); fill-rule: nonzero; opacity: 0.5;" vector-effect="non-scaling-stroke"  transform=" translate(-42.44, -16.02)" d="M 65.06 15.0891 L 19.8136 15.0891 L 19.8136 16.9503 L 65.06 16.9503 L 65.06 15.0891 Z" stroke-linecap="round" />
</g>
		<g transform="matrix(1 0 0 1 6.87 -39.04)" clip-path="url(#CLIPPATH_88)"  >
<clipPath id="CLIPPATH_88" >
	<rect transform="matrix(1 0 0 1 -6.87 39.04)" id="clip0_1_3189" x="-69" y="-42" rx="0" ry="0" width="138" height="84" />
</clipPath>
<path style="stroke: none; stroke-width: 1; stroke-dasharray: none; stroke-linecap: butt; stroke-dashoffset: 0; stroke-linejoin: miter; stroke-miterlimit: 4; fill: rgb(238,238,238); fill-rule: nonzero; opacity: 1;" vector-effect="non-scaling-stroke"  transform=" translate(-75.87, -2.96)" d="M 136.58 0.0692749 L 15.1605 0.0692749 L 15.1605 5.84235 L 136.58 5.84235 L 136.58 0.0692749 Z" stroke-linecap="round" />
</g>
		<g transform="matrix(1 0 0 1 -41.42 -39.13)" clip-path="url(#CLIPPATH_89)"  >
<clipPath id="CLIPPATH_89" >
	<rect transform="matrix(1 0 0 1 41.42 39.13)" id="clip0_1_3189" x="-69" y="-42" rx="0" ry="0" width="138" height="84" />
</clipPath>
<path style="stroke: none; stroke-width: 1; stroke-dasharray: none; stroke-linecap: butt; stroke-dashoffset: 0; stroke-linejoin: miter; stroke-miterlimit: 4; fill: rgb(105,240,174); fill-rule: nonzero; opacity: 1;" vector-effect="non-scaling-stroke"  transform=" translate(-27.58, -2.87)" d="M 27.5793 4.2672 C 28.3621 4.2672 28.9967 3.64072 28.9967 2.86792 C 28.9967 2.09512 28.3621 1.46864 27.5793 1.46864 C 26.7965 1.46864 26.1619 2.09512 26.1619 2.86792 C 26.1619 3.64072 26.7965 4.2672 27.5793 4.2672 Z" stroke-linecap="round" />
</g>
		<g transform="matrix(1 0 0 1 -45.32 -39.13)" clip-path="url(#CLIPPATH_90)"  >
<clipPath id="CLIPPATH_90" >
	<rect transform="matrix(1 0 0 1 45.32 39.13)" id="clip0_1_3189" x="-69" y="-42" rx="0" ry="0" width="138" height="84" />
</clipPath>
<path style="stroke: none; stroke-width: 1; stroke-dasharray: none; stroke-linecap: butt; stroke-dashoffset: 0; stroke-linejoin: miter; stroke-miterlimit: 4; fill: rgb(255,255,0); fill-rule: nonzero; opacity: 1;" vector-effect="non-scaling-stroke"  transform=" translate(-23.68, -2.87)" d="M 23.6802 4.2672 C 24.463 4.2672 25.0976 3.64072 25.0976 2.86792 C 25.0976 2.09512 24.463 1.46864 23.6802 1.46864 C 22.8974 1.46864 22.2628 2.09512 22.2628 2.86792 C 22.2628 3.64072 22.8974 4.2672 23.6802 4.2672 Z" stroke-linecap="round" />
</g>
		<g transform="matrix(1 0 0 1 -49.22 -39.13)" clip-path="url(#CLIPPATH_91)"  >
<clipPath id="CLIPPATH_91" >
	<rect transform="matrix(1 0 0 1 49.22 39.13)" id="clip0_1_3189" x="-69" y="-42" rx="0" ry="0" width="138" height="84" />
</clipPath>
<path style="stroke: none; stroke-width: 1; stroke-dasharray: none; stroke-linecap: butt; stroke-dashoffset: 0; stroke-linejoin: miter; stroke-miterlimit: 4; fill: rgb(255,82,82); fill-rule: nonzero; opacity: 1;" vector-effect="non-scaling-stroke"  transform=" translate(-19.78, -2.87)" d="M 19.7811 4.2672 C 20.5639 4.2672 21.1985 3.64072 21.1985 2.86792 C 21.1985 2.09512 20.5639 1.46864 19.7811 1.46864 C 18.9983 1.46864 18.3637 2.09512 18.3637 2.86792 C 18.3637 3.64072 18.9983 4.2672 19.7811 4.2672 Z" stroke-linecap="round" />
</g>
</g>
</g>
</svg>